<svg width="188" height="160" viewBox="0 0 188 160" fill="none" xmlns="http://www.w3.org/2000/svg">
<path d="M7.55168 91.9061C10.2495 92.5365 10.2839 92.9255 9.93441 93.4278C9.50611 94.0533 8.49198 94.856 11.2144 96.5009C18.2593 98.9337 17.6537 91.911 22.1731 88.9266C28.7699 88.9414 23.7189 85.2725 31.1871 87.7299C31.5908 86.0358 29.9416 85.1888 32.5754 83.8542C35.7065 81.3869 34.8597 84.7751 34.2837 86.7204C46.227 88.0254 47.3691 96.5895 48.6245 83.1056C50.1408 77.8509 53.4342 86.1737 56.2108 81.9828C60.3659 84.6273 58.2982 79.2495 62.1677 81.116C69.3307 83.1056 62.0496 85.5532 74.3473 80.2345C75.3417 80.1113 76.154 82.8052 77.2568 80.7663C77.7195 73.7289 87.925 67.834 90.8739 62.535C88.3434 55.9063 89.3773 59.4619 91.8831 52.5427C91.6616 41.6492 94.128 31.6372 107.223 32.435C107.829 33.1934 109.946 40.6445 110.763 36.7688C111.359 34.0799 113.451 38.1034 114.746 35.4834C115.248 31.5485 116.818 32.4744 116.444 36.0005C127.649 42.2352 125.01 23.3636 131.686 21.4528C126.192 11.2488 141.699 12.3027 137.495 3.91586C142.191 -3.46632 147.026 8.62883 151.225 10.7366C152.943 10.3279 154.474 7.72267 154.578 11.7314C146.15 19.2416 167.269 20.8569 161.967 33.6415C157.044 33.0407 162.056 39.3198 163.498 41.1173C174.57 41.9791 167.333 51.0948 178.445 52.9071C181.029 63.2983 185.741 59.0236 177.47 69.6069C182.777 79.5302 186.932 83.1302 181.851 95.3288C185.243 101.864 191.348 120.095 177.878 112.915C176.726 114.52 175.368 117.741 172.837 116.279C169.303 113.142 171.71 119.184 168.564 117.884C168.357 113.998 164.276 111.152 164.847 107.119C156.37 111.27 160.771 100.076 155.218 105.917C155.833 109.226 151.777 105.026 149.896 111.743C142.891 114.895 151.806 121.036 141.483 118.923C138.578 115.84 132.444 126.123 131.4 123.4C129.288 112.575 119.683 119.893 113.416 118.135C110.743 123.557 111.467 134.254 102.074 134.825C90.4259 132.924 77.9903 134.855 65.476 131.954C58.505 133.594 60.8779 140.794 55.881 144.251C60.0016 148.166 57.1856 150.993 51.9328 150.161C48.4079 145.049 46.9654 154.44 39.379 156.263C36.3809 159.336 37.4837 151.761 31.7139 158.749C27.3176 160 29.1293 155.14 23.2906 158.631C19.8937 157.252 28.1595 153.539 25.6783 150.565C23.4678 146.64 22.3946 146.073 22.2814 141.316C19.5097 140.149 13.5578 137.465 18.4414 134.589C17.9688 133.683 16.6445 132.609 15.6993 132.018C8.16213 133.589 13.5775 125.247 8.41321 124.193C7.34984 122.558 7.69937 121.908 8.9892 120.681C9.05812 116.697 0.373906 117.761 6.15846 113.161C5.98123 108.571 -4.70171 110.714 6.23724 104.026C11.2341 93.221 4.04649 95.3189 7.55661 91.911L7.55168 91.9061Z" fill="white" stroke="#FCD800" stroke-width="2" stroke-linecap="round" stroke-linejoin="round"/>
<path d="M74.936 107.176H75.048C75.5067 107.176 75.944 107.123 76.36 107.016C76.776 106.909 77.1653 106.755 77.528 106.552C77.9013 106.339 78.2373 106.088 78.536 105.8C78.8347 105.501 79.096 105.165 79.32 104.792L77.768 103.64C77.6293 103.885 77.464 104.109 77.272 104.312C77.0907 104.515 76.888 104.691 76.664 104.84C76.44 104.979 76.1947 105.091 75.928 105.176C75.672 105.251 75.4 105.288 75.112 105.288H74.936C74.4773 105.288 74.056 105.197 73.672 105.016C73.288 104.835 72.9573 104.584 72.68 104.264C72.4027 103.944 72.1893 103.555 72.04 103.096C71.8907 102.637 71.816 102.125 71.816 101.56V101.24C71.816 100.675 71.8907 100.163 72.04 99.704C72.1893 99.2453 72.3973 98.856 72.664 98.536C72.9413 98.2053 73.272 97.9547 73.656 97.784C74.04 97.6027 74.4613 97.512 74.92 97.512H75.048C75.656 97.512 76.1787 97.6613 76.616 97.96C77.0533 98.248 77.416 98.648 77.704 99.16L79.304 98.024C79.08 97.64 78.8133 97.304 78.504 97.016C78.1947 96.7173 77.8533 96.4667 77.48 96.264C77.1173 96.0507 76.7227 95.8907 76.296 95.784C75.88 95.6773 75.4533 95.624 75.016 95.624H74.888C74.1307 95.624 73.4267 95.7627 72.776 96.04C72.136 96.3173 71.5813 96.7013 71.112 97.192C70.6533 97.6827 70.2907 98.2747 70.024 98.968C69.768 99.6613 69.64 100.419 69.64 101.24V101.544C69.64 102.387 69.768 103.155 70.024 103.848C70.28 104.531 70.6373 105.123 71.096 105.624C71.5653 106.115 72.1253 106.499 72.776 106.776C73.4267 107.043 74.1467 107.176 74.936 107.176ZM80.8544 107H82.8384V102.392C82.8384 102.061 82.8864 101.763 82.9824 101.496C83.0784 101.229 83.2117 101.005 83.3824 100.824C83.5637 100.643 83.7824 100.504 84.0384 100.408C84.2944 100.301 84.577 100.248 84.8864 100.248C85.4197 100.248 85.8144 100.403 86.0704 100.712C86.337 101.011 86.4704 101.469 86.4704 102.088V107H88.4544V101.672C88.4544 100.669 88.209 99.896 87.7184 99.352C87.2277 98.7973 86.5344 98.52 85.6384 98.52C85.0837 98.52 84.5664 98.6267 84.0864 98.84C83.6064 99.0427 83.1904 99.3307 82.8384 99.704V95.48H80.8544V107ZM94.0935 107.144H94.3015C94.6428 107.144 94.9735 107.107 95.2935 107.032C95.6135 106.957 95.9175 106.856 96.2055 106.728C96.5042 106.6 96.7762 106.44 97.0215 106.248C97.2775 106.056 97.5015 105.843 97.6935 105.608L96.6055 104.408C96.3602 104.707 96.0508 104.963 95.6775 105.176C95.3148 105.379 94.8828 105.48 94.3815 105.48H94.2215C93.9015 105.48 93.6082 105.432 93.3415 105.336C93.0748 105.24 92.8455 105.107 92.6535 104.936C92.4722 104.765 92.3228 104.557 92.2055 104.312C92.0882 104.056 92.0135 103.773 91.9815 103.464V103.448H97.9495V102.376C97.9495 101.811 97.8588 101.293 97.6775 100.824C97.4962 100.355 97.2402 99.9493 96.9095 99.608C96.5788 99.2667 96.1842 99.0053 95.7255 98.824C95.2668 98.632 94.7602 98.536 94.2055 98.536H94.0455C93.4375 98.536 92.8882 98.6427 92.3975 98.856C91.9068 99.0587 91.4802 99.3467 91.1175 99.72C90.7655 100.083 90.4935 100.52 90.3015 101.032C90.1095 101.544 90.0135 102.109 90.0135 102.728V103.048C90.0135 103.656 90.1095 104.216 90.3015 104.728C90.4935 105.229 90.7655 105.661 91.1175 106.024C91.4802 106.376 91.9122 106.653 92.4135 106.856C92.9255 107.048 93.4855 107.144 94.0935 107.144ZM92.0135 102.12C92.0668 101.8 92.1468 101.517 92.2535 101.272C92.3708 101.016 92.5148 100.803 92.6855 100.632C92.8562 100.461 93.0535 100.328 93.2775 100.232C93.5015 100.136 93.7522 100.088 94.0295 100.088H94.1735C94.4508 100.088 94.7015 100.136 94.9255 100.232C95.1495 100.328 95.3415 100.461 95.5015 100.632C95.6722 100.803 95.8002 101.011 95.8855 101.256C95.9815 101.501 96.0348 101.773 96.0455 102.072V102.12H92.0135ZM99.6044 107H101.588V102.6C101.588 102.259 101.626 101.96 101.7 101.704C101.786 101.437 101.908 101.219 102.068 101.048C102.239 100.867 102.442 100.733 102.676 100.648C102.911 100.563 103.188 100.52 103.508 100.52C103.615 100.52 103.722 100.525 103.828 100.536C103.946 100.547 104.042 100.563 104.116 100.584V98.68H103.908C103.386 98.68 102.911 98.7813 102.484 98.984C102.068 99.176 101.711 99.448 101.412 99.8C101.391 99.6187 101.354 99.4267 101.3 99.224C101.258 99.0213 101.21 98.84 101.156 98.68H99.6044V107ZM105.651 107H107.635V103.064H107.763L110.771 107H113.155L109.539 102.536L113.043 98.68H110.819L107.763 102.184H107.635V95.48H105.651V107ZM116.438 107.16C116.95 107.16 117.435 107.064 117.894 106.872C118.353 106.669 118.758 106.392 119.11 106.04C119.131 106.211 119.158 106.387 119.19 106.568C119.233 106.739 119.275 106.883 119.318 107H121.206C121.131 106.733 121.062 106.456 120.998 106.168C120.945 105.869 120.918 105.576 120.918 105.288V101.528C120.918 101.059 120.843 100.637 120.694 100.264C120.555 99.8907 120.342 99.576 120.054 99.32C119.777 99.0533 119.435 98.8507 119.03 98.712C118.625 98.5733 118.171 98.504 117.67 98.504H117.526C116.907 98.504 116.305 98.6 115.718 98.792C115.131 98.984 114.582 99.2453 114.07 99.576L114.886 100.984C115.281 100.707 115.691 100.499 116.118 100.36C116.555 100.221 116.982 100.152 117.398 100.152H117.478C117.99 100.152 118.374 100.275 118.63 100.52C118.897 100.755 119.03 101.08 119.03 101.496V101.864H118.374C116.774 101.864 115.59 102.088 114.822 102.536C114.054 102.973 113.67 103.645 113.67 104.552V104.696C113.67 105.069 113.739 105.411 113.878 105.72C114.017 106.019 114.203 106.275 114.438 106.488C114.683 106.701 114.977 106.867 115.318 106.984C115.659 107.101 116.033 107.16 116.438 107.16ZM116.854 105.56C116.673 105.56 116.502 105.533 116.342 105.48C116.182 105.427 116.043 105.357 115.926 105.272C115.819 105.187 115.734 105.08 115.67 104.952C115.617 104.824 115.59 104.68 115.59 104.52V104.44C115.59 103.992 115.825 103.667 116.294 103.464C116.774 103.251 117.526 103.144 118.55 103.144H119.03V104.536C118.763 104.856 118.438 105.107 118.054 105.288C117.681 105.469 117.281 105.56 116.854 105.56ZM126.144 107.16C126.624 107.16 127.061 107.101 127.456 106.984C127.851 106.867 128.181 106.696 128.448 106.472C128.725 106.248 128.939 105.976 129.088 105.656C129.237 105.336 129.312 104.979 129.312 104.584C129.312 104.147 129.227 103.784 129.056 103.496C128.885 103.208 128.661 102.973 128.384 102.792C128.117 102.6 127.813 102.451 127.472 102.344C127.131 102.227 126.795 102.131 126.464 102.056C126.208 101.992 125.963 101.933 125.728 101.88C125.493 101.816 125.285 101.747 125.104 101.672C124.933 101.597 124.795 101.501 124.688 101.384C124.581 101.267 124.528 101.123 124.528 100.952C124.528 100.813 124.555 100.696 124.608 100.6C124.661 100.504 124.731 100.424 124.816 100.36C124.912 100.285 125.029 100.232 125.168 100.2C125.317 100.157 125.483 100.136 125.664 100.136C126.069 100.136 126.475 100.211 126.88 100.36C127.296 100.509 127.669 100.707 128 100.952L128.944 99.544C128.507 99.2347 128.011 98.9893 127.456 98.808C126.901 98.616 126.325 98.52 125.728 98.52C125.259 98.52 124.837 98.5787 124.464 98.696C124.101 98.8027 123.787 98.968 123.52 99.192C123.264 99.4053 123.067 99.6667 122.928 99.976C122.789 100.285 122.72 100.632 122.72 101.016C122.72 101.389 122.784 101.709 122.912 101.976C123.04 102.232 123.211 102.445 123.424 102.616C123.648 102.787 123.899 102.925 124.176 103.032C124.453 103.139 124.736 103.235 125.024 103.32C125.397 103.437 125.728 103.533 126.016 103.608C126.315 103.683 126.565 103.763 126.768 103.848C126.981 103.933 127.141 104.035 127.248 104.152C127.355 104.259 127.408 104.413 127.408 104.616C127.408 104.776 127.381 104.909 127.328 105.016C127.275 105.123 127.189 105.219 127.072 105.304C126.965 105.379 126.827 105.437 126.656 105.48C126.496 105.512 126.309 105.528 126.096 105.528C125.861 105.528 125.621 105.507 125.376 105.464C125.131 105.411 124.891 105.341 124.656 105.256C124.421 105.171 124.192 105.069 123.968 104.952C123.755 104.835 123.563 104.696 123.392 104.536L122.4 105.96C122.891 106.355 123.451 106.653 124.08 106.856C124.72 107.059 125.408 107.16 126.144 107.16ZM131.914 110.216C132.341 110.216 132.725 110.147 133.067 110.008C133.419 109.88 133.728 109.693 133.995 109.448C134.272 109.213 134.512 108.925 134.715 108.584C134.917 108.243 135.088 107.853 135.227 107.416L138.075 98.68H136.075L134.235 105.064H134.123L131.755 98.68H129.659L133.163 107.352C132.981 107.736 132.752 108.024 132.475 108.216C132.197 108.419 131.893 108.52 131.562 108.52C131.371 108.52 131.173 108.493 130.971 108.44C130.779 108.387 130.592 108.312 130.411 108.216V109.912C130.635 110.029 130.885 110.109 131.163 110.152C131.44 110.195 131.691 110.216 131.914 110.216Z" fill="#15141A"/>
<circle cx="124" cy="79" r="6" fill="#025ABB"/>
</svg>
