<svg width="150" height="84" viewBox="0 0 150 84" fill="none" xmlns="http://www.w3.org/2000/svg">
<path d="M97.8883 36.7054C72.1999 42.3344 85.5561 39.3598 73.0615 58.5712C54.7527 67.8642 19.7845 58.261 10.1551 80.7178C-2.6005 86.5979 2.80005 79.4718 4.6068 71.4592C1.32806 64.018 0.0530083 52.2478 8.49107 48.0421C35.5529 4.16765 39.9098 40.8323 40.156 14.1403C38.1769 9.65382 36.1191 -0.821101 43.8876 1.56739C48.1854 0.483953 47.2107 8.31428 49.3276 2.39968C56.402 1.59202 55.2943 15.7851 64.5495 3.63086C67.912 2.80843 65.1698 7.72331 65.6425 9.81633C68.04 14.421 71.2104 12.1014 68.4781 8.05326C69.9009 2.94631 71.5255 10.5797 71.171 12.589C72.9236 14.6869 75.9464 12.3526 77.9894 13.4015C87.2398 17.9077 87.2841 6.68419 95.9092 20.0598C100.212 21.6948 95.2988 14.0368 98.8433 15.7112C100.424 18.4445 105.494 15.7359 100.916 13.7019C99.1141 13.4311 95.9535 12.2886 98.7449 10.624C101.206 12.3526 107.39 14.4702 103.496 9.29924C104.298 3.57177 105.76 15.8146 107.572 10.1167C107.808 8.87077 106.656 6.72853 108.739 6.59556C111.038 7.03386 108.665 10.491 110.644 12.0128C113.893 14.2584 114.577 8.04834 117.812 9.04314C121.863 9.82125 125.319 12.8647 128.071 8.93481C142.033 12.7367 125.984 1.71023 138.799 7.22101C143.83 -0.0577471 147.419 13.3375 147.891 17.5285C149.418 19.5427 144.12 22.5714 142.707 23.6105C140.6 22.4631 139.631 20.4932 137.144 22.5665C133.172 29.2099 129.932 28.5353 123.611 25.5558C118.924 22.1085 123.714 30.1555 119.151 27.8359C114.887 31.9038 112.588 20.6901 107.035 28.2792C110.102 42.6791 100.045 23.7484 97.8932 36.7054H97.8883Z" fill="white" stroke="#FCD800" stroke-width="2" stroke-linecap="round" stroke-linejoin="round"/>
<path d="M17.8293 62.5664L17.9287 62.5147C18.3356 62.303 18.6989 62.0538 19.0187 61.7672C19.3385 61.4805 19.6125 61.1636 19.8406 60.8164C20.0734 60.4548 20.2557 60.0774 20.3877 59.684C20.5148 59.2812 20.5915 58.8625 20.6179 58.4279L18.7094 58.1224C18.6996 58.404 18.6564 58.6791 18.5796 58.9475C18.5123 59.211 18.4137 59.4606 18.284 59.6965C18.1493 59.9229 17.9833 60.1355 17.7861 60.3343C17.5935 60.5187 17.3695 60.6774 17.114 60.8103L16.9578 60.8916C16.551 61.1033 16.1354 61.2173 15.711 61.2337C15.2867 61.2501 14.8776 61.1804 14.4839 61.0245C14.0902 60.8687 13.7212 60.6218 13.377 60.2838C13.0328 59.9459 12.7303 59.5262 12.4693 59.0246L12.3216 58.7408C12.0606 58.2393 11.8905 57.7506 11.8113 57.2748C11.7321 56.799 11.7369 56.3576 11.8257 55.9507C11.9191 55.5293 12.0967 55.1543 12.3586 54.8257C12.6155 54.4875 12.9474 54.2126 13.3543 54.0009L13.4679 53.9418C14.0072 53.6612 14.5398 53.5524 15.0656 53.6155C15.5865 53.6691 16.0929 53.8565 16.5847 54.1778L17.4797 52.4315C17.1037 52.1942 16.7121 52.0193 16.3047 51.9066C15.8924 51.7844 15.4739 51.7196 15.0492 51.7122C14.629 51.6903 14.2051 51.7305 13.7773 51.8329C13.3591 51.9303 12.9559 52.0799 12.568 52.2818L12.4544 52.3409C11.7826 52.6904 11.2221 53.1384 10.7729 53.6848C10.3332 54.2262 10.0184 54.8229 9.82856 55.4748C9.64817 56.1218 9.59971 56.8143 9.68319 57.5525C9.77613 58.2857 10.0122 59.0166 10.3913 59.7452L10.5316 60.0149C10.9206 60.7624 11.3886 61.3846 11.9358 61.8815C12.478 62.3689 13.0682 62.7291 13.7065 62.9621C14.3493 63.1808 15.0234 63.2629 15.7286 63.2086C16.4289 63.1448 17.1291 62.9307 17.8293 62.5664ZM22.9982 59.6784L24.7582 58.7626L22.6312 54.6749C22.4786 54.3815 22.3833 54.0944 22.3454 53.8136C22.3074 53.5327 22.3223 53.2724 22.39 53.0328C22.4672 52.7882 22.5971 52.5643 22.7799 52.361C22.9578 52.1482 23.1839 51.9704 23.4583 51.8276C23.9314 51.5814 24.3529 51.5365 24.7228 51.6927C25.0972 51.8345 25.4272 52.1799 25.7128 52.7287L27.9802 57.0861L29.7401 56.1703L27.2808 51.4439C26.818 50.5544 26.2434 49.9816 25.557 49.7255C24.8657 49.46 24.1226 49.534 23.3278 49.9476C22.8358 50.2036 22.4261 50.537 22.0987 50.9479C21.7665 51.3492 21.5304 51.7967 21.3905 52.2904L19.4407 48.5433L17.6807 49.4591L22.9982 59.6784ZM34.809 53.6951L34.9936 53.5991C35.2963 53.4415 35.5724 53.2557 35.8219 53.0418C36.0713 52.8279 36.2942 52.5976 36.4906 52.3512C36.6964 52.0997 36.8639 51.8323 36.9929 51.5487C37.1313 51.2602 37.2316 50.9676 37.2936 50.6708L35.7745 50.1085C35.6947 50.4866 35.5385 50.8565 35.3058 51.2181C35.0776 51.5653 34.7412 51.8546 34.2964 52.086L34.1545 52.1599C33.8706 52.3076 33.5883 52.4004 33.3074 52.4383C33.0265 52.4762 32.7615 52.4638 32.5124 52.4011C32.2728 52.3334 32.0443 52.2178 31.827 52.0543C31.6047 51.8814 31.408 51.6651 31.2368 51.4054L31.2295 51.3913L36.5236 48.6365L36.0288 47.6855C35.7678 47.184 35.4486 46.7669 35.0711 46.4343C34.6936 46.1017 34.2794 45.8603 33.8285 45.7101C33.3776 45.5599 32.9069 45.5103 32.4163 45.5611C31.9208 45.6025 31.4271 45.7512 30.935 46.0073L30.7931 46.0811C30.2537 46.3618 29.8157 46.71 29.4789 47.1257C29.1371 47.532 28.8916 47.9844 28.7422 48.483C28.5973 48.9672 28.5579 49.4807 28.6239 50.0235C28.6899 50.5663 28.8657 51.1121 29.1513 51.661L29.299 51.9448C29.5797 52.4842 29.9233 52.9366 30.33 53.3022C30.7317 53.6583 31.1724 53.916 31.6521 54.0752C32.1363 54.2201 32.6475 54.2667 33.1858 54.2151C33.7286 54.149 34.2697 53.9757 34.809 53.6951ZM30.6448 50.1984C30.5445 49.8899 30.4849 49.6023 30.4663 49.3354C30.4522 49.0541 30.4815 48.7984 30.5541 48.5682C30.6267 48.3381 30.7403 48.1287 30.8946 47.9401C31.049 47.7516 31.2493 47.5933 31.4953 47.4653L31.623 47.3988C31.869 47.2708 32.1136 47.1977 32.3566 47.1794C32.5996 47.1612 32.8315 47.1909 33.0522 47.2684C33.2824 47.341 33.4919 47.4664 33.6809 47.6447C33.8793 47.818 34.0521 48.0347 34.1994 48.2947L34.2216 48.3373L30.6448 50.1984ZM39.6312 51.0235L41.3912 50.1077L39.3602 46.2045C39.2027 45.9017 39.0979 45.6196 39.046 45.358C38.9986 45.0821 39.0065 44.8315 39.0696 44.6062C39.1373 44.3666 39.2556 44.1547 39.4243 43.9707C39.5931 43.7867 39.8194 43.6208 40.1033 43.4731C40.1979 43.4239 40.295 43.3794 40.3946 43.3396C40.5036 43.2949 40.5961 43.2648 40.6722 43.2493L39.7933 41.5602L39.6088 41.6562C39.1452 41.8975 38.7709 42.2065 38.4859 42.5832C38.2055 42.9456 38.0141 43.3518 37.9116 43.8019C37.809 43.6509 37.6873 43.4978 37.5464 43.3427C37.415 43.1826 37.2887 43.0439 37.1675 42.9265L35.7908 43.6429L39.6312 51.0235ZM45.0096 48.225L46.7695 47.3092L44.6721 43.2782C44.5145 42.9754 44.4168 42.6836 44.3788 42.4027C44.3409 42.1219 44.3533 41.8569 44.4161 41.6078C44.4834 41.3443 44.6037 41.1133 44.7771 40.9149C44.9454 40.7071 45.1669 40.5317 45.4413 40.389L45.5264 40.3446C45.9901 40.1034 46.4021 40.0633 46.7625 40.2245C47.1229 40.3857 47.4435 40.7359 47.7241 41.2753L49.9915 45.6327L51.7515 44.7169L49.2921 39.9904C48.8244 39.0915 48.2473 38.514 47.5609 38.2579C46.884 37.9969 46.1387 38.0781 45.3249 38.5016L45.2398 38.5459C44.7193 38.8167 44.2981 39.1741 43.9761 39.6183C43.6586 40.048 43.4397 40.5286 43.3195 41.0601C43.2169 40.9091 43.0949 40.7441 42.9537 40.5651C42.8124 40.3861 42.6812 40.2379 42.5601 40.1206L41.1691 40.8444L45.0096 48.225ZM53.6168 43.7463L55.3768 42.8305L51.5363 35.4499L49.7763 36.3657L53.6168 43.7463ZM50.0439 34.7655C50.3562 34.603 50.5626 34.3874 50.6632 34.1186C50.7733 33.8448 50.7545 33.566 50.6068 33.2822C50.4591 32.9983 50.2391 32.8182 49.9469 32.7418C49.6641 32.6605 49.3665 32.7011 49.0543 32.8635C48.7515 33.0211 48.5522 33.239 48.4565 33.5173C48.3608 33.7955 48.3868 34.0766 48.5346 34.3605C48.6823 34.6443 48.8951 34.8222 49.1729 34.894C49.4508 34.9659 49.7411 34.923 50.0439 34.7655ZM59.0908 40.8979L61.305 39.7458L60.0194 31.0358L58.16 32.0033L59.4411 38.6595L59.2992 38.7333L54.5691 33.8718L52.7097 34.8393L59.0908 40.8979ZM67.515 36.6046C67.7705 36.4717 68.0515 36.2954 68.3581 36.0758C68.6741 35.8512 68.9163 35.635 69.0847 35.4271L68.3609 34.0362C68.3094 34.099 68.2319 34.1694 68.1282 34.2474C68.0339 34.3205 67.935 34.3961 67.8313 34.4741C67.7321 34.5377 67.6282 34.6038 67.5196 34.6723C67.406 34.7314 67.3114 34.7807 67.2357 34.8201C66.9424 34.9727 66.6806 35.0127 66.4504 34.9401C66.2203 34.8675 65.9993 34.6277 65.7876 34.2208L63.9929 30.7718L66.0226 29.7157L65.2841 28.2963L63.2686 29.3451L62.2715 27.429L60.6223 28.5577L61.516 30.2751C61.36 30.3682 61.2045 30.4852 61.0493 30.6261C60.8987 30.7526 60.7695 30.8739 60.6616 30.9902L61.282 32.1824L62.2471 31.6802L64.2191 35.4699C64.4209 35.8578 64.643 36.1691 64.8854 36.4038C65.1322 36.624 65.3948 36.782 65.6731 36.8777C65.9464 36.9639 66.2354 36.9879 66.5401 36.9496C66.8494 36.8969 67.1743 36.7819 67.515 36.6046ZM73.3111 33.6788C73.7369 33.4573 74.0978 33.2034 74.3938 32.9171C74.6897 32.6308 74.9043 32.3268 75.0374 32.005C75.18 31.6783 75.2437 31.3385 75.2285 30.9857C75.2133 30.6329 75.1146 30.2815 74.9324 29.9314C74.7305 29.5434 74.4874 29.2611 74.2031 29.0844C73.9187 28.9077 73.6117 28.8029 73.282 28.77C72.9568 28.7228 72.6182 28.7307 72.2662 28.7936C71.9092 28.8471 71.5668 28.917 71.239 29.0034C70.9824 29.0648 70.7377 29.126 70.5049 29.187C70.2672 29.2385 70.0507 29.2731 69.8553 29.2905C69.6695 29.3031 69.5022 29.2819 69.3534 29.2271C69.2046 29.1722 69.0908 29.0691 69.012 28.9177C68.948 28.7947 68.9175 28.6783 68.9205 28.5685C68.9235 28.4587 68.9481 28.3558 68.9943 28.2596C69.0449 28.149 69.1244 28.0476 69.2327 27.9552C69.3454 27.8484 69.4823 27.7532 69.6431 27.6695C70.0027 27.4824 70.3967 27.3615 70.8252 27.3069C71.2632 27.2473 71.6854 27.25 72.092 27.315L72.2795 25.6303C71.7488 25.5577 71.1955 25.5691 70.6198 25.6642C70.0391 25.7499 69.4838 25.9306 68.954 26.2064C68.5376 26.423 68.1909 26.6695 67.9139 26.946C67.6414 27.208 67.4386 27.4999 67.3054 27.8217C67.1768 28.1291 67.1224 28.452 67.1422 28.7904C67.1619 29.1288 67.2605 29.4684 67.4377 29.809C67.61 30.1402 67.8145 30.3945 68.0512 30.572C68.2829 30.74 68.5327 30.8505 68.8008 30.9034C69.0783 30.9514 69.3646 30.9587 69.6599 30.9253C69.9551 30.8919 70.2502 30.8466 70.5451 30.7894C70.9304 30.7211 71.2681 30.6537 71.558 30.587C71.8574 30.5153 72.1167 30.4706 72.3359 30.4527C72.5645 30.43 72.7532 30.446 72.902 30.5009C73.0459 30.5462 73.1646 30.6588 73.2581 30.8386C73.332 30.9805 73.3699 31.1111 73.3718 31.2304C73.3737 31.3496 73.3423 31.4742 73.2776 31.604C73.2175 31.7195 73.1216 31.8356 72.9899 31.9522C72.8627 32.0544 72.7045 32.1548 72.5152 32.2532C72.3071 32.3616 72.0843 32.4534 71.847 32.5288C71.6047 32.5948 71.3598 32.644 71.1123 32.6767C70.8647 32.7093 70.6145 32.7252 70.3616 32.7246C70.1182 32.7189 69.8839 32.6846 69.6586 32.6214L69.436 34.3425C70.0534 34.4661 70.688 34.4726 71.3399 34.3619C72.0011 34.2462 72.6582 34.0186 73.3111 33.6788ZM77.4297 31.3554L79.1897 30.4396L75.3492 23.059L73.5892 23.9748L77.4297 31.3554ZM73.8568 22.3746C74.1691 22.2121 74.3755 21.9965 74.4761 21.7277C74.5862 21.454 74.5674 21.1752 74.4197 20.8913C74.272 20.6075 74.052 20.4273 73.7597 20.3509C73.4769 20.2696 73.1794 20.3102 72.8672 20.4727C72.5644 20.6302 72.3651 20.8482 72.2694 21.1264C72.1737 21.4047 72.1997 21.6857 72.3474 21.9696C72.4952 22.2535 72.7079 22.4313 72.9858 22.5032C73.2637 22.575 73.554 22.5322 73.8568 22.3746Z" fill="#15141A"/>
<circle cx="54" cy="20" r="6" fill="#025ABB"/>
</svg>
