<svg width="173" height="186" viewBox="0 0 173 186" fill="none" xmlns="http://www.w3.org/2000/svg">
<path d="M73.4679 25.126C84.658 22.9001 77.3965 31.8729 82.7577 31.5775C119.439 30.819 96.9655 -2.62483 114.324 5.89003C117.76 2.92042 126.543 11.9327 130.014 10.997C136.488 8.03229 136.483 13.3018 139.781 11.5092C148.175 0.86188 176.699 -7.53479 162.082 14.9663C159.286 21.7378 180.672 29.1594 166.868 30.2478C162.171 25.8992 171.274 42.5744 154.235 42.993C139.048 56.7231 157.169 62.2536 152.709 74.5704C152.266 78.2639 157.794 81.6718 150.892 79.8054C153.398 105.591 141.145 81.7753 145.246 94.8012C145.782 95.3035 146.816 94.6633 147.097 95.5547C146.004 100.583 149.061 98.6031 147.796 100.868C147.126 104.498 146.181 108.797 142.095 109.585C138.009 125.231 149.73 114.559 146.727 121.991C155.17 127.615 151.567 118.228 155.692 121.385C153.452 127.235 152.054 124.552 154.422 130.53C154.929 135.923 149.41 140.404 151.094 146.314C152.35 148.348 155.328 148.924 151.975 151.347C151.306 168.032 131.811 193.769 114.659 180.595C103.808 175.227 100.21 191.474 90.7084 181.669C94.5483 177.936 86.0216 180.368 87.3361 175.616C81.4333 172.326 95.5427 167.16 85.0665 166.83C79.9958 161.792 77.2882 155.73 73.4581 165.21C66.5018 169.293 56.6262 172.174 46.8639 169.637C43.3439 169.697 46.3125 164.959 42.3839 165.698C37.1557 163.068 47.7845 156.075 36.3089 151.106C35.9742 142.33 20.9393 152.859 17.6753 147.762C9.64583 149.042 25.173 141.202 9.9806 135.327C12.1073 129.555 8.72521 123.286 2.55174 125.384C-0.190385 112.215 4.59972 102.947 9.57198 92.1911C9.34552 89.8174 3.34928 84.4789 8.06553 84.2327C8.40522 83.8092 7.80463 83.3364 7.46494 83.3019C4.16159 80.7608 7.97693 76.0527 3.27544 75.6538C1.46377 73.7972 5.40218 73.2653 2.18744 71.7042C1.83298 70.143 5.16094 69.7097 4.3388 68.2963C6.78062 55.8564 6.63293 67.203 9.66059 57.8263C10.0249 56.3538 6.89877 57.3387 8.76459 55.7086C12.9245 53.6107 9.6606 52.5519 11.1769 50.2126C12.6292 47.9965 14.8052 46.4551 15.1104 43.8991C20.4716 44.6772 17.1534 40.4469 20.2254 39.457C21.7171 38.6494 23.1595 37.3148 23.0512 35.5419C24.3263 33.4735 24.73 35.5665 26.4924 35.0198C28.3582 31.5282 23.7306 33.5424 25.2666 30.9914C25.045 24.7567 38.8541 26.3474 41.5323 30.3709C55.8484 18.783 55.7893 25.7712 73.4482 25.1113L73.4679 25.126Z" fill="white" stroke="#025ABB" stroke-width="2" stroke-linecap="round" stroke-linejoin="round"/>
<path d="M57.936 111.176H58.048C58.5067 111.176 58.944 111.123 59.36 111.016C59.776 110.909 60.1653 110.755 60.528 110.552C60.9013 110.339 61.2373 110.088 61.536 109.8C61.8347 109.501 62.096 109.165 62.32 108.792L60.768 107.64C60.6293 107.885 60.464 108.109 60.272 108.312C60.0907 108.515 59.888 108.691 59.664 108.84C59.44 108.979 59.1947 109.091 58.928 109.176C58.672 109.251 58.4 109.288 58.112 109.288H57.936C57.4773 109.288 57.056 109.197 56.672 109.016C56.288 108.835 55.9573 108.584 55.68 108.264C55.4027 107.944 55.1893 107.555 55.04 107.096C54.8907 106.637 54.816 106.125 54.816 105.56V105.24C54.816 104.675 54.8907 104.163 55.04 103.704C55.1893 103.245 55.3973 102.856 55.664 102.536C55.9413 102.205 56.272 101.955 56.656 101.784C57.04 101.603 57.4613 101.512 57.92 101.512H58.048C58.656 101.512 59.1787 101.661 59.616 101.96C60.0533 102.248 60.416 102.648 60.704 103.16L62.304 102.024C62.08 101.64 61.8133 101.304 61.504 101.016C61.1947 100.717 60.8533 100.467 60.48 100.264C60.1173 100.051 59.7227 99.8907 59.296 99.784C58.88 99.6773 58.4533 99.624 58.016 99.624H57.888C57.1307 99.624 56.4267 99.7627 55.776 100.04C55.136 100.317 54.5813 100.701 54.112 101.192C53.6533 101.683 53.2907 102.275 53.024 102.968C52.768 103.661 52.64 104.419 52.64 105.24V105.544C52.64 106.387 52.768 107.155 53.024 107.848C53.28 108.531 53.6373 109.123 54.096 109.624C54.5653 110.115 55.1253 110.499 55.776 110.776C56.4267 111.043 57.1467 111.176 57.936 111.176ZM63.8544 111H65.8384V106.392C65.8384 106.061 65.8864 105.763 65.9824 105.496C66.0784 105.229 66.2117 105.005 66.3824 104.824C66.5637 104.643 66.7824 104.504 67.0384 104.408C67.2944 104.301 67.577 104.248 67.8864 104.248C68.4197 104.248 68.8144 104.403 69.0704 104.712C69.337 105.011 69.4704 105.469 69.4704 106.088V111H71.4544V105.672C71.4544 104.669 71.209 103.896 70.7184 103.352C70.2277 102.797 69.5344 102.52 68.6384 102.52C68.0837 102.52 67.5664 102.627 67.0864 102.84C66.6064 103.043 66.1904 103.331 65.8384 103.704V99.48H63.8544V111ZM77.0935 111.144H77.3015C77.6428 111.144 77.9735 111.107 78.2935 111.032C78.6135 110.957 78.9175 110.856 79.2055 110.728C79.5042 110.6 79.7762 110.44 80.0215 110.248C80.2775 110.056 80.5015 109.843 80.6935 109.608L79.6055 108.408C79.3602 108.707 79.0508 108.963 78.6775 109.176C78.3148 109.379 77.8828 109.48 77.3815 109.48H77.2215C76.9015 109.48 76.6082 109.432 76.3415 109.336C76.0748 109.24 75.8455 109.107 75.6535 108.936C75.4722 108.765 75.3228 108.557 75.2055 108.312C75.0882 108.056 75.0135 107.773 74.9815 107.464V107.448H80.9495V106.376C80.9495 105.811 80.8588 105.293 80.6775 104.824C80.4962 104.355 80.2402 103.949 79.9095 103.608C79.5788 103.267 79.1842 103.005 78.7255 102.824C78.2668 102.632 77.7602 102.536 77.2055 102.536H77.0455C76.4375 102.536 75.8882 102.643 75.3975 102.856C74.9068 103.059 74.4802 103.347 74.1175 103.72C73.7655 104.083 73.4935 104.52 73.3015 105.032C73.1095 105.544 73.0135 106.109 73.0135 106.728V107.048C73.0135 107.656 73.1095 108.216 73.3015 108.728C73.4935 109.229 73.7655 109.661 74.1175 110.024C74.4802 110.376 74.9122 110.653 75.4135 110.856C75.9255 111.048 76.4855 111.144 77.0935 111.144ZM75.0135 106.12C75.0668 105.8 75.1468 105.517 75.2535 105.272C75.3708 105.016 75.5148 104.803 75.6855 104.632C75.8562 104.461 76.0535 104.328 76.2775 104.232C76.5015 104.136 76.7522 104.088 77.0295 104.088H77.1735C77.4508 104.088 77.7015 104.136 77.9255 104.232C78.1495 104.328 78.3415 104.461 78.5015 104.632C78.6722 104.803 78.8002 105.011 78.8855 105.256C78.9815 105.501 79.0348 105.773 79.0455 106.072V106.12H75.0135ZM82.6044 111H84.5884V106.6C84.5884 106.259 84.6257 105.96 84.7004 105.704C84.7857 105.437 84.9084 105.219 85.0684 105.048C85.239 104.867 85.4417 104.733 85.6764 104.648C85.911 104.563 86.1884 104.52 86.5084 104.52C86.615 104.52 86.7217 104.525 86.8284 104.536C86.9457 104.547 87.0417 104.563 87.1164 104.584V102.68H86.9084C86.3857 102.68 85.911 102.781 85.4844 102.984C85.0684 103.176 84.711 103.448 84.4124 103.8C84.391 103.619 84.3537 103.427 84.3004 103.224C84.2577 103.021 84.2097 102.84 84.1564 102.68H82.6044V111ZM88.6673 111H90.6513V106.456C90.6513 106.115 90.6993 105.811 90.7953 105.544C90.8913 105.277 91.0246 105.048 91.1953 104.856C91.3766 104.653 91.5899 104.504 91.8353 104.408C92.0806 104.301 92.3579 104.248 92.6673 104.248H92.7633C93.2859 104.248 93.6699 104.403 93.9153 104.712C94.1606 105.021 94.2833 105.48 94.2833 106.088V111H96.2673V105.672C96.2673 104.659 96.0219 103.88 95.5312 103.336C95.0513 102.792 94.3526 102.52 93.4353 102.52H93.3393C92.7526 102.52 92.2139 102.643 91.7233 102.888C91.2433 103.123 90.8273 103.448 90.4753 103.864C90.4539 103.683 90.4219 103.48 90.3793 103.256C90.3366 103.032 90.2886 102.84 90.2353 102.68H88.6673V111ZM98.37 111H100.354V102.68H98.37V111ZM99.346 101.384C99.698 101.384 99.9807 101.288 100.194 101.096C100.418 100.904 100.53 100.648 100.53 100.328C100.53 100.008 100.418 99.7467 100.194 99.544C99.9807 99.3413 99.698 99.24 99.346 99.24C99.0047 99.24 98.7273 99.3413 98.514 99.544C98.3007 99.7467 98.194 100.008 98.194 100.328C98.194 100.648 98.3007 100.904 98.514 101.096C98.7273 101.288 99.0047 101.384 99.346 101.384ZM102.651 111H104.635V106.392C104.635 106.061 104.683 105.763 104.779 105.496C104.875 105.229 105.009 105.005 105.179 104.824C105.361 104.643 105.579 104.504 105.835 104.408C106.091 104.301 106.374 104.248 106.683 104.248C107.217 104.248 107.611 104.403 107.867 104.712C108.134 105.011 108.267 105.469 108.267 106.088V111H110.251V105.672C110.251 104.669 110.006 103.896 109.515 103.352C109.025 102.797 108.331 102.52 107.435 102.52C106.881 102.52 106.363 102.627 105.883 102.84C105.403 103.043 104.987 103.331 104.635 103.704V99.48H102.651V111ZM112.354 111H114.338V102.68H112.354V111ZM113.33 101.384C113.682 101.384 113.965 101.288 114.178 101.096C114.402 100.904 114.514 100.648 114.514 100.328C114.514 100.008 114.402 99.7467 114.178 99.544C113.965 99.3413 113.682 99.24 113.33 99.24C112.989 99.24 112.712 99.3413 112.498 99.544C112.285 99.7467 112.178 100.008 112.178 100.328C112.178 100.648 112.285 100.904 112.498 101.096C112.712 101.288 112.989 101.384 113.33 101.384ZM118.525 111H121.021L123.901 102.68H121.805L119.869 109.176H119.709L117.757 102.68H115.661L118.525 111Z" fill="#15141A"/>
<circle cx="98" cy="82" r="6" fill="#FCD800"/>
</svg>
