<svg width="227" height="149" viewBox="0 0 227 149" fill="none" xmlns="http://www.w3.org/2000/svg">
<path d="M115.131 3.45626C140.913 7.59304 133.834 26.4498 171.938 21.8846C176.95 36.7179 164.051 22.1604 182.754 38.3775C177.033 43.189 188.174 45.2525 189.4 49.9851C187.657 52.6199 188.489 52.7036 190.429 54.5553C187.111 61.5977 189.198 56.5006 193.018 58.303C195.155 54.9197 199.625 43.0216 205.774 51.763C209.412 53.9742 213.582 47.0106 215.492 52.285C215.901 52.3145 218.751 51.2015 218.15 52.807C216.703 54.0825 214.842 56.407 215.945 58.4803C220.179 59.3126 218.854 50.7731 223.718 54.6538C223.842 55.7914 224.457 57.9386 223.398 58.7413C220.558 59.5244 223.01 61.6174 220.75 63.0357C220.607 65.8625 221.936 66.9706 219.238 68.4726C220.686 70.9744 217.461 78.2285 221.784 76.5787C225.053 77.805 227.849 85.8914 224.245 88.7379C220.006 91.806 229.414 105.886 215.211 98.809C209.102 90.4566 200.836 103.817 208.24 107.742C210.426 111.618 207.492 110.264 204.937 111.456C200.398 112.844 206.163 113.948 205.956 117.114C199.881 116.479 186.249 123.334 184.881 115.72C182.907 115.174 181.558 119.015 178.692 117.853C172.908 111.988 180.726 118.055 179.569 110.165C180.425 107.89 178.51 109.732 177.629 108.826C175.33 107.782 177.673 103.906 174.464 103.68C176.167 98.8435 176.388 100.277 171.889 101.601C170.707 88.5261 167.483 102.168 160.891 96.3565C153.058 92.5152 152.768 92.2049 145.816 97.0804C131.131 92.1951 122.624 92.3871 109.002 96.6815C106.792 87.5757 107.309 100.927 105.487 102.828C117.164 112.352 108.894 106.24 105.133 113.248C104.212 115.765 109.642 116.863 110.538 118.419C108.712 123.024 117.352 146.914 106.496 144.102C93.7309 136.316 38.8342 159.167 34.0638 139.916C27.1027 140.748 31.9961 141.787 29.1506 143.762C29.0078 143.727 21.9483 144.845 22.3519 145.717C19.8954 149.115 18.315 140.428 12.9834 141.738C7.2924 136.744 -0.239827 142.683 2.77306 132.534C-2.78011 124.743 7.50901 129.682 6.64255 125.117C4.0235 122.078 5.71706 116.179 6.67705 112.721C0.0408117 108.703 6.49983 95.8 14.0074 96.6864C15.76 95.9083 14.0714 88.073 16.4492 89.3781C16.8234 99.5624 17.3206 92.8697 21.392 88.7133C21.8941 87.098 22.5045 88.5951 23.2479 89.0925C25.355 89.5406 27.8657 86.0194 28.8011 84.3696C32.2177 84.409 33.03 78.5782 30.4799 77.2337C30.3322 70.5213 29.0029 64.5968 27.206 59.1895C28.6189 56.6976 54.9818 47.5179 46.1745 45.5677C44.5006 42.2632 37.1949 44.1789 35.457 40.6281C32.9611 39.5496 33.9555 33.7434 36.5795 36.4618C43.5456 31.9754 38.9032 36.4027 43.1025 36.2845C47.5677 30.9215 44.7862 38.1067 46.8489 36.4421C48.3455 33.4331 47.4988 38.4022 48.695 38.6878C55.6316 24.2288 58.3589 33.2608 72.5471 39.7516C78.3119 37.2646 72.2862 34.7283 76.9138 31.9754C77.8492 28.2769 73.2412 28.2917 74.8412 24.4947C77.0861 16.4969 79.4098 20.6731 79.9513 17.9645C75.5698 17.3194 83.6042 14.4877 82.0928 11.4786C88.4337 11.1339 107.082 -2.48791 108.126 4.95337C111.946 6.14515 108.835 -1.47341 115.126 3.47595L115.131 3.45626Z" fill="white" stroke="#FCD800" stroke-width="2" stroke-linecap="round" stroke-linejoin="round"/>
<path d="M94.312 61H97.832C98.696 61 99.48 60.8667 100.184 60.6C100.899 60.3333 101.501 59.96 101.992 59.48C102.493 58.9893 102.883 58.408 103.16 57.736C103.437 57.0533 103.576 56.3013 103.576 55.48V55.16C103.576 54.3493 103.437 53.6187 103.16 52.968C102.883 52.3067 102.493 51.7413 101.992 51.272C101.501 50.8027 100.899 50.44 100.184 50.184C99.48 49.928 98.696 49.8 97.832 49.8H94.312V61ZM96.408 59.144V51.656H97.864C98.4187 51.656 98.9093 51.736 99.336 51.896C99.7733 52.056 100.141 52.2907 100.44 52.6C100.749 52.8987 100.984 53.2613 101.144 53.688C101.304 54.1147 101.384 54.6 101.384 55.144V55.448C101.384 56.0133 101.304 56.5253 101.144 56.984C100.984 57.4427 100.749 57.832 100.44 58.152C100.141 58.472 99.7733 58.7173 99.336 58.888C98.9093 59.0587 98.4187 59.144 97.864 59.144H96.408ZM105.355 61H107.339V56.456C107.339 56.1147 107.387 55.8107 107.483 55.544C107.579 55.2773 107.712 55.048 107.883 54.856C108.064 54.6533 108.277 54.504 108.523 54.408C108.768 54.3013 109.045 54.248 109.355 54.248H109.451C109.973 54.248 110.357 54.4027 110.603 54.712C110.848 55.0213 110.971 55.48 110.971 56.088V61H112.955V55.672C112.955 54.6587 112.709 53.88 112.219 53.336C111.739 52.792 111.04 52.52 110.123 52.52H110.027C109.44 52.52 108.901 52.6427 108.411 52.888C107.931 53.1227 107.515 53.448 107.163 53.864C107.141 53.6827 107.109 53.48 107.067 53.256C107.024 53.032 106.976 52.84 106.923 52.68H105.355V61ZM115.058 61H117.042V52.68H115.058V61ZM116.034 51.384C116.386 51.384 116.668 51.288 116.882 51.096C117.106 50.904 117.218 50.648 117.218 50.328C117.218 50.008 117.106 49.7467 116.882 49.544C116.668 49.3413 116.386 49.24 116.034 49.24C115.692 49.24 115.415 49.3413 115.202 49.544C114.988 49.7467 114.882 50.008 114.882 50.328C114.882 50.648 114.988 50.904 115.202 51.096C115.415 51.288 115.692 51.384 116.034 51.384ZM119.276 64.2H121.26V60.184C121.58 60.4933 121.943 60.7333 122.348 60.904C122.764 61.064 123.223 61.144 123.724 61.144H123.868C124.412 61.144 124.908 61.048 125.356 60.856C125.815 60.6533 126.204 60.3707 126.524 60.008C126.855 59.6453 127.106 59.2187 127.276 58.728C127.458 58.2267 127.548 57.6773 127.548 57.08V56.6C127.548 56.0027 127.458 55.4587 127.276 54.968C127.106 54.4667 126.855 54.0347 126.524 53.672C126.204 53.3093 125.815 53.032 125.356 52.84C124.908 52.6373 124.412 52.536 123.868 52.536H123.724C123.18 52.536 122.679 52.6373 122.22 52.84C121.772 53.032 121.388 53.3093 121.068 53.672C121.047 53.5013 121.015 53.3253 120.972 53.144C120.94 52.9627 120.898 52.808 120.844 52.68H119.276V64.2ZM123.308 59.56C122.999 59.56 122.716 59.5013 122.46 59.384C122.215 59.2667 122.002 59.096 121.82 58.872C121.65 58.648 121.511 58.3813 121.404 58.072C121.308 57.752 121.26 57.3947 121.26 57V56.616C121.26 56.2427 121.308 55.9013 121.404 55.592C121.5 55.2827 121.639 55.0213 121.82 54.808C122.002 54.584 122.215 54.4133 122.46 54.296C122.716 54.1787 122.999 54.12 123.308 54.12H123.436C123.746 54.12 124.023 54.1787 124.268 54.296C124.524 54.4133 124.743 54.584 124.924 54.808C125.106 55.0213 125.244 55.2827 125.34 55.592C125.436 55.9013 125.484 56.2427 125.484 56.616V57C125.484 57.3947 125.436 57.752 125.34 58.072C125.244 58.3813 125.106 58.648 124.924 58.872C124.743 59.096 124.524 59.2667 124.268 59.384C124.023 59.5013 123.746 59.56 123.436 59.56H123.308ZM129.245 61H131.229V56.6C131.229 56.2587 131.266 55.96 131.341 55.704C131.426 55.4373 131.549 55.2187 131.709 55.048C131.88 54.8667 132.082 54.7333 132.317 54.648C132.552 54.5627 132.829 54.52 133.149 54.52C133.256 54.52 133.362 54.5253 133.469 54.536C133.586 54.5467 133.682 54.5627 133.757 54.584V52.68H133.549C133.026 52.68 132.552 52.7813 132.125 52.984C131.709 53.176 131.352 53.448 131.053 53.8C131.032 53.6187 130.994 53.4267 130.941 53.224C130.898 53.0213 130.85 52.84 130.797 52.68H129.245V61ZM138.719 61.144H138.879C139.476 61.144 140.026 61.048 140.527 60.856C141.028 60.6533 141.46 60.3707 141.823 60.008C142.186 59.6453 142.468 59.2133 142.671 58.712C142.874 58.2107 142.975 57.6667 142.975 57.08V56.6C142.975 56.0027 142.874 55.4587 142.671 54.968C142.468 54.4667 142.186 54.0347 141.823 53.672C141.46 53.3093 141.028 53.032 140.527 52.84C140.026 52.6373 139.476 52.536 138.879 52.536H138.719C138.111 52.536 137.556 52.6373 137.055 52.84C136.554 53.032 136.122 53.3093 135.759 53.672C135.396 54.0347 135.114 54.4667 134.911 54.968C134.719 55.4587 134.623 56.0027 134.623 56.6V57.08C134.623 57.6667 134.719 58.2107 134.911 58.712C135.114 59.2133 135.396 59.6453 135.759 60.008C136.122 60.3707 136.554 60.6533 137.055 60.856C137.556 61.048 138.111 61.144 138.719 61.144ZM138.719 59.56C138.41 59.56 138.127 59.5013 137.871 59.384C137.626 59.2667 137.412 59.096 137.231 58.872C137.06 58.6373 136.922 58.3653 136.815 58.056C136.719 57.736 136.671 57.384 136.671 57V56.616C136.671 56.2427 136.719 55.9013 136.815 55.592C136.922 55.2827 137.066 55.0213 137.247 54.808C137.428 54.584 137.642 54.4133 137.887 54.296C138.143 54.1787 138.42 54.12 138.719 54.12H138.863C139.162 54.12 139.439 54.1787 139.695 54.296C139.951 54.4133 140.164 54.584 140.335 54.808C140.516 55.0213 140.655 55.2827 140.751 55.592C140.858 55.9013 140.911 56.2427 140.911 56.616V57C140.911 57.384 140.863 57.736 140.767 58.056C140.671 58.3653 140.532 58.6373 140.351 58.872C140.17 59.096 139.951 59.2667 139.695 59.384C139.45 59.5013 139.172 59.56 138.863 59.56H138.719Z" fill="#15141A"/>
<circle cx="73" cy="68" r="6" fill="#025ABB"/>
</svg>
