<svg width="147" height="203" viewBox="0 0 147 203" fill="none" xmlns="http://www.w3.org/2000/svg">
<path d="M144.297 120.021C128.464 116.574 131.197 126.925 125.865 135.416C106.803 141.493 100.442 138.789 98.5078 161.891C97.2672 163.373 93.9392 167.845 97.7594 168.086C110.175 168.293 93.89 173.041 96.6813 181.363C98.5915 184.146 93.7767 188.903 91.3595 190.115C91.9207 188.425 94.0229 185.948 91.1429 185.485C37.1964 177.69 61.526 207.494 40.0222 197.871C31.6531 206.962 22.7621 197.556 33.3466 196.079C36.8321 194.902 32.2192 192.892 34.1687 191.375C36.4432 190.07 32.9429 188.371 31.9731 187.46C30.7275 189.46 30.2106 187.771 28.7682 186.825C28.7485 178.926 13.3887 176.365 24.2439 175.143C26.6661 172.918 21.3344 168.357 24.0224 166.781C38.3484 172.676 27.7984 158.065 38.6979 162.467C37.6838 158.281 44.2265 151.096 36.1675 154.1C32.8395 153.169 29.0143 146.053 24.9627 144.339C22.8556 144.044 22.5011 147.471 20.4433 144.679C15.3431 138.641 17.6717 142.291 13.817 141.399C15.2496 138.661 9.80963 137.587 13.5954 136.066C9.17949 134.15 10.041 124.887 6.29456 126.029C2.33152 126.162 5.5512 121.287 1.45032 116.396C2.78446 113.446 9.40591 116.84 6.35363 111.994C-6.44131 85.1538 28.7879 119.248 20.8323 93.5406C25.391 92.4424 24.4113 82.7998 20.916 81.8099C19.2323 78.2296 16.5148 84.4299 17.8144 77.2595C16.6329 71.7782 19.8575 68.8677 19.823 63.5736C23.7762 62.3375 22.2009 56.354 18.1246 58.1219C16.4163 59.1709 16.9136 64.3665 13.7234 62.0814C17.6816 50.5723 13.7628 61.6185 11.513 51.119C12.8127 48.4695 8.40652 39.4523 12.0693 40.0137C23.9977 45.2684 14.3683 33.8332 29.4968 42.6435C31.658 41.171 27.5916 41.0134 28.0396 39.5557C29.3343 36.5861 29.738 38.6249 31.722 38.0733C32.682 32.5823 34.8629 38.2555 37.8659 36.8618C39.8499 25.3823 48.7704 32.6118 44.7877 23.4715C46.1465 21.1667 48.4751 20.2064 49.2135 17.4239C76.6741 1.92579 52.5119 10.943 59.0005 2.09323C63.7463 -0.580902 74.636 7.8601 76.4772 1.51704C78.407 1.48257 78.7763 4.25027 80.8292 3.94493C82.5374 5.02345 80.2876 5.30908 79.3769 5.25983C76.5462 8.02753 82.2322 9.64779 84.1128 10.2043C93.0727 3.61991 85.6488 17.749 89.6217 21.7331C89.5921 23.0726 84.0242 24.1265 86.0919 25.8452C88.7799 28.5637 96.5828 26.1653 97.3606 29.2679C98.6603 31.1541 97.1982 35.2022 100.196 35.281C106.311 43.4807 93.506 55.7728 102.884 62.9679C101.176 75.9002 107.074 66.6811 109.205 72.1377C111.795 76.6488 115.374 78.2887 108.551 80.367C109.801 89.5762 120.691 78.0277 119.618 92.5409C122.232 95.7223 135.307 95.875 131.098 102.001C130.197 103.444 132.265 104.587 133.107 105.459C143.485 105.852 146.753 109.044 144.292 120.021H144.297Z" fill="white" stroke="#FCD800" stroke-width="2" stroke-linecap="round" stroke-linejoin="round"/>
<path d="M42.312 123H45.832C46.696 123 47.48 122.867 48.184 122.6C48.8987 122.333 49.5013 121.96 49.992 121.48C50.4933 120.989 50.8827 120.408 51.16 119.736C51.4373 119.053 51.576 118.301 51.576 117.48V117.16C51.576 116.349 51.4373 115.619 51.16 114.968C50.8827 114.307 50.4933 113.741 49.992 113.272C49.5013 112.803 48.8987 112.44 48.184 112.184C47.48 111.928 46.696 111.8 45.832 111.8H42.312V123ZM44.408 121.144V113.656H45.864C46.4187 113.656 46.9093 113.736 47.336 113.896C47.7733 114.056 48.1413 114.291 48.44 114.6C48.7493 114.899 48.984 115.261 49.144 115.688C49.304 116.115 49.384 116.6 49.384 117.144V117.448C49.384 118.013 49.304 118.525 49.144 118.984C48.984 119.443 48.7493 119.832 48.44 120.152C48.1413 120.472 47.7733 120.717 47.336 120.888C46.9093 121.059 46.4187 121.144 45.864 121.144H44.408ZM56.8908 123.144H57.0508C57.6481 123.144 58.1974 123.048 58.6988 122.856C59.2001 122.653 59.6321 122.371 59.9948 122.008C60.3574 121.645 60.6401 121.213 60.8428 120.712C61.0454 120.211 61.1468 119.667 61.1468 119.08V118.6C61.1468 118.003 61.0454 117.459 60.8428 116.968C60.6401 116.467 60.3574 116.035 59.9948 115.672C59.6321 115.309 59.2001 115.032 58.6988 114.84C58.1974 114.637 57.6481 114.536 57.0508 114.536H56.8908C56.2828 114.536 55.7281 114.637 55.2268 114.84C54.7254 115.032 54.2934 115.309 53.9308 115.672C53.5681 116.035 53.2854 116.467 53.0828 116.968C52.8908 117.459 52.7948 118.003 52.7948 118.6V119.08C52.7948 119.667 52.8908 120.211 53.0828 120.712C53.2854 121.213 53.5681 121.645 53.9308 122.008C54.2934 122.371 54.7254 122.653 55.2268 122.856C55.7281 123.048 56.2828 123.144 56.8908 123.144ZM56.8908 121.56C56.5814 121.56 56.2988 121.501 56.0428 121.384C55.7974 121.267 55.5841 121.096 55.4028 120.872C55.2321 120.637 55.0934 120.365 54.9868 120.056C54.8908 119.736 54.8428 119.384 54.8428 119V118.616C54.8428 118.243 54.8908 117.901 54.9868 117.592C55.0934 117.283 55.2374 117.021 55.4188 116.808C55.6001 116.584 55.8134 116.413 56.0588 116.296C56.3148 116.179 56.5921 116.12 56.8908 116.12H57.0348C57.3334 116.12 57.6108 116.179 57.8668 116.296C58.1228 116.413 58.3361 116.584 58.5068 116.808C58.6881 117.021 58.8268 117.283 58.9228 117.592C59.0294 117.901 59.0828 118.243 59.0828 118.616V119C59.0828 119.384 59.0348 119.736 58.9388 120.056C58.8428 120.365 58.7041 120.637 58.5228 120.872C58.3414 121.096 58.1228 121.267 57.8668 121.384C57.6214 121.501 57.3441 121.56 57.0348 121.56H56.8908ZM62.8391 123H64.8231V118.456C64.8231 118.115 64.8711 117.811 64.9671 117.544C65.0631 117.277 65.1965 117.048 65.3671 116.856C65.5485 116.653 65.7618 116.504 66.0071 116.408C66.2525 116.301 66.5298 116.248 66.8391 116.248H66.9351C67.4578 116.248 67.8418 116.403 68.0871 116.712C68.3325 117.021 68.4551 117.48 68.4551 118.088V123H70.4391V117.672C70.4391 116.659 70.1938 115.88 69.7031 115.336C69.2231 114.792 68.5245 114.52 67.6071 114.52H67.5111C66.9245 114.52 66.3858 114.643 65.8951 114.888C65.4151 115.123 64.9991 115.448 64.6471 115.864C64.6258 115.683 64.5938 115.48 64.5511 115.256C64.5085 115.032 64.4605 114.84 64.4071 114.68H62.8391V123ZM76.0779 123.144H76.2859C76.6272 123.144 76.9579 123.107 77.2779 123.032C77.5979 122.957 77.9019 122.856 78.1899 122.728C78.4885 122.6 78.7605 122.44 79.0059 122.248C79.2619 122.056 79.4859 121.843 79.6779 121.608L78.5899 120.408C78.3445 120.707 78.0352 120.963 77.6619 121.176C77.2992 121.379 76.8672 121.48 76.3659 121.48H76.2059C75.8859 121.48 75.5925 121.432 75.3259 121.336C75.0592 121.24 74.8299 121.107 74.6379 120.936C74.4565 120.765 74.3072 120.557 74.1899 120.312C74.0725 120.056 73.9979 119.773 73.9659 119.464V119.448H79.9339V118.376C79.9339 117.811 79.8432 117.293 79.6619 116.824C79.4805 116.355 79.2245 115.949 78.8939 115.608C78.5632 115.267 78.1685 115.005 77.7099 114.824C77.2512 114.632 76.7445 114.536 76.1899 114.536H76.0299C75.4219 114.536 74.8725 114.643 74.3819 114.856C73.8912 115.059 73.4645 115.347 73.1019 115.72C72.7499 116.083 72.4779 116.52 72.2859 117.032C72.0939 117.544 71.9979 118.109 71.9979 118.728V119.048C71.9979 119.656 72.0939 120.216 72.2859 120.728C72.4779 121.229 72.7499 121.661 73.1019 122.024C73.4645 122.376 73.8965 122.653 74.3979 122.856C74.9099 123.048 75.4699 123.144 76.0779 123.144ZM73.9979 118.12C74.0512 117.8 74.1312 117.517 74.2379 117.272C74.3552 117.016 74.4992 116.803 74.6699 116.632C74.8405 116.461 75.0379 116.328 75.2619 116.232C75.4859 116.136 75.7365 116.088 76.0139 116.088H76.1579C76.4352 116.088 76.6859 116.136 76.9099 116.232C77.1339 116.328 77.3259 116.461 77.4859 116.632C77.6565 116.803 77.7845 117.011 77.8699 117.256C77.9659 117.501 78.0192 117.773 78.0299 118.072V118.12H73.9979ZM84.2768 123.08C84.5648 123.08 84.8954 123.053 85.2688 123C85.6528 122.947 85.9674 122.867 86.2128 122.76V121.192C86.1381 121.224 86.0368 121.251 85.9088 121.272C85.7914 121.293 85.6688 121.315 85.5408 121.336C85.4234 121.347 85.3008 121.357 85.1727 121.368C85.0448 121.368 84.9381 121.368 84.8528 121.368C84.5221 121.368 84.2714 121.283 84.1008 121.112C83.9301 120.941 83.8448 120.627 83.8448 120.168V116.28H86.1328V114.68H83.8608V112.52L81.8768 112.76V114.696C81.6954 114.707 81.5034 114.739 81.3008 114.792C81.1088 114.835 80.9381 114.883 80.7888 114.936V116.28H81.8768V120.552C81.8768 120.989 81.9301 121.368 82.0368 121.688C82.1541 121.997 82.3141 122.259 82.5168 122.472C82.7194 122.675 82.9648 122.829 83.2528 122.936C83.5514 123.032 83.8928 123.08 84.2768 123.08ZM90.769 123.16C91.249 123.16 91.6863 123.101 92.081 122.984C92.4757 122.867 92.8063 122.696 93.073 122.472C93.3503 122.248 93.5637 121.976 93.713 121.656C93.8623 121.336 93.937 120.979 93.937 120.584C93.937 120.147 93.8517 119.784 93.681 119.496C93.5103 119.208 93.2863 118.973 93.009 118.792C92.7423 118.6 92.4383 118.451 92.097 118.344C91.7557 118.227 91.4197 118.131 91.089 118.056C90.833 117.992 90.5877 117.933 90.353 117.88C90.1183 117.816 89.9103 117.747 89.729 117.672C89.5583 117.597 89.4197 117.501 89.313 117.384C89.2063 117.267 89.153 117.123 89.153 116.952C89.153 116.813 89.1797 116.696 89.233 116.6C89.2863 116.504 89.3557 116.424 89.441 116.36C89.537 116.285 89.6543 116.232 89.793 116.2C89.9423 116.157 90.1077 116.136 90.289 116.136C90.6943 116.136 91.0997 116.211 91.505 116.36C91.921 116.509 92.2943 116.707 92.625 116.952L93.569 115.544C93.1317 115.235 92.6357 114.989 92.081 114.808C91.5263 114.616 90.9503 114.52 90.353 114.52C89.8837 114.52 89.4623 114.579 89.089 114.696C88.7263 114.803 88.4117 114.968 88.145 115.192C87.889 115.405 87.6917 115.667 87.553 115.976C87.4143 116.285 87.345 116.632 87.345 117.016C87.345 117.389 87.409 117.709 87.537 117.976C87.665 118.232 87.8357 118.445 88.049 118.616C88.273 118.787 88.5237 118.925 88.801 119.032C89.0783 119.139 89.361 119.235 89.649 119.32C90.0223 119.437 90.353 119.533 90.641 119.608C90.9397 119.683 91.1903 119.763 91.393 119.848C91.6063 119.933 91.7663 120.035 91.873 120.152C91.9797 120.259 92.033 120.413 92.033 120.616C92.033 120.776 92.0063 120.909 91.953 121.016C91.8997 121.123 91.8143 121.219 91.697 121.304C91.5903 121.379 91.4517 121.437 91.281 121.48C91.121 121.512 90.9343 121.528 90.721 121.528C90.4863 121.528 90.2463 121.507 90.001 121.464C89.7557 121.411 89.5157 121.341 89.281 121.256C89.0463 121.171 88.817 121.069 88.593 120.952C88.3797 120.835 88.1877 120.696 88.017 120.536L87.025 121.96C87.5157 122.355 88.0757 122.653 88.705 122.856C89.345 123.059 90.033 123.16 90.769 123.16ZM95.495 123H97.479V119.064H97.607L100.615 123H102.999L99.383 118.536L102.887 114.68H100.663L97.607 118.184H97.479V111.48H95.495V123Z" fill="#15141A"/>
<circle cx="73" cy="100" r="6" fill="#025ABB"/>
</svg>
