<svg width="123" height="160" viewBox="0 0 123 160" fill="none" xmlns="http://www.w3.org/2000/svg">
<path d="M80.5349 158.175C76.119 159.687 75.7842 152.31 72.8206 150.493C68.8181 149.045 64.5597 147.769 64.5843 142.776C61.985 139.249 58.8392 140.574 60.769 135.182C66.7062 128.809 60.9364 126.017 57.3819 120.585C60.4884 115.182 53.5026 106.628 47.2651 104.737C47.1913 101.679 44.8775 99.0144 43.4252 102.964C28.5478 110.39 41.5397 81.1474 30.1773 90.5586C27.381 90.1301 21.4882 97.1824 22.5811 90.6423C24.3041 84.9789 13.5375 85.6388 15.167 79.8128C14.6846 76.4295 10.436 80.0147 8.97877 77.6755C2.33761 68.3628 -1.09374 76.3015 3.32222 62.1527C-1.10851 53.4803 7.57078 47.738 9.74184 39.8634C17.3578 35.0125 54.0294 38.6322 51.3758 27.2216C49.1703 28.4724 47.2651 26.5961 47.7525 24.2716C49.6922 20.8194 46.6645 20.8834 44.6559 22.8484C40.7667 19.2977 51.494 19.864 51.7451 15.4071C46.6005 10.8517 53.4386 11.3295 51.4103 4.43976C67.7794 -5.87756 74.3418 16.9092 77.8371 28.3592C77.8913 29.3441 74.0021 40.08 78.5509 37.5438C82.9866 34.3723 87.6389 46.8762 80.4365 42.5276C74.8045 42.8625 83.2327 45.7336 82.5386 48.3487C84.4684 52.7563 88.0918 47.7331 91.9465 52.5642C91.3557 54.2633 92.1434 60.0055 94.5015 58.8778C95.9194 51.8305 99.9415 51.9191 97.2732 59.9119C97.3126 63.5267 98.3464 58.8778 100.207 59.976C108.025 63.0736 98.4941 61.6996 98.2283 64.9992C98.9815 71.0123 102.275 62.4482 104.618 63.965C104.215 56.3514 108.207 63.9256 109.719 59.0255C112.018 68.2988 128.997 64.8515 116.823 80.5712C129.396 114.823 77.2316 89.682 80.5349 158.18V158.175Z" fill="white" stroke="#FCD800" stroke-width="2" stroke-linecap="round" stroke-linejoin="round"/>
<path d="M34.312 67H36.408V55.8H34.312V67ZM40.8064 67H43.3024L46.1824 58.68H44.0864L42.1504 65.176H41.9904L40.0384 58.68H37.9424L40.8064 67ZM49.4225 67.16C49.9345 67.16 50.4198 67.064 50.8785 66.872C51.3372 66.6693 51.7425 66.392 52.0945 66.04C52.1158 66.2107 52.1425 66.3867 52.1745 66.568C52.2172 66.7387 52.2598 66.8827 52.3025 67H54.1905C54.1158 66.7333 54.0465 66.456 53.9825 66.168C53.9292 65.8693 53.9025 65.576 53.9025 65.288V61.528C53.9025 61.0587 53.8278 60.6373 53.6785 60.264C53.5398 59.8907 53.3265 59.576 53.0385 59.32C52.7612 59.0533 52.4198 58.8507 52.0145 58.712C51.6092 58.5733 51.1558 58.504 50.6545 58.504H50.5105C49.8918 58.504 49.2892 58.6 48.7025 58.792C48.1158 58.984 47.5665 59.2453 47.0545 59.576L47.8705 60.984C48.2652 60.7067 48.6758 60.4987 49.1025 60.36C49.5398 60.2213 49.9665 60.152 50.3825 60.152H50.4625C50.9745 60.152 51.3585 60.2747 51.6145 60.52C51.8812 60.7547 52.0145 61.08 52.0145 61.496V61.864H51.3585C49.7585 61.864 48.5745 62.088 47.8065 62.536C47.0385 62.9733 46.6545 63.6453 46.6545 64.552V64.696C46.6545 65.0693 46.7238 65.4107 46.8625 65.72C47.0012 66.0187 47.1878 66.2747 47.4225 66.488C47.6678 66.7013 47.9612 66.8667 48.3025 66.984C48.6438 67.1013 49.0172 67.16 49.4225 67.16ZM49.8385 65.56C49.6572 65.56 49.4865 65.5333 49.3265 65.48C49.1665 65.4267 49.0278 65.3573 48.9105 65.272C48.8038 65.1867 48.7185 65.08 48.6545 64.952C48.6012 64.824 48.5745 64.68 48.5745 64.52V64.44C48.5745 63.992 48.8092 63.6667 49.2785 63.464C49.7585 63.2507 50.5105 63.144 51.5345 63.144H52.0145V64.536C51.7478 64.856 51.4225 65.1067 51.0385 65.288C50.6652 65.4693 50.2652 65.56 49.8385 65.56ZM56.1204 67H58.1044V62.456C58.1044 62.1147 58.1524 61.8107 58.2484 61.544C58.3444 61.2773 58.4777 61.048 58.6484 60.856C58.8297 60.6533 59.043 60.504 59.2884 60.408C59.5337 60.3013 59.811 60.248 60.1204 60.248H60.2164C60.739 60.248 61.123 60.4027 61.3684 60.712C61.6137 61.0213 61.7364 61.48 61.7364 62.088V67H63.7204V61.672C63.7204 60.6587 63.475 59.88 62.9844 59.336C62.5044 58.792 61.8057 58.52 60.8884 58.52H60.7924C60.2057 58.52 59.667 58.6427 59.1764 58.888C58.6964 59.1227 58.2804 59.448 57.9284 59.864C57.907 59.6827 57.875 59.48 57.8324 59.256C57.7897 59.032 57.7417 58.84 57.6884 58.68H56.1204V67ZM69.3751 67.144H69.5351C70.1325 67.144 70.6818 67.048 71.1831 66.856C71.6845 66.6533 72.1165 66.3707 72.4791 66.008C72.8418 65.6453 73.1245 65.2133 73.3271 64.712C73.5298 64.2107 73.6311 63.6667 73.6311 63.08V62.6C73.6311 62.0027 73.5298 61.4587 73.3271 60.968C73.1245 60.4667 72.8418 60.0347 72.4791 59.672C72.1165 59.3093 71.6845 59.032 71.1831 58.84C70.6818 58.6373 70.1325 58.536 69.5351 58.536H69.3751C68.7671 58.536 68.2125 58.6373 67.7111 58.84C67.2098 59.032 66.7778 59.3093 66.4151 59.672C66.0525 60.0347 65.7698 60.4667 65.5671 60.968C65.3751 61.4587 65.2791 62.0027 65.2791 62.6V63.08C65.2791 63.6667 65.3751 64.2107 65.5671 64.712C65.7698 65.2133 66.0525 65.6453 66.4151 66.008C66.7778 66.3707 67.2098 66.6533 67.7111 66.856C68.2125 67.048 68.7671 67.144 69.3751 67.144ZM69.3751 65.56C69.0658 65.56 68.7831 65.5013 68.5271 65.384C68.2818 65.2667 68.0685 65.096 67.8871 64.872C67.7165 64.6373 67.5778 64.3653 67.4711 64.056C67.3751 63.736 67.3271 63.384 67.3271 63V62.616C67.3271 62.2427 67.3751 61.9013 67.4711 61.592C67.5778 61.2827 67.7218 61.0213 67.9031 60.808C68.0845 60.584 68.2978 60.4133 68.5431 60.296C68.7991 60.1787 69.0765 60.12 69.3751 60.12H69.5191C69.8178 60.12 70.0951 60.1787 70.3511 60.296C70.6071 60.4133 70.8205 60.584 70.9911 60.808C71.1725 61.0213 71.3111 61.2827 71.4071 61.592C71.5138 61.9013 71.5671 62.2427 71.5671 62.616V63C71.5671 63.384 71.5191 63.736 71.4231 64.056C71.3271 64.3653 71.1885 64.6373 71.0071 64.872C70.8258 65.096 70.6071 65.2667 70.3511 65.384C70.1058 65.5013 69.8285 65.56 69.5191 65.56H69.3751ZM75.29 63.4H80.41V61.752H75.29V63.4ZM34.312 89H36.408V84.488H40.344V82.728H36.408V79.656H40.664V77.8H34.312V89ZM42.5419 89H44.5259V84.6C44.5259 84.2587 44.5632 83.96 44.6379 83.704C44.7232 83.4373 44.8459 83.2187 45.0059 83.048C45.1765 82.8667 45.3792 82.7333 45.6139 82.648C45.8485 82.5627 46.1259 82.52 46.4459 82.52C46.5525 82.52 46.6592 82.5253 46.7659 82.536C46.8832 82.5467 46.9792 82.5627 47.0539 82.584V80.68H46.8459C46.3232 80.68 45.8485 80.7813 45.4219 80.984C45.0059 81.176 44.6485 81.448 44.3499 81.8C44.3285 81.6187 44.2912 81.4267 44.2379 81.224C44.1952 81.0213 44.1472 80.84 44.0939 80.68H42.5419V89ZM50.7038 89.16C51.2158 89.16 51.7011 89.064 52.1598 88.872C52.6184 88.6693 53.0238 88.392 53.3758 88.04C53.3971 88.2107 53.4238 88.3867 53.4558 88.568C53.4984 88.7387 53.5411 88.8827 53.5838 89H55.4718C55.3971 88.7333 55.3278 88.456 55.2638 88.168C55.2104 87.8693 55.1838 87.576 55.1838 87.288V83.528C55.1838 83.0587 55.1091 82.6373 54.9598 82.264C54.8211 81.8907 54.6078 81.576 54.3198 81.32C54.0424 81.0533 53.7011 80.8507 53.2958 80.712C52.8904 80.5733 52.4371 80.504 51.9358 80.504H51.7918C51.1731 80.504 50.5704 80.6 49.9838 80.792C49.3971 80.984 48.8478 81.2453 48.3358 81.576L49.1518 82.984C49.5464 82.7067 49.9571 82.4987 50.3838 82.36C50.8211 82.2213 51.2478 82.152 51.6638 82.152H51.7438C52.2558 82.152 52.6398 82.2747 52.8958 82.52C53.1624 82.7547 53.2958 83.08 53.2958 83.496V83.864H52.6398C51.0398 83.864 49.8558 84.088 49.0878 84.536C48.3198 84.9733 47.9358 85.6453 47.9358 86.552V86.696C47.9358 87.0693 48.0051 87.4107 48.1438 87.72C48.2824 88.0187 48.4691 88.2747 48.7038 88.488C48.9491 88.7013 49.2424 88.8667 49.5838 88.984C49.9251 89.1013 50.2984 89.16 50.7038 89.16ZM51.1198 87.56C50.9384 87.56 50.7678 87.5333 50.6078 87.48C50.4478 87.4267 50.3091 87.3573 50.1918 87.272C50.0851 87.1867 49.9998 87.08 49.9358 86.952C49.8824 86.824 49.8558 86.68 49.8558 86.52V86.44C49.8558 85.992 50.0904 85.6667 50.5598 85.464C51.0398 85.2507 51.7918 85.144 52.8158 85.144H53.2958V86.536C53.0291 86.856 52.7038 87.1067 52.3198 87.288C51.9464 87.4693 51.5464 87.56 51.1198 87.56ZM57.4016 89H59.3856V84.456C59.3856 84.1147 59.4336 83.8107 59.5296 83.544C59.6256 83.2773 59.759 83.048 59.9296 82.856C60.111 82.6533 60.3243 82.504 60.5696 82.408C60.815 82.3013 61.0923 82.248 61.4016 82.248H61.4976C62.0203 82.248 62.4043 82.4027 62.6496 82.712C62.895 83.0213 63.0176 83.48 63.0176 84.088V89H65.0016V83.672C65.0016 82.6587 64.7563 81.88 64.2656 81.336C63.7856 80.792 63.087 80.52 62.1696 80.52H62.0736C61.487 80.52 60.9483 80.6427 60.4576 80.888C59.9776 81.1227 59.5616 81.448 59.2096 81.864C59.1883 81.6827 59.1563 81.48 59.1136 81.256C59.071 81.032 59.023 80.84 58.9696 80.68H57.4016V89ZM67.1044 89H69.0884V85.064H69.2164L72.2244 89H74.6084L70.9924 84.536L74.4964 80.68H72.2724L69.2164 84.184H69.0884V77.48H67.1044V89ZM75.8075 89H77.7915V80.68H75.8075V89ZM76.7835 79.384C77.1355 79.384 77.4182 79.288 77.6315 79.096C77.8555 78.904 77.9675 78.648 77.9675 78.328C77.9675 78.008 77.8555 77.7467 77.6315 77.544C77.4182 77.3413 77.1355 77.24 76.7835 77.24C76.4422 77.24 76.1648 77.3413 75.9515 77.544C75.7382 77.7467 75.6315 78.008 75.6315 78.328C75.6315 78.648 75.7382 78.904 75.9515 79.096C76.1648 79.288 76.4422 79.384 76.7835 79.384ZM81.9783 89H84.4743L87.3542 80.68H85.2583L83.3223 87.176H83.1623L81.2103 80.68H79.1143L81.9783 89ZM91.5346 89.16C92.0146 89.16 92.452 89.1013 92.8466 88.984C93.2413 88.8667 93.572 88.696 93.8386 88.472C94.116 88.248 94.3293 87.976 94.4786 87.656C94.628 87.336 94.7026 86.9787 94.7026 86.584C94.7026 86.1467 94.6173 85.784 94.4466 85.496C94.276 85.208 94.052 84.9733 93.7746 84.792C93.508 84.6 93.204 84.4507 92.8626 84.344C92.5213 84.2267 92.1853 84.1307 91.8546 84.056C91.5986 83.992 91.3533 83.9333 91.1186 83.88C90.884 83.816 90.676 83.7467 90.4946 83.672C90.324 83.5973 90.1853 83.5013 90.0786 83.384C89.972 83.2667 89.9186 83.1227 89.9186 82.952C89.9186 82.8133 89.9453 82.696 89.9986 82.6C90.052 82.504 90.1213 82.424 90.2066 82.36C90.3026 82.2853 90.42 82.232 90.5586 82.2C90.708 82.1573 90.8733 82.136 91.0546 82.136C91.46 82.136 91.8653 82.2107 92.2706 82.36C92.6866 82.5093 93.06 82.7067 93.3906 82.952L94.3346 81.544C93.8973 81.2347 93.4013 80.9893 92.8466 80.808C92.292 80.616 91.716 80.52 91.1186 80.52C90.6493 80.52 90.228 80.5787 89.8546 80.696C89.492 80.8027 89.1773 80.968 88.9106 81.192C88.6546 81.4053 88.4573 81.6667 88.3186 81.976C88.18 82.2853 88.1106 82.632 88.1106 83.016C88.1106 83.3893 88.1746 83.7093 88.3026 83.976C88.4306 84.232 88.6013 84.4453 88.8146 84.616C89.0386 84.7867 89.2893 84.9253 89.5666 85.032C89.844 85.1387 90.1266 85.2347 90.4146 85.32C90.788 85.4373 91.1186 85.5333 91.4066 85.608C91.7053 85.6827 91.956 85.7627 92.1586 85.848C92.372 85.9333 92.532 86.0347 92.6386 86.152C92.7453 86.2587 92.7986 86.4133 92.7986 86.616C92.7986 86.776 92.772 86.9093 92.7186 87.016C92.6653 87.1227 92.58 87.2187 92.4626 87.304C92.356 87.3787 92.2173 87.4373 92.0466 87.48C91.8866 87.512 91.7 87.528 91.4866 87.528C91.252 87.528 91.012 87.5067 90.7666 87.464C90.5213 87.4107 90.2813 87.3413 90.0466 87.256C89.812 87.1707 89.5826 87.0693 89.3586 86.952C89.1453 86.8347 88.9533 86.696 88.7826 86.536L87.7906 87.96C88.2813 88.3547 88.8413 88.6533 89.4706 88.856C90.1106 89.0587 90.7986 89.16 91.5346 89.16ZM96.2606 89H98.2446V85.064H98.3726L101.381 89H103.765L100.149 84.536L103.653 80.68H101.429L98.3726 84.184H98.2446V77.48H96.2606V89Z" fill="#15141A"/>
<circle cx="61" cy="44" r="6" fill="#025ABB"/>
</svg>
