<svg width="187" height="170" viewBox="0 0 187 170" fill="none" xmlns="http://www.w3.org/2000/svg">
<path d="M49.5344 9.18478C55.767 0.280857 65.4259 0.266078 74.6911 3.14705C76.9901 5.43705 81.0566 15.715 85.1082 15.3752C89.3125 11.5487 92.1087 13.4496 96.82 15.4441C99.124 16.3109 96.0275 19.8961 98.4397 20.9648C102.944 23.8408 108.867 12.637 115.503 11.0118C121.903 7.88957 131.281 11.4403 137.071 6.23487C142.412 -0.704085 150.855 0.0444648 151.52 9.5492C161.587 13.8485 157.275 14.1982 158.2 22.324C162.946 32.5625 174.806 35.7143 179.99 45.0368C181.225 46.2976 180.28 49.9764 182.491 47.903C183.579 55.103 188.979 51.6557 181.043 56.019C181.112 56.8611 183.962 57.9987 183.761 58.9049C180.241 61.1555 183.224 62.4606 179.399 61.7416C174.24 68.2274 183.126 60.6335 181.171 69.1779C177.636 75.6884 179.95 82.0265 175.46 88.5666C171.547 89.5072 175.716 96.7712 174.628 100.396C181.437 102.139 172.256 106.104 171.709 109.625C165.984 111.348 155.699 103.139 152.864 111.472C170.321 113.697 141.167 121.789 140.797 130.053C142.26 132.446 142.826 135.396 138.917 135.061C134.427 136.474 135.909 142.803 132.118 143.211C130.902 143.315 128.918 138.73 128.003 143.443C126.87 144.6 120.815 144.428 125.905 147.299C126.747 152.12 117.684 141.074 114.814 146.821C112.554 149.087 109.167 145.201 106.853 146.294C105.081 150.17 111.796 160.739 105.155 160.556C99.833 167.17 93.2164 149.067 88.6085 166.757C88.8251 167.54 87.5353 168.003 87.0134 168.288C84.8965 166.21 83.9808 170.007 82.6516 167.702C82.6861 166.757 85.1722 165.491 84.4239 164.54C79.6486 161.118 85.3248 161.251 82.5482 158.306C80.9581 155.873 71.5502 152.007 76.2713 149.466C78.1716 148.614 70.408 141.951 69.2167 141.803C57.9823 137.331 75.6953 141.591 63.6487 129.925C45.0052 139.597 30.4183 122.764 15.9397 114.057C9.34287 115.377 7.92503 110.043 7.62473 104.863C10.8395 93.4913 26.5685 112.471 30.1968 90.7581C23.2455 82.4894 33.4361 86.5228 36.5426 84.4889C37.7339 82.6815 32.3038 81.2533 32.3284 79.5494C42.0908 79.8596 31.7476 72.9995 34.342 68.0945C15.1373 72.3051 26.6817 50.4639 15.92 53.34C7.58041 49.5972 -4.80102 43.85 5.24687 34.1384C5.52256 26.1505 4.06044 29.2629 8.34347 22.9937C15.6837 27.9776 9.13607 19.1475 15.1077 21.4129C18.5341 14.3804 19.1741 20.9647 24.2941 18.6156C24.5993 15.7839 24.0922 14.8975 27.6663 15.2324C27.7648 9.10106 31.8115 17.7932 33.0275 10.1156C33.6035 9.33745 40.6434 15.3653 38.4724 12.0214C38.4724 9.38177 49.6624 13.9765 49.5344 9.17985V9.18478Z" fill="white" stroke="#025ABB" stroke-width="2" stroke-linecap="round" stroke-linejoin="round"/>
<path d="M63.312 88H65.424V82.608H65.52L69.664 88H72.24L67.44 81.952L71.856 76.8H69.424L65.52 81.568H65.424V76.8H63.312V88ZM73.4013 88H75.3853V83.392C75.3853 83.0613 75.4333 82.7627 75.5293 82.496C75.6253 82.2293 75.7586 82.0053 75.9293 81.824C76.1106 81.6427 76.3293 81.504 76.5853 81.408C76.8413 81.3013 77.1239 81.248 77.4333 81.248C77.9666 81.248 78.3613 81.4027 78.6173 81.712C78.8839 82.0107 79.0173 82.4693 79.0173 83.088V88H81.0013V82.672C81.0013 81.6693 80.7559 80.896 80.2653 80.352C79.7746 79.7973 79.0813 79.52 78.1853 79.52C77.6306 79.52 77.1133 79.6267 76.6333 79.84C76.1533 80.0427 75.7373 80.3307 75.3853 80.704V76.48H73.4013V88ZM85.3444 88.16C85.8564 88.16 86.3417 88.064 86.8004 87.872C87.259 87.6693 87.6644 87.392 88.0164 87.04C88.0377 87.2107 88.0644 87.3867 88.0964 87.568C88.139 87.7387 88.1817 87.8827 88.2244 88H90.1124C90.0377 87.7333 89.9684 87.456 89.9044 87.168C89.851 86.8693 89.8244 86.576 89.8244 86.288V82.528C89.8244 82.0587 89.7497 81.6373 89.6004 81.264C89.4617 80.8907 89.2484 80.576 88.9604 80.32C88.683 80.0533 88.3417 79.8507 87.9364 79.712C87.531 79.5733 87.0777 79.504 86.5764 79.504H86.4324C85.8137 79.504 85.211 79.6 84.6244 79.792C84.0377 79.984 83.4884 80.2453 82.9764 80.576L83.7924 81.984C84.187 81.7067 84.5977 81.4987 85.0244 81.36C85.4617 81.2213 85.8884 81.152 86.3044 81.152H86.3844C86.8964 81.152 87.2804 81.2747 87.5364 81.52C87.803 81.7547 87.9364 82.08 87.9364 82.496V82.864H87.2804C85.6804 82.864 84.4964 83.088 83.7284 83.536C82.9604 83.9733 82.5764 84.6453 82.5764 85.552V85.696C82.5764 86.0693 82.6457 86.4107 82.7844 86.72C82.923 87.0187 83.1097 87.2747 83.3444 87.488C83.5897 87.7013 83.883 87.8667 84.2244 87.984C84.5657 88.1013 84.939 88.16 85.3444 88.16ZM85.7604 86.56C85.579 86.56 85.4084 86.5333 85.2484 86.48C85.0884 86.4267 84.9497 86.3573 84.8324 86.272C84.7257 86.1867 84.6404 86.08 84.5764 85.952C84.523 85.824 84.4964 85.68 84.4964 85.52V85.44C84.4964 84.992 84.731 84.6667 85.2004 84.464C85.6804 84.2507 86.4324 84.144 87.4564 84.144H87.9364V85.536C87.6697 85.856 87.3444 86.1067 86.9604 86.288C86.587 86.4693 86.187 86.56 85.7604 86.56ZM92.0263 88H94.0103V83.6C94.0103 83.2587 94.0476 82.96 94.1223 82.704C94.2076 82.4373 94.3303 82.2187 94.4903 82.048C94.6609 81.8667 94.8636 81.7333 95.0983 81.648C95.3329 81.5627 95.6103 81.52 95.9303 81.52C96.0369 81.52 96.1436 81.5253 96.2503 81.536C96.3676 81.5467 96.4636 81.5627 96.5383 81.584V79.68H96.3303C95.8076 79.68 95.3329 79.7813 94.9062 79.984C94.4903 80.176 94.1329 80.448 93.8343 80.8C93.8129 80.6187 93.7756 80.4267 93.7223 80.224C93.6796 80.0213 93.6316 79.84 93.5783 79.68H92.0263V88ZM98.0731 88H100.057V84.064H100.185L103.193 88H105.577L101.961 83.536L105.465 79.68H103.241L100.185 83.184H100.057V76.48H98.0731V88ZM106.776 88H108.76V79.68H106.776V88ZM107.752 78.384C108.104 78.384 108.387 78.288 108.6 78.096C108.824 77.904 108.936 77.648 108.936 77.328C108.936 77.008 108.824 76.7467 108.6 76.544C108.387 76.3413 108.104 76.24 107.752 76.24C107.411 76.24 107.134 76.3413 106.92 76.544C106.707 76.7467 106.6 77.008 106.6 77.328C106.6 77.648 106.707 77.904 106.92 78.096C107.134 78.288 107.411 78.384 107.752 78.384ZM112.947 88H115.443L118.323 79.68H116.227L114.291 86.176H114.131L112.179 79.68H110.083L112.947 88Z" fill="#15141A"/>
<circle cx="114" cy="57" r="6" fill="#FCD800"/>
</svg>
