<svg width="218" height="158" viewBox="0 0 218 158" fill="none" xmlns="http://www.w3.org/2000/svg">
<path d="M201.155 155.429C198.418 158.182 196.045 152.869 193.667 151.805C184.604 150.327 192.067 131.948 178.224 134.977C161.362 140.488 171.538 123.808 147.873 124.62C141.03 121.198 123.829 109.196 124.632 121.035C121.284 125.738 122.923 117.312 118.32 122.005C114.835 124.61 121.555 125.965 117.262 126.162C111.906 128.073 120.806 129.791 111.133 128.846C108.317 125.054 107.204 123.98 103.861 125.536C107.106 120.873 102.709 122.286 99.1944 122.68C100.12 119.893 101.513 110.235 98.0769 118.524C96.2012 123.64 91.613 121.473 88.2899 119.252C90.1902 126.507 77.3559 122.764 73.6193 122.069C64.7382 125.871 53.2577 128.058 44.7655 122.36C45.115 112.121 39.3895 121.011 34.3483 112.688C32.0591 110.181 31.3306 113.146 28.106 110.526C19.4365 102.553 27.658 112.983 18.5602 109.753C15.0944 108.068 17.4673 104.375 20.6328 104.424C28.8936 106.714 28.2438 102.065 33.0536 101.031C33.093 94.5598 23.5768 96.3967 19.4267 93.3778C24.6155 82.9965 49.0141 100.228 54.2669 92.0679C51.4017 86.0646 63.4976 84.7251 66.0625 80.9232C67.8545 78.1506 64.7775 80.7459 63.8274 81.3221C41.3636 92.7524 51.0866 80.8739 39.6012 85.2717C37.0609 89.6153 37.7009 83.1689 35.6727 82.44C30.1146 83.1787 24.0986 72.0586 31.7342 72.8909C38.7052 69.7736 37.6419 75.8458 43.3033 66.2573C53.0903 69.8376 48.3938 62.8839 55.8029 63.2779C62.0158 68.4735 56.7727 57.4026 68.4157 62.9922C69.6612 67.5476 84.8093 63.1695 82.3577 61.6034C81.2254 60.5249 74.151 62.7657 76.4796 59.6188C79.463 59.2839 93.3705 55.3047 84.2334 53.7485C83.6426 51.36 84.9226 48.8681 86.8524 51.8426C89.3041 53.7534 87.7927 51.8623 89.7668 50.3504C92.8487 44.8988 77.6414 45.1204 83.3176 39.7032C87.1478 31.7793 83.7066 35.8126 88.9988 35.4186C92.2086 31.1538 93.7988 34.6898 94.3994 32.1732C91.8394 27.3174 96.9052 17.3744 89.6733 17.6994C86.8179 16.5224 91.1551 9.26828 91.5145 14.9957C96.1667 18.3396 93.4148 7.41659 93.213 5.41223C87.7484 -2.8564 104.418 5.43191 106.313 8.7167C107.884 5.57965 115.997 7.64805 115.145 2.88091C124.386 -1.21647 115.293 11.4647 129.875 9.06144C171.395 2.05847 149.862 34.8868 172.562 24.8994C168.55 26.431 173.695 28.79 172.528 30.9027C170.598 37.7185 175.92 43.1259 176.269 49.8974C179.435 55.2801 194.868 61.0026 186.534 66.3361C188.424 72.4477 174.29 75.5011 182.044 76.6682C190.157 79.2537 182.743 82.6173 187.474 88.0641C199.284 87.7686 187.321 93.102 196.734 91.9792C210.046 96.5888 199.56 106.158 207.033 108.94C181.266 116.347 191.915 134.49 201.15 155.449L201.155 155.429ZM216.993 112.215C208.618 129.461 189.522 131.702 214.049 114.973C215.319 114.338 215.752 110.934 216.993 112.215ZM86.3453 129.722C101.661 134.632 62.6508 128.757 65.9246 127.782C71.783 130.698 81.5011 127.733 86.3453 129.722ZM26.506 116.391C59.6822 123.394 0.349938 117.873 1.67915 103.981C2.009 98.795 4.13578 109.89 5.83915 110.536C6.48898 111.865 24.8962 115.928 26.506 116.396V116.391Z" fill="white" stroke="#FCD800" stroke-width="2" stroke-linecap="round" stroke-linejoin="round"/>
<path d="M87.312 89H89.424V83.608H89.52L93.664 89H96.24L91.44 82.952L95.856 77.8H93.424L89.52 82.568H89.424V77.8H87.312V89ZM97.4013 89H99.3853V84.392C99.3853 84.0613 99.4333 83.7627 99.5293 83.496C99.6253 83.2293 99.7586 83.0053 99.9293 82.824C100.111 82.6427 100.329 82.504 100.585 82.408C100.841 82.3013 101.124 82.248 101.433 82.248C101.967 82.248 102.361 82.4027 102.617 82.712C102.884 83.0107 103.017 83.4693 103.017 84.088V89H105.001V83.672C105.001 82.6693 104.756 81.896 104.265 81.352C103.775 80.7973 103.081 80.52 102.185 80.52C101.631 80.52 101.113 80.6267 100.633 80.84C100.153 81.0427 99.7373 81.3307 99.3853 81.704V77.48H97.4013V89ZM110.64 89.144H110.848C111.19 89.144 111.52 89.1067 111.84 89.032C112.16 88.9573 112.464 88.856 112.752 88.728C113.051 88.6 113.323 88.44 113.568 88.248C113.824 88.056 114.048 87.8427 114.24 87.608L113.152 86.408C112.907 86.7067 112.598 86.9627 112.224 87.176C111.862 87.3787 111.43 87.48 110.928 87.48H110.768C110.448 87.48 110.155 87.432 109.888 87.336C109.622 87.24 109.392 87.1067 109.2 86.936C109.019 86.7653 108.87 86.5573 108.752 86.312C108.635 86.056 108.56 85.7733 108.528 85.464V85.448H114.496V84.376C114.496 83.8107 114.406 83.2933 114.224 82.824C114.043 82.3547 113.787 81.9493 113.456 81.608C113.126 81.2667 112.731 81.0053 112.272 80.824C111.814 80.632 111.307 80.536 110.752 80.536H110.592C109.984 80.536 109.435 80.6427 108.944 80.856C108.454 81.0587 108.027 81.3467 107.664 81.72C107.312 82.0827 107.04 82.52 106.848 83.032C106.656 83.544 106.56 84.1093 106.56 84.728V85.048C106.56 85.656 106.656 86.216 106.848 86.728C107.04 87.2293 107.312 87.6613 107.664 88.024C108.027 88.376 108.459 88.6533 108.96 88.856C109.472 89.048 110.032 89.144 110.64 89.144ZM108.56 84.12C108.614 83.8 108.694 83.5173 108.8 83.272C108.918 83.016 109.062 82.8027 109.232 82.632C109.403 82.4613 109.6 82.328 109.824 82.232C110.048 82.136 110.299 82.088 110.576 82.088H110.72C110.998 82.088 111.248 82.136 111.472 82.232C111.696 82.328 111.888 82.4613 112.048 82.632C112.219 82.8027 112.347 83.0107 112.432 83.256C112.528 83.5013 112.582 83.7733 112.592 84.072V84.12H108.56ZM116.151 89H118.135V84.6C118.135 84.2587 118.173 83.96 118.247 83.704C118.333 83.4373 118.455 83.2187 118.615 83.048C118.786 82.8667 118.989 82.7333 119.223 82.648C119.458 82.5627 119.735 82.52 120.055 82.52C120.162 82.52 120.269 82.5253 120.375 82.536C120.493 82.5467 120.589 82.5627 120.663 82.584V80.68H120.455C119.933 80.68 119.458 80.7813 119.031 80.984C118.615 81.176 118.258 81.448 117.959 81.8C117.938 81.6187 117.901 81.4267 117.847 81.224C117.805 81.0213 117.757 80.84 117.703 80.68H116.151V89ZM125.191 89.16C125.671 89.16 126.108 89.1013 126.503 88.984C126.898 88.8667 127.228 88.696 127.495 88.472C127.772 88.248 127.986 87.976 128.135 87.656C128.284 87.336 128.359 86.9787 128.359 86.584C128.359 86.1467 128.274 85.784 128.103 85.496C127.932 85.208 127.708 84.9733 127.431 84.792C127.164 84.6 126.86 84.4507 126.519 84.344C126.178 84.2267 125.842 84.1307 125.511 84.056C125.255 83.992 125.01 83.9333 124.775 83.88C124.54 83.816 124.332 83.7467 124.151 83.672C123.98 83.5973 123.842 83.5013 123.735 83.384C123.628 83.2667 123.575 83.1227 123.575 82.952C123.575 82.8133 123.602 82.696 123.655 82.6C123.708 82.504 123.778 82.424 123.863 82.36C123.959 82.2853 124.076 82.232 124.215 82.2C124.364 82.1573 124.53 82.136 124.711 82.136C125.116 82.136 125.522 82.2107 125.927 82.36C126.343 82.5093 126.716 82.7067 127.047 82.952L127.991 81.544C127.554 81.2347 127.058 80.9893 126.503 80.808C125.948 80.616 125.372 80.52 124.775 80.52C124.306 80.52 123.884 80.5787 123.511 80.696C123.148 80.8027 122.834 80.968 122.567 81.192C122.311 81.4053 122.114 81.6667 121.975 81.976C121.836 82.2853 121.767 82.632 121.767 83.016C121.767 83.3893 121.831 83.7093 121.959 83.976C122.087 84.232 122.258 84.4453 122.471 84.616C122.695 84.7867 122.946 84.9253 123.223 85.032C123.5 85.1387 123.783 85.2347 124.071 85.32C124.444 85.4373 124.775 85.5333 125.063 85.608C125.362 85.6827 125.612 85.7627 125.815 85.848C126.028 85.9333 126.188 86.0347 126.295 86.152C126.402 86.2587 126.455 86.4133 126.455 86.616C126.455 86.776 126.428 86.9093 126.375 87.016C126.322 87.1227 126.236 87.2187 126.119 87.304C126.012 87.3787 125.874 87.4373 125.703 87.48C125.543 87.512 125.356 87.528 125.143 87.528C124.908 87.528 124.668 87.5067 124.423 87.464C124.178 87.4107 123.938 87.3413 123.703 87.256C123.468 87.1707 123.239 87.0693 123.015 86.952C122.802 86.8347 122.61 86.696 122.439 86.536L121.447 87.96C121.938 88.3547 122.498 88.6533 123.127 88.856C123.767 89.0587 124.455 89.16 125.191 89.16ZM133.469 89.144H133.629C134.226 89.144 134.776 89.048 135.277 88.856C135.778 88.6533 136.21 88.3707 136.573 88.008C136.936 87.6453 137.218 87.2133 137.421 86.712C137.624 86.2107 137.725 85.6667 137.725 85.08V84.6C137.725 84.0027 137.624 83.4587 137.421 82.968C137.218 82.4667 136.936 82.0347 136.573 81.672C136.21 81.3093 135.778 81.032 135.277 80.84C134.776 80.6373 134.226 80.536 133.629 80.536H133.469C132.861 80.536 132.306 80.6373 131.805 80.84C131.304 81.032 130.872 81.3093 130.509 81.672C130.146 82.0347 129.864 82.4667 129.661 82.968C129.469 83.4587 129.373 84.0027 129.373 84.6V85.08C129.373 85.6667 129.469 86.2107 129.661 86.712C129.864 87.2133 130.146 87.6453 130.509 88.008C130.872 88.3707 131.304 88.6533 131.805 88.856C132.306 89.048 132.861 89.144 133.469 89.144ZM133.469 87.56C133.16 87.56 132.877 87.5013 132.621 87.384C132.376 87.2667 132.162 87.096 131.981 86.872C131.81 86.6373 131.672 86.3653 131.565 86.056C131.469 85.736 131.421 85.384 131.421 85V84.616C131.421 84.2427 131.469 83.9013 131.565 83.592C131.672 83.2827 131.816 83.0213 131.997 82.808C132.178 82.584 132.392 82.4133 132.637 82.296C132.893 82.1787 133.17 82.12 133.469 82.12H133.613C133.912 82.12 134.189 82.1787 134.445 82.296C134.701 82.4133 134.914 82.584 135.085 82.808C135.266 83.0213 135.405 83.2827 135.501 83.592C135.608 83.9013 135.661 84.2427 135.661 84.616V85C135.661 85.384 135.613 85.736 135.517 86.056C135.421 86.3653 135.282 86.6373 135.101 86.872C134.92 87.096 134.701 87.2667 134.445 87.384C134.2 87.5013 133.922 87.56 133.613 87.56H133.469ZM139.417 89H141.401V84.456C141.401 84.1147 141.449 83.8107 141.545 83.544C141.641 83.2773 141.775 83.048 141.945 82.856C142.127 82.6533 142.34 82.504 142.585 82.408C142.831 82.3013 143.108 82.248 143.417 82.248H143.513C144.036 82.248 144.42 82.4027 144.665 82.712C144.911 83.0213 145.033 83.48 145.033 84.088V89H147.017V83.672C147.017 82.6587 146.772 81.88 146.281 81.336C145.801 80.792 145.103 80.52 144.185 80.52H144.089C143.503 80.52 142.964 80.6427 142.473 80.888C141.993 81.1227 141.577 81.448 141.225 81.864C141.204 81.6827 141.172 81.48 141.129 81.256C141.087 81.032 141.039 80.84 140.985 80.68H139.417V89Z" fill="#15141A"/>
<circle cx="138" cy="60" r="6" fill="#025ABB"/>
</svg>
