<svg width="102" height="191" viewBox="0 0 102 191" fill="none" xmlns="http://www.w3.org/2000/svg">
<path d="M60.6559 5.52967C71.0534 12.7592 60.8529 12.5474 63.5901 20.3285C65.6971 20.7323 66.5094 20.8505 66.9574 23.1504C68.4589 25.2828 73.9235 26.12 72.5106 29.1832C77.0004 29.9071 75.9518 34.5265 80.7419 34.4773C83.6218 30.109 84.7443 30.0154 84.3603 35.8611C85.0397 37.3582 87.8163 39.077 86.364 40.8794C83.6957 42.0121 88.2396 43.1005 85.8077 44.8044C83.1345 49.0299 89.5245 46.9122 87.1713 51.8468C82.2581 55.4813 78.94 50.3004 82.8243 58.1505C76.2865 61.0955 84.7591 61.6175 83.868 65.6804C84.9068 67.2908 86.5559 69.0144 86.8612 70.9745C86.3541 72.7425 104.269 74.3036 97.4014 76.6478C94.4673 76.7069 96.9288 77.1698 97.4112 78.1203C95.9983 82.7889 87.8802 77.3914 96.2149 86.1377C91.159 95.3273 97.7164 94.5344 91.2377 96.1054C90.1104 99.2671 92.4094 99.0455 93.202 100.922C92.0845 101.542 91.0654 103.172 92.5916 103.96C96.786 103.729 100.375 105.595 95.5109 108.619C99.3755 115.125 98.8241 119.729 100.129 126.693C101.359 129.589 96.5005 128.067 95.4322 129.776C93.2857 133.755 91.1984 129.776 87.9836 129.2C83.4052 125.782 84.6852 129.411 82.1006 131.086C78.1277 129.928 76.9216 131.209 76.5327 135.109C63.3488 141.447 83.6169 176.482 64.2202 174.547C61.9162 174.709 63.3882 176.211 64.614 176.738C64.6829 181.717 60.0455 176.679 57.7415 178.176C54.0197 183.436 46.5022 173.626 43.1201 181.239C38.2414 182.367 40.634 177.132 39.3442 175.797C35.7651 174.527 39.0685 180.771 35.9571 180.634C35.327 176.177 31.5165 175.566 34.8002 180.018C34.4211 184.371 30.7683 179.846 28.7351 179.614C25.3136 181.889 30.6009 182.19 31.9055 183.411C34.9528 185.332 30.4876 186.548 29.1043 185.292C28.6612 183.51 27.4501 184.49 27.2581 185.657C28.8138 197.55 19.2779 175.098 14.3401 183.529C10.83 177.334 15.6644 179.855 12.9075 177.959C7.57096 174.158 13.1389 174.601 6.1679 169.474C7.32973 157.596 5.15868 154.789 3.40116 145.466C4.87315 144.417 4.10515 144.161 3.99192 142.718C4.56299 142.334 5.63622 142.073 5.06515 141.147C2.52979 137.207 5.39498 137.966 5.84298 134.804C3.16978 125.605 3.987 124.477 7.36419 116.824C4.72545 103.842 -2.3637 97.9768 6.89158 85.4089C7.86634 83.6655 5.81344 82.7692 4.87807 81.735C6.81774 74.1903 2.45594 66.0744 1.25964 57.6531C1.43195 53.9792 10.0128 55.3778 3.7753 51.4725C8.90509 47.779 2.80547 47.5327 4.7353 45.7894C5.99067 45.7549 8.08788 45.8633 8.21588 44.2135C6.92605 39.2592 -0.640647 43.9081 9.94878 38.2398C15.8318 28.8335 26.1751 30.4735 33.2445 15.65C36.4396 8.63226 37.7737 16.7088 38.5959 9.26262C45.813 6.44075 41.4955 5.57891 47.9102 7.65223C51.2529 6.16496 53.6259 1.95432 56.5698 1.57019C58.219 4.77619 55.9495 4.67769 60.6609 5.52967H60.6559Z" fill="white" stroke="#025ABB" stroke-width="2" stroke-linecap="round" stroke-linejoin="round"/>
<path d="M44 148.688V146.576H38.608V146.48L44 142.336V139.76L37.952 144.56L32.8 140.144V142.576L37.568 146.48V146.576H32.8V148.688H44ZM44 138.599V136.615H39.392C39.0613 136.615 38.7627 136.567 38.496 136.471C38.2293 136.375 38.0053 136.241 37.824 136.071C37.6427 135.889 37.504 135.671 37.408 135.415C37.3013 135.159 37.248 134.876 37.248 134.567C37.248 134.033 37.4027 133.639 37.712 133.383C38.0107 133.116 38.4693 132.983 39.088 132.983H44V130.999H38.672C37.6693 130.999 36.896 131.244 36.352 131.735C35.7973 132.225 35.52 132.919 35.52 133.815C35.52 134.369 35.6267 134.887 35.84 135.367C36.0427 135.847 36.3307 136.263 36.704 136.615H32.48V138.599H44ZM44 128.88V126.896H39.264C38.9333 126.896 38.6453 126.858 38.4 126.784C38.144 126.709 37.936 126.597 37.776 126.448C37.6053 126.298 37.4773 126.122 37.392 125.92C37.296 125.706 37.248 125.466 37.248 125.2V125.136C37.248 124.912 37.2853 124.72 37.36 124.56C37.424 124.389 37.5253 124.25 37.664 124.144C37.8027 124.037 37.9787 123.957 38.192 123.904C38.3947 123.84 38.64 123.808 38.928 123.808H44V121.824H39.264C38.9333 121.824 38.6453 121.786 38.4 121.712C38.144 121.626 37.9307 121.509 37.76 121.36C37.5893 121.21 37.4613 121.029 37.376 120.816C37.2907 120.602 37.248 120.368 37.248 120.112V120.048C37.248 119.824 37.28 119.632 37.344 119.472C37.408 119.301 37.5093 119.162 37.648 119.056C37.7867 118.949 37.9627 118.869 38.176 118.816C38.3893 118.762 38.64 118.736 38.928 118.736H44V116.752H38.576C37.584 116.752 36.8267 116.976 36.304 117.424C35.7813 117.861 35.52 118.506 35.52 119.36V119.44C35.52 119.994 35.6427 120.506 35.888 120.976C36.1333 121.434 36.4747 121.824 36.912 122.144C36.4533 122.346 36.1067 122.64 35.872 123.024C35.6373 123.408 35.52 123.882 35.52 124.448V124.528C35.52 125.05 35.632 125.53 35.856 125.968C36.0693 126.394 36.368 126.768 36.752 127.088C36.5707 127.109 36.384 127.141 36.192 127.184C35.9893 127.226 35.8187 127.269 35.68 127.312V128.88H44ZM44.144 111.125V110.917C44.144 110.576 44.1067 110.245 44.032 109.925C43.9573 109.605 43.856 109.301 43.728 109.013C43.6 108.715 43.44 108.443 43.248 108.197C43.056 107.941 42.8427 107.717 42.608 107.525L41.408 108.613C41.7067 108.859 41.9627 109.168 42.176 109.541C42.3787 109.904 42.48 110.336 42.48 110.837V110.997C42.48 111.317 42.432 111.611 42.336 111.877C42.24 112.144 42.1067 112.373 41.936 112.565C41.7653 112.747 41.5573 112.896 41.312 113.013C41.056 113.131 40.7733 113.205 40.464 113.237H40.448V107.269H39.376C38.8107 107.269 38.2933 107.36 37.824 107.541C37.3547 107.723 36.9493 107.979 36.608 108.309C36.2667 108.64 36.0053 109.035 35.824 109.493C35.632 109.952 35.536 110.459 35.536 111.013V111.173C35.536 111.781 35.6427 112.331 35.856 112.821C36.0587 113.312 36.3467 113.739 36.72 114.101C37.0827 114.453 37.52 114.725 38.032 114.917C38.544 115.109 39.1093 115.205 39.728 115.205H40.048C40.656 115.205 41.216 115.109 41.728 114.917C42.2293 114.725 42.6613 114.453 43.024 114.101C43.376 113.739 43.6533 113.307 43.856 112.805C44.048 112.293 44.144 111.733 44.144 111.125ZM39.12 113.205C38.8 113.152 38.5173 113.072 38.272 112.965C38.016 112.848 37.8027 112.704 37.632 112.533C37.4613 112.363 37.328 112.165 37.232 111.941C37.136 111.717 37.088 111.467 37.088 111.189V111.045C37.088 110.768 37.136 110.517 37.232 110.293C37.328 110.069 37.4613 109.877 37.632 109.717C37.8027 109.547 38.0107 109.419 38.256 109.333C38.5013 109.237 38.7733 109.184 39.072 109.173H39.12V113.205ZM44 105.614V103.63H32.48V105.614H44ZM44 101.38V99.3956H39.456C39.1147 99.3956 38.8107 99.3476 38.544 99.2516C38.2773 99.1556 38.048 99.0223 37.856 98.8516C37.6533 98.6703 37.504 98.457 37.408 98.2116C37.3013 97.9663 37.248 97.689 37.248 97.3796V97.2836C37.248 96.761 37.4027 96.377 37.712 96.1316C38.0213 95.8863 38.48 95.7636 39.088 95.7636H44V93.7796H38.672C37.6587 93.7796 36.88 94.025 36.336 94.5156C35.792 94.9956 35.52 95.6943 35.52 96.6116V96.7076C35.52 97.2943 35.6427 97.833 35.888 98.3236C36.1227 98.8036 36.448 99.2196 36.864 99.5716C36.6827 99.593 36.48 99.625 36.256 99.6676C36.032 99.7103 35.84 99.7583 35.68 99.8116V101.38H44ZM47.216 90.7886C47.216 90.362 47.1467 89.978 47.008 89.6366C46.88 89.2846 46.6933 88.9753 46.448 88.7086C46.2133 88.4313 45.9253 88.1913 45.584 87.9886C45.2427 87.786 44.8533 87.6153 44.416 87.4766L35.68 84.6286V86.6286L42.064 88.4686V88.5806L35.68 90.9486V93.0446L44.352 89.5406C44.736 89.722 45.024 89.9513 45.216 90.2286C45.4187 90.506 45.52 90.81 45.52 91.1406C45.52 91.3326 45.4933 91.53 45.44 91.7326C45.3867 91.9246 45.312 92.1113 45.216 92.2926H46.912C47.0293 92.0686 47.1093 91.818 47.152 91.5406C47.1947 91.2633 47.216 91.0126 47.216 90.7886ZM44.08 80.6139C44.08 80.3259 44.0533 79.9952 44 79.6219C43.9467 79.2379 43.8667 78.9232 43.76 78.6779H42.192C42.224 78.7525 42.2507 78.8539 42.272 78.9819C42.2933 79.0992 42.3147 79.2219 42.336 79.3499C42.3467 79.4672 42.3573 79.5899 42.368 79.7179C42.368 79.8459 42.368 79.9525 42.368 80.0379C42.368 80.3685 42.2827 80.6192 42.112 80.7899C41.9413 80.9605 41.6267 81.0459 41.168 81.0459H37.28V78.7579H35.68V81.0299H33.52L33.76 83.0139H35.696C35.7067 83.1952 35.7387 83.3872 35.792 83.5899C35.8347 83.7819 35.8827 83.9525 35.936 84.1019H37.28V83.0139H41.552C41.9893 83.0139 42.368 82.9605 42.688 82.8539C42.9973 82.7365 43.2587 82.5765 43.472 82.3739C43.6747 82.1712 43.8293 81.9259 43.936 81.6379C44.032 81.3392 44.08 80.9979 44.08 80.6139ZM44.16 74.1216C44.16 73.6416 44.1013 73.2043 43.984 72.8096C43.8667 72.415 43.696 72.0843 43.472 71.8176C43.248 71.5403 42.976 71.327 42.656 71.1776C42.336 71.0283 41.9787 70.9536 41.584 70.9536C41.1467 70.9536 40.784 71.039 40.496 71.2096C40.208 71.3803 39.9733 71.6043 39.792 71.8816C39.6 72.1483 39.4507 72.4523 39.344 72.7936C39.2267 73.135 39.1307 73.471 39.056 73.8016C38.992 74.0576 38.9333 74.303 38.88 74.5376C38.816 74.7723 38.7467 74.9803 38.672 75.1616C38.5973 75.3323 38.5013 75.471 38.384 75.5776C38.2667 75.6843 38.1227 75.7376 37.952 75.7376C37.8133 75.7376 37.696 75.711 37.6 75.6576C37.504 75.6043 37.424 75.535 37.36 75.4496C37.2853 75.3536 37.232 75.2363 37.2 75.0976C37.1573 74.9483 37.136 74.783 37.136 74.6016C37.136 74.1963 37.2107 73.791 37.36 73.3856C37.5093 72.9696 37.7067 72.5963 37.952 72.2656L36.544 71.3216C36.2347 71.759 35.9893 72.255 35.808 72.8096C35.616 73.3643 35.52 73.9403 35.52 74.5376C35.52 75.007 35.5787 75.4283 35.696 75.8016C35.8027 76.1643 35.968 76.479 36.192 76.7456C36.4053 77.0016 36.6667 77.199 36.976 77.3376C37.2853 77.4763 37.632 77.5456 38.016 77.5456C38.3893 77.5456 38.7093 77.4816 38.976 77.3536C39.232 77.2256 39.4453 77.055 39.616 76.8416C39.7867 76.6176 39.9253 76.367 40.032 76.0896C40.1387 75.8123 40.2347 75.5296 40.32 75.2416C40.4373 74.8683 40.5333 74.5376 40.608 74.2496C40.6827 73.951 40.7627 73.7003 40.848 73.4976C40.9333 73.2843 41.0347 73.1243 41.152 73.0176C41.2587 72.911 41.4133 72.8576 41.616 72.8576C41.776 72.8576 41.9093 72.8843 42.016 72.9376C42.1227 72.991 42.2187 73.0763 42.304 73.1936C42.3787 73.3003 42.4373 73.439 42.48 73.6096C42.512 73.7696 42.528 73.9563 42.528 74.1696C42.528 74.4043 42.5067 74.6443 42.464 74.8896C42.4107 75.135 42.3413 75.375 42.256 75.6096C42.1707 75.8443 42.0693 76.0736 41.952 76.2976C41.8347 76.511 41.696 76.703 41.536 76.8736L42.96 77.8656C43.3547 77.375 43.6533 76.815 43.856 76.1856C44.0587 75.5456 44.16 74.8576 44.16 74.1216ZM44 69.3956V67.4116H40.064V67.2836L44 64.2756V61.8916L39.536 65.5076L35.68 62.0036V64.2276L39.184 67.2836V67.4116H32.48V69.3956H44ZM47.216 59.4605C47.216 59.0338 47.1467 58.6498 47.008 58.3085C46.88 57.9565 46.6933 57.6472 46.448 57.3805C46.2133 57.1032 45.9253 56.8632 45.584 56.6605C45.2427 56.4578 44.8533 56.2872 44.416 56.1485L35.68 53.3005V55.3005L42.064 57.1405V57.2525L35.68 59.6205V61.7165L44.352 58.2125C44.736 58.3938 45.024 58.6232 45.216 58.9005C45.4187 59.1778 45.52 59.4818 45.52 59.8125C45.52 60.0045 45.4933 60.2018 45.44 60.4045C45.3867 60.5965 45.312 60.7832 45.216 60.9645H46.912C47.0293 60.7405 47.1093 60.4898 47.152 60.2125C47.1947 59.9352 47.216 59.6845 47.216 59.4605ZM44 52.13V50.146H35.68V52.13H44ZM34.384 51.154C34.384 50.802 34.288 50.5193 34.096 50.306C33.904 50.082 33.648 49.97 33.328 49.97C33.008 49.97 32.7467 50.082 32.544 50.306C32.3413 50.5193 32.24 50.802 32.24 51.154C32.24 51.4953 32.3413 51.7727 32.544 51.986C32.7467 52.1993 33.008 52.306 33.328 52.306C33.648 52.306 33.904 52.1993 34.096 51.986C34.288 51.7727 34.384 51.4953 34.384 51.154Z" fill="#15141A"/>
<circle cx="65" cy="74" r="6" fill="#FCD800"/>
</svg>
