<svg width="241" height="134" viewBox="0 0 241 134" fill="none" xmlns="http://www.w3.org/2000/svg">
<path d="M175.904 1.88721C187.724 5.53151 196.95 16.9815 207.441 20.8918C201.105 29.8794 213.669 28.0277 218.784 32.9081C221.816 34.223 219.773 28.5743 225.13 33.4695C225.907 34.3363 225.996 37.8131 227.045 35.0011C227.03 28.9634 247.027 32.5289 236.92 42.3291C234.537 46.0621 234.843 46.8451 233.469 42.4227C231.131 46.5447 233.248 39.5811 230.22 41.8071C226.946 46.525 228.408 40.6006 225.509 41.5461C221.531 45.8897 222.767 40.9551 220.595 43.2008C217.189 49.9329 230.85 50.4648 234.395 53.0946C233.139 59.4771 213.3 61.644 213.388 67.9821C215.156 71.523 220.433 91.1086 215.101 91.148C210.872 97.9048 206.56 93.832 202.927 101.948C202.311 99.8402 202.853 90.8722 200.834 99.4955C202.4 105.297 196.901 102.721 194.297 105.366C188.414 110.753 191.466 118.239 186.563 107.045C184.116 108.956 180.089 105.784 181.423 110.941C178.381 112.324 177.977 115.585 175.579 111.797C161.908 112.822 180.138 134.072 152.963 127.862C146.351 127.611 145.057 121.834 140.552 131.462C136.269 135.279 133.611 123.622 129.007 127.399C128.628 128.97 120.963 129.157 122.509 126.084C124.621 115.594 118.029 117.697 114.243 108.936C123.927 104.937 111.964 100.402 107.582 101.495C107.681 104.839 106.017 103.179 104.294 103.445C104.575 105.686 101.576 107.636 102.851 104.199C103.841 94.9598 86.5169 108.557 83.9717 92.8914C75.1693 88.208 71.5558 99.1507 66.879 96.4323C65.914 91.4829 63.1867 100.402 62.3006 95.8413C48.073 95.3439 34.1458 101.406 19.5342 97.5994C17.5896 95.8413 17.8112 90.2764 14.493 92.9456C9.77679 90.104 12.0857 99.5053 6.87221 92.9012C4.11532 93.3642 3.53441 94.1275 4.50917 90.4881C5.39039 87.9125 1.63904 89.513 1.94919 87.5086C12.962 60.3389 10.5251 85.7111 17.0678 74.5172C21.9908 74.2956 25.7175 66.4111 30.2467 70.0061C37.7691 68.1003 40.9198 58.0587 43.918 63.1755C47.8515 64.584 52.9123 60.4866 47.6644 57.7288C54.0594 34.8288 82.5834 51.7698 97.2688 46.855C101.276 45.9882 101.655 40.8025 104.166 38.0594C103.905 28.0376 104.038 32.5338 111.521 31.6966C112.953 27.1462 119.683 31.0072 122.125 32.8687C123.297 33.8783 122.553 37.631 124.907 36.7494C130.046 30.298 132.006 31.7557 138.273 32.3467C140.473 30.298 137.367 28.3922 139.42 26.4715C144.894 23.039 141.35 21.1577 147.292 19.8182C149.97 13.219 150.541 20.3747 152.604 20.9804C154.789 22.2264 156.65 18.2324 156.852 20.4633C156.798 22.8272 161.603 35.4099 162.587 28.8747C164.458 27.0033 166.166 33.0706 169.263 26.6389C172.699 24.3588 175.294 32.7062 179.611 22.8814C175.077 21.3498 177.475 14.396 175.515 10.8798C172.306 8.57008 175.486 4.97993 175.894 1.91182L175.904 1.88721Z" fill="white" stroke="#FCD800" stroke-width="2" stroke-linecap="round" stroke-linejoin="round"/>
<path d="M87.312 77H89.424V71.608H89.52L93.664 77H96.24L91.44 70.952L95.856 65.8H93.424L89.52 70.568H89.424V65.8H87.312V77ZM97.4013 77H99.3853V72.6C99.3853 72.2587 99.4226 71.96 99.4973 71.704C99.5826 71.4373 99.7053 71.2187 99.8653 71.048C100.036 70.8667 100.239 70.7333 100.473 70.648C100.708 70.5627 100.985 70.52 101.305 70.52C101.412 70.52 101.519 70.5253 101.625 70.536C101.743 70.5467 101.839 70.5627 101.913 70.584V68.68H101.705C101.183 68.68 100.708 68.7813 100.281 68.984C99.8653 69.176 99.5079 69.448 99.2093 69.8C99.1879 69.6187 99.1506 69.4267 99.0973 69.224C99.0546 69.0213 99.0066 68.84 98.9533 68.68H97.4013V77ZM106.875 77.144H107.035C107.632 77.144 108.182 77.048 108.683 76.856C109.184 76.6533 109.616 76.3707 109.979 76.008C110.342 75.6453 110.624 75.2133 110.827 74.712C111.03 74.2107 111.131 73.6667 111.131 73.08V72.6C111.131 72.0027 111.03 71.4587 110.827 70.968C110.624 70.4667 110.342 70.0347 109.979 69.672C109.616 69.3093 109.184 69.032 108.683 68.84C108.182 68.6373 107.632 68.536 107.035 68.536H106.875C106.267 68.536 105.712 68.6373 105.211 68.84C104.71 69.032 104.278 69.3093 103.915 69.672C103.552 70.0347 103.27 70.4667 103.067 70.968C102.875 71.4587 102.779 72.0027 102.779 72.6V73.08C102.779 73.6667 102.875 74.2107 103.067 74.712C103.27 75.2133 103.552 75.6453 103.915 76.008C104.278 76.3707 104.71 76.6533 105.211 76.856C105.712 77.048 106.267 77.144 106.875 77.144ZM106.875 75.56C106.566 75.56 106.283 75.5013 106.027 75.384C105.782 75.2667 105.568 75.096 105.387 74.872C105.216 74.6373 105.078 74.3653 104.971 74.056C104.875 73.736 104.827 73.384 104.827 73V72.616C104.827 72.2427 104.875 71.9013 104.971 71.592C105.078 71.2827 105.222 71.0213 105.403 70.808C105.584 70.584 105.798 70.4133 106.043 70.296C106.299 70.1787 106.576 70.12 106.875 70.12H107.019C107.318 70.12 107.595 70.1787 107.851 70.296C108.107 70.4133 108.32 70.584 108.491 70.808C108.672 71.0213 108.811 71.2827 108.907 71.592C109.014 71.9013 109.067 72.2427 109.067 72.616V73C109.067 73.384 109.019 73.736 108.923 74.056C108.827 74.3653 108.688 74.6373 108.507 74.872C108.326 75.096 108.107 75.2667 107.851 75.384C107.606 75.5013 107.328 75.56 107.019 75.56H106.875ZM112.808 80.2H114.792V76.184C115.112 76.4933 115.474 76.7333 115.88 76.904C116.296 77.064 116.754 77.144 117.256 77.144H117.4C117.944 77.144 118.44 77.048 118.888 76.856C119.346 76.6533 119.736 76.3707 120.056 76.008C120.386 75.6453 120.637 75.2187 120.808 74.728C120.989 74.2267 121.08 73.6773 121.08 73.08V72.6C121.08 72.0027 120.989 71.4587 120.808 70.968C120.637 70.4667 120.386 70.0347 120.056 69.672C119.736 69.3093 119.346 69.032 118.888 68.84C118.44 68.6373 117.944 68.536 117.4 68.536H117.256C116.712 68.536 116.21 68.6373 115.752 68.84C115.304 69.032 114.92 69.3093 114.6 69.672C114.578 69.5013 114.546 69.3253 114.504 69.144C114.472 68.9627 114.429 68.808 114.376 68.68H112.808V80.2ZM116.84 75.56C116.53 75.56 116.248 75.5013 115.992 75.384C115.746 75.2667 115.533 75.096 115.352 74.872C115.181 74.648 115.042 74.3813 114.936 74.072C114.84 73.752 114.792 73.3947 114.792 73V72.616C114.792 72.2427 114.84 71.9013 114.936 71.592C115.032 71.2827 115.17 71.0213 115.352 70.808C115.533 70.584 115.746 70.4133 115.992 70.296C116.248 70.1787 116.53 70.12 116.84 70.12H116.968C117.277 70.12 117.554 70.1787 117.8 70.296C118.056 70.4133 118.274 70.584 118.456 70.808C118.637 71.0213 118.776 71.2827 118.872 71.592C118.968 71.9013 119.016 72.2427 119.016 72.616V73C119.016 73.3947 118.968 73.752 118.872 74.072C118.776 74.3813 118.637 74.648 118.456 74.872C118.274 75.096 118.056 75.2667 117.8 75.384C117.554 75.5013 117.277 75.56 116.968 75.56H116.84ZM123.586 80.216C124.013 80.216 124.397 80.1467 124.738 80.008C125.09 79.88 125.4 79.6933 125.666 79.448C125.944 79.2133 126.184 78.9253 126.386 78.584C126.589 78.2427 126.76 77.8533 126.898 77.416L129.746 68.68H127.746L125.906 75.064H125.794L123.426 68.68H121.33L124.834 77.352C124.653 77.736 124.424 78.024 124.146 78.216C123.869 78.4187 123.565 78.52 123.234 78.52C123.042 78.52 122.845 78.4933 122.642 78.44C122.45 78.3867 122.264 78.312 122.082 78.216V79.912C122.306 80.0293 122.557 80.1093 122.834 80.152C123.112 80.1947 123.362 80.216 123.586 80.216ZM132.963 77H135.459L138.339 68.68H136.243L134.307 75.176H134.147L132.195 68.68H130.099L132.963 77ZM139.667 77H141.651V72.456C141.651 72.1147 141.699 71.8107 141.795 71.544C141.891 71.2773 142.025 71.048 142.195 70.856C142.377 70.6533 142.59 70.504 142.835 70.408C143.081 70.3013 143.358 70.248 143.667 70.248H143.763C144.286 70.248 144.67 70.4027 144.915 70.712C145.161 71.0213 145.283 71.48 145.283 72.088V77H147.267V71.672C147.267 70.6587 147.022 69.88 146.531 69.336C146.051 68.792 145.353 68.52 144.435 68.52H144.339C143.753 68.52 143.214 68.6427 142.723 68.888C142.243 69.1227 141.827 69.448 141.475 69.864C141.454 69.6827 141.422 69.48 141.379 69.256C141.337 69.032 141.289 68.84 141.235 68.68H139.667V77ZM150.258 80.216C150.685 80.216 151.069 80.1467 151.41 80.008C151.762 79.88 152.072 79.6933 152.338 79.448C152.616 79.2133 152.856 78.9253 153.058 78.584C153.261 78.2427 153.432 77.8533 153.57 77.416L156.418 68.68H154.418L152.578 75.064H152.466L150.098 68.68H148.002L151.506 77.352C151.325 77.736 151.096 78.024 150.818 78.216C150.541 78.4187 150.237 78.52 149.906 78.52C149.714 78.52 149.517 78.4933 149.314 78.44C149.122 78.3867 148.936 78.312 148.754 78.216V79.912C148.978 80.0293 149.229 80.1093 149.506 80.152C149.784 80.1947 150.034 80.216 150.258 80.216ZM160.433 77.08C160.721 77.08 161.052 77.0533 161.425 77C161.809 76.9467 162.124 76.8667 162.369 76.76V75.192C162.294 75.224 162.193 75.2507 162.065 75.272C161.948 75.2933 161.825 75.3147 161.697 75.336C161.58 75.3467 161.457 75.3573 161.329 75.368C161.201 75.368 161.094 75.368 161.009 75.368C160.678 75.368 160.428 75.2827 160.257 75.112C160.086 74.9413 160.001 74.6267 160.001 74.168V70.28H162.289V68.68H160.017V66.52L158.033 66.76V68.696C157.852 68.7067 157.66 68.7387 157.457 68.792C157.265 68.8347 157.094 68.8827 156.945 68.936V70.28H158.033V74.552C158.033 74.9893 158.086 75.368 158.193 75.688C158.31 75.9973 158.47 76.2587 158.673 76.472C158.876 76.6747 159.121 76.8293 159.409 76.936C159.708 77.032 160.049 77.08 160.433 77.08ZM166.925 77.16C167.405 77.16 167.843 77.1013 168.237 76.984C168.632 76.8667 168.963 76.696 169.229 76.472C169.507 76.248 169.72 75.976 169.869 75.656C170.019 75.336 170.093 74.9787 170.093 74.584C170.093 74.1467 170.008 73.784 169.837 73.496C169.667 73.208 169.443 72.9733 169.165 72.792C168.899 72.6 168.595 72.4507 168.253 72.344C167.912 72.2267 167.576 72.1307 167.245 72.056C166.989 71.992 166.744 71.9333 166.509 71.88C166.275 71.816 166.067 71.7467 165.885 71.672C165.715 71.5973 165.576 71.5013 165.469 71.384C165.363 71.2667 165.309 71.1227 165.309 70.952C165.309 70.8133 165.336 70.696 165.389 70.6C165.443 70.504 165.512 70.424 165.597 70.36C165.693 70.2853 165.811 70.232 165.949 70.2C166.099 70.1573 166.264 70.136 166.445 70.136C166.851 70.136 167.256 70.2107 167.661 70.36C168.077 70.5093 168.451 70.7067 168.781 70.952L169.725 69.544C169.288 69.2347 168.792 68.9893 168.237 68.808C167.683 68.616 167.107 68.52 166.509 68.52C166.04 68.52 165.619 68.5787 165.245 68.696C164.883 68.8027 164.568 68.968 164.301 69.192C164.045 69.4053 163.848 69.6667 163.709 69.976C163.571 70.2853 163.501 70.632 163.501 71.016C163.501 71.3893 163.565 71.7093 163.693 71.976C163.821 72.232 163.992 72.4453 164.205 72.616C164.429 72.7867 164.68 72.9253 164.957 73.032C165.235 73.1387 165.517 73.2347 165.805 73.32C166.179 73.4373 166.509 73.5333 166.797 73.608C167.096 73.6827 167.347 73.7627 167.549 73.848C167.763 73.9333 167.923 74.0347 168.029 74.152C168.136 74.2587 168.189 74.4133 168.189 74.616C168.189 74.776 168.163 74.9093 168.109 75.016C168.056 75.1227 167.971 75.2187 167.853 75.304C167.747 75.3787 167.608 75.4373 167.437 75.48C167.277 75.512 167.091 75.528 166.877 75.528C166.643 75.528 166.403 75.5067 166.157 75.464C165.912 75.4107 165.672 75.3413 165.437 75.256C165.203 75.1707 164.973 75.0693 164.749 74.952C164.536 74.8347 164.344 74.696 164.173 74.536L163.181 75.96C163.672 76.3547 164.232 76.6533 164.861 76.856C165.501 77.0587 166.189 77.16 166.925 77.16ZM171.651 77H173.635V73.064H173.763L176.771 77H179.155L175.539 72.536L179.043 68.68H176.819L173.763 72.184H173.635V65.48H171.651V77ZM181.586 80.216C182.013 80.216 182.397 80.1467 182.738 80.008C183.09 79.88 183.4 79.6933 183.666 79.448C183.944 79.2133 184.184 78.9253 184.386 78.584C184.589 78.2427 184.76 77.8533 184.898 77.416L187.746 68.68H185.746L183.906 75.064H183.794L181.426 68.68H179.33L182.834 77.352C182.653 77.736 182.424 78.024 182.146 78.216C181.869 78.4187 181.565 78.52 181.234 78.52C181.042 78.52 180.845 78.4933 180.642 78.44C180.45 78.3867 180.264 78.312 180.082 78.216V79.912C180.306 80.0293 180.557 80.1093 180.834 80.152C181.112 80.1947 181.362 80.216 181.586 80.216ZM188.917 77H190.901V68.68H188.917V77ZM189.893 67.384C190.245 67.384 190.528 67.288 190.741 67.096C190.965 66.904 191.077 66.648 191.077 66.328C191.077 66.008 190.965 65.7467 190.741 65.544C190.528 65.3413 190.245 65.24 189.893 65.24C189.552 65.24 189.274 65.3413 189.061 65.544C188.848 65.7467 188.741 66.008 188.741 66.328C188.741 66.648 188.848 66.904 189.061 67.096C189.274 67.288 189.552 67.384 189.893 67.384Z" fill="#15141A"/>
<circle cx="172" cy="88" r="6" fill="#025ABB"/>
</svg>
