<svg width="166" height="209" viewBox="0 0 166 209" fill="none" xmlns="http://www.w3.org/2000/svg">
<path d="M85.8143 109.1C81.29 104.441 87.2715 113.35 79.7836 111.611C76.0322 107.593 80.2168 127.671 79.7885 131.852C73.94 135.738 77.1695 130.291 75.2446 126.755C73.0292 126.942 73.6643 123.16 73.4034 121.899C70.7991 122.761 72.7387 119.008 72.5271 117.94C65.7185 116.364 63.3112 89.2432 54.0313 101.481C52.3328 98.6494 57.3248 76.3354 59.1069 82.2353C57.6152 74.8531 61.8244 80.8022 61.8736 75.5721C69.7997 71.9573 71.8772 91.3165 74.2994 82.9691C83.2494 86.9039 86.7989 64.2206 90.8702 82.6785C76.9824 93.3011 97.6886 102.993 85.8143 109.095V109.1Z" fill="white" stroke="#15141A" stroke-width="2" stroke-linecap="round" stroke-linejoin="round"/>
<path d="M5.92846 10.802C8.53767 6.87702 11.7278 12.3927 13.2096 8.59083C24.0255 -10.3842 28.2691 13.5451 36.338 2.77472C45.2585 -0.096404 63.2177 0.942711 60.9137 14.1361C62.6072 19.5631 75.2299 21.2277 73.8662 24.5273C70.9911 23.8674 72.8274 26.6006 73.0785 28.0632C73.3788 29.7573 69.3616 46.5507 73.8022 43.9603C85.7799 43.7042 74.9591 55.2576 84.7313 56.9911C91.0919 60.2809 83.2396 65.7818 85.4058 67.2296C91.3823 67.9634 97.4327 68.1555 104.97 66.1807C109.154 74.2622 115.638 75.646 110.129 82.3584C112.448 86.5691 115.397 83.0381 114.781 87.1551C122.673 92.7546 136.295 88.5144 143.886 83.7965C147.008 73.5087 151.005 83.2252 155.78 85.924C158.907 85.3034 159.571 87.2832 158.527 90.041C156.425 90.302 156.538 89.4944 155.377 92.0306C156.115 94.6112 157.513 92.8334 157.671 96.9258C158.862 99.467 164.509 96.7337 160.723 100.669C165.449 104.633 165.779 103.072 162.244 109.425C163.303 113.798 159.985 112.882 157.164 112.69C153.393 115.147 159.571 122.672 152.265 121.697C145.147 128.804 151.281 127.976 148.814 133.305C144.718 133.832 144.797 144.627 140.563 148.365C131.564 148.941 135.867 142.494 133.134 144.504C133.021 147.483 131.426 147.591 129.206 146.853C128.251 148.709 128.709 150.197 126.887 147.493C124.465 137.176 106.875 149.034 110.621 155.648C112.866 161.095 104.63 168.413 108.923 172.136C107.121 179.878 95.6456 183.562 95.2616 191.771C94.0456 193.731 93.4549 191.205 92.3521 191.239C83.5842 195.091 86.5922 194.701 78.3904 191.372C76.9775 193.195 76.7215 194.45 74.2108 192.988C69.9868 197.351 67.417 186.595 66.1469 197.149C65.8909 197.563 64.8078 206.151 63.2669 201.02C62.7894 198.164 48.1631 200.463 53.283 194.928C51.9046 192.564 47.5674 196.169 49.4234 198.07C42.3638 193.948 31.607 215.577 27.6784 204.625C29.6427 203.753 26.0636 203.152 25.5516 202.911C25.5221 200.345 22.4107 202.576 22.0907 200.68C21.18 195.632 16.0945 196.809 15.1936 192.5C11.1813 186.369 22.3418 189.127 16.764 180.602C21.7905 173.52 11.4127 177.288 14.8342 168.704C17.2268 164.853 9.07426 167.054 11.9395 163.966C13.4016 163.617 13.4558 162.041 13.249 160.814C6.95737 161.484 13.0521 157.145 10.8219 153.014C15.0016 150.463 21.4015 148.739 24.0649 143.696C32.4734 139.988 20.7468 132.482 24.5326 126.085C28.0033 126.036 27.9934 122.658 26.807 120.343C23.0212 117.191 27.6193 109.43 21.4409 106.406C17.025 102.274 21.2637 94.3354 10.4576 97.9157C8.99056 95.8916 12.1265 97.0686 12.4022 95.5025C12.1413 94.6998 9.90627 93.9513 11.6244 93.4342C13.6822 94.4684 13.9924 91.9518 14.2976 90.5433C11.393 87.1404 14.6324 88.017 15.0508 84.1904C8.90688 78.4876 22.652 74.3557 18.7775 68.1752C19.5505 63.7725 14.2976 66.3038 13.6478 64.2551C19.2354 57.5821 1.68481 44.3346 12.1364 47.8853C11.2699 43.7485 16.3899 38.2722 10.2706 36.7899C9.43366 33.574 5.31308 29.9297 3.6491 34.5097C2.31988 31.3333 2.24112 26.4627 1.28113 23.2271C7.47429 22.4392 10.6398 13.4466 5.93339 10.8119L5.92846 10.802ZM85.8143 109.105C97.7133 102.998 76.9726 93.316 90.8703 82.6933C86.7547 64.2256 83.2741 86.8941 74.2994 82.979C71.8133 91.2673 69.7801 71.8835 61.8737 75.582C61.9081 80.8367 57.5562 74.73 59.1119 82.2452C57.3297 76.2271 52.3575 98.7036 54.0362 101.491C63.3063 89.2629 65.7284 116.359 72.532 117.945C72.7388 118.9 70.8041 122.859 73.4083 121.904C73.6643 123.052 73.0391 127.041 75.2496 126.76C77.1646 130.227 73.945 135.792 79.7984 131.862C80.2513 127.863 75.988 107.435 79.7836 111.621C87.2962 113.365 81.2753 104.436 85.8143 109.11V109.105Z" fill="white" stroke="#025ABB" stroke-width="2" stroke-linecap="round" stroke-linejoin="round"/>
<path d="M55.968 153H59.136V144.912H59.28L65.496 153H69.36L62.16 143.928L68.784 136.2H65.136L59.28 143.352H59.136V136.2H55.968V153ZM71.9889 157.824C72.6289 157.824 73.2049 157.72 73.7169 157.512C74.2449 157.32 74.7089 157.04 75.1089 156.672C75.5249 156.32 75.8849 155.888 76.1889 155.376C76.4929 154.864 76.7489 154.28 76.9569 153.624L81.2289 140.52H78.2289L75.4689 150.096H75.3009L71.7489 140.52H68.6049L73.8609 153.528C73.5889 154.104 73.2449 154.536 72.8289 154.824C72.4129 155.128 71.9569 155.28 71.4609 155.28C71.1729 155.28 70.8769 155.24 70.5729 155.16C70.2849 155.08 70.0049 154.968 69.7329 154.824V157.368C70.0689 157.544 70.4449 157.664 70.8609 157.728C71.2769 157.792 71.6529 157.824 71.9889 157.824ZM82.9847 153H85.9607V140.52H82.9847V153ZM84.4487 138.576C84.9767 138.576 85.4007 138.432 85.7207 138.144C86.0567 137.856 86.2247 137.472 86.2247 136.992C86.2247 136.512 86.0567 136.12 85.7207 135.816C85.4007 135.512 84.9767 135.36 84.4487 135.36C83.9367 135.36 83.5207 135.512 83.2007 135.816C82.8807 136.12 82.7207 136.512 82.7207 136.992C82.7207 137.472 82.8807 137.856 83.2007 138.144C83.5207 138.432 83.9367 138.576 84.4487 138.576ZM92.2408 153H95.9848L100.305 140.52H97.1608L94.2568 150.264H94.0168L91.0888 140.52H87.9448L92.2408 153Z" fill="#15141A"/>
<circle cx="75" cy="98" r="6" fill="#FCD800"/>
</svg>
