<svg width="134" height="198" viewBox="0 0 134 198" fill="none" xmlns="http://www.w3.org/2000/svg">
<path d="M11.4954 14.9081C22.7101 12.0714 18.9292 12.2635 20.1058 1.50293C28.7063 -0.570388 27.4215 4.72863 31.6503 9.07717C45.8237 14.4156 42.8157 5.55598 52.8488 17.0109C63.8272 18.3357 59.2439 26.5157 70.0351 23.6396C81.6239 7.05311 76.6615 39.6647 92.5383 29.0322C105.008 32.0018 96.9493 40.4871 108.829 43.9098C115.987 54.1139 122.559 36.6655 131.036 43.2351C133.419 45.8896 128.969 47.7166 127.374 49.2778C123.396 58.3935 136.777 63.6087 132.356 73.2957C115.834 86.8633 126.384 90.4486 106.086 92.9602C104.649 99.2983 111.728 106.725 118.369 105.159C122.441 107.582 120.486 109.049 124.779 104.474C130.214 105.124 125.705 111.536 122.864 112.984C109.818 103.292 98.4213 132.703 106.598 129.93C111.325 129.191 120.555 133.668 115.273 138.086C126.448 152.18 104.555 157.853 121.845 155.76C128.944 160.867 109.907 168.545 115.169 177.868C113.909 177.636 109.06 178.532 111.162 180.502C113.377 184.905 113.067 195.68 107.209 196.897C83.0713 189.278 68.3367 206.525 68.7797 180.286C62.7392 178.414 53.6021 180.547 56.8562 171.638C50.8156 167.649 43.3031 167.521 43.3425 158.888C42.9487 154.288 34.3088 160.473 34.0971 155.283C32.3937 148.9 42.924 156.593 33.9789 144.532C31.1826 141.809 25.0879 145.02 28.1549 137.046C23.5125 133.855 23.6849 123.287 27.5199 118.278C21.9815 118.884 31.4042 110.522 23.2763 107.05C26.2301 96.4075 5.96687 103.095 12.5933 96.6242C17.5557 94.1667 10.4862 90.7687 13.4696 87.479C15.1237 83.3373 13.381 78.772 9.11271 83.2092C7.25181 82.6379 1.51156 80.9438 4.37676 78.2648C9.34902 78.5061 2.84569 75.2016 1.47217 74.522C10.4567 70.0257 0.123269 63.003 3.32816 55.8917C9.54594 52.1834 5.90286 44.8406 8.88621 39.3692C14.0062 27.5695 5.59273 34.0308 6.87764 30.7165C8.12809 27.5203 10.501 30.155 11.5151 26.8505C15.0056 25.6144 9.87578 24.2897 10.0924 22.7778C16.7188 18.9266 14.4049 23.679 11.4856 14.9179L11.4954 14.9081Z" fill="white" stroke="#025ABB" stroke-width="2" stroke-linecap="round" stroke-linejoin="round"/>
<path d="M37.312 94H43.616V92.144H39.408V82.8H37.312V94ZM47.776 94.16H47.856C48.432 94.16 48.96 94.0427 49.44 93.808C49.92 93.5627 50.336 93.232 50.688 92.816C50.6987 92.9973 50.7253 93.2053 50.768 93.44C50.8213 93.664 50.8747 93.8507 50.928 94H52.496V85.68H50.512V90.224C50.512 90.5547 50.4587 90.8587 50.352 91.136C50.256 91.4027 50.1227 91.6373 49.952 91.84C49.7813 92.032 49.5733 92.1813 49.328 92.288C49.0827 92.384 48.8107 92.432 48.512 92.432H48.448C47.9253 92.432 47.5467 92.2773 47.312 91.968C47.0773 91.6587 46.96 91.2 46.96 90.592V85.68H44.976V91.008C44.976 92.0213 45.2107 92.8 45.68 93.344C46.16 93.888 46.8587 94.16 47.776 94.16ZM54.7294 94H56.7134V89.392C56.7134 89.0613 56.7614 88.7627 56.8574 88.496C56.9534 88.2293 57.0867 88.0053 57.2574 87.824C57.4387 87.6427 57.6574 87.504 57.9134 87.408C58.1694 87.3013 58.452 87.248 58.7614 87.248C59.2947 87.248 59.6894 87.4027 59.9454 87.712C60.212 88.0107 60.3454 88.4693 60.3454 89.088V94H62.3294V88.672C62.3294 87.6693 62.084 86.896 61.5934 86.352C61.1027 85.7973 60.4094 85.52 59.5134 85.52C58.9587 85.52 58.4414 85.6267 57.9614 85.84C57.4814 86.0427 57.0654 86.3307 56.7134 86.704V82.48H54.7294V94ZM66.6725 94.16C67.1845 94.16 67.6698 94.064 68.1285 93.872C68.5872 93.6693 68.9925 93.392 69.3445 93.04C69.3658 93.2107 69.3925 93.3867 69.4245 93.568C69.4672 93.7387 69.5098 93.8827 69.5525 94H71.4405C71.3658 93.7333 71.2965 93.456 71.2325 93.168C71.1792 92.8693 71.1525 92.576 71.1525 92.288V88.528C71.1525 88.0587 71.0778 87.6373 70.9285 87.264C70.7898 86.8907 70.5765 86.576 70.2885 86.32C70.0112 86.0533 69.6698 85.8507 69.2645 85.712C68.8592 85.5733 68.4058 85.504 67.9045 85.504H67.7605C67.1418 85.504 66.5392 85.6 65.9525 85.792C65.3658 85.984 64.8165 86.2453 64.3045 86.576L65.1205 87.984C65.5152 87.7067 65.9258 87.4987 66.3525 87.36C66.7898 87.2213 67.2165 87.152 67.6325 87.152H67.7125C68.2245 87.152 68.6085 87.2747 68.8645 87.52C69.1312 87.7547 69.2645 88.08 69.2645 88.496V88.864H68.6085C67.0085 88.864 65.8245 89.088 65.0565 89.536C64.2885 89.9733 63.9045 90.6453 63.9045 91.552V91.696C63.9045 92.0693 63.9738 92.4107 64.1125 92.72C64.2512 93.0187 64.4378 93.2747 64.6725 93.488C64.9178 93.7013 65.2112 93.8667 65.5525 93.984C65.8938 94.1013 66.2672 94.16 66.6725 94.16ZM67.0885 92.56C66.9072 92.56 66.7365 92.5333 66.5765 92.48C66.4165 92.4267 66.2778 92.3573 66.1605 92.272C66.0538 92.1867 65.9685 92.08 65.9045 91.952C65.8512 91.824 65.8245 91.68 65.8245 91.52V91.44C65.8245 90.992 66.0592 90.6667 66.5285 90.464C67.0085 90.2507 67.7605 90.144 68.7845 90.144H69.2645V91.536C68.9978 91.856 68.6725 92.1067 68.2885 92.288C67.9152 92.4693 67.5152 92.56 67.0885 92.56ZM73.3704 94H75.3544V89.456C75.3544 89.1147 75.4024 88.8107 75.4984 88.544C75.5944 88.2773 75.7277 88.048 75.8984 87.856C76.0797 87.6533 76.293 87.504 76.5384 87.408C76.7837 87.3013 77.061 87.248 77.3704 87.248H77.4664C77.989 87.248 78.373 87.4027 78.6184 87.712C78.8637 88.0213 78.9864 88.48 78.9864 89.088V94H80.9704V88.672C80.9704 87.6587 80.725 86.88 80.2344 86.336C79.7544 85.792 79.0557 85.52 78.1384 85.52H78.0424C77.4557 85.52 76.917 85.6427 76.4264 85.888C75.9464 86.1227 75.5304 86.448 75.1784 86.864C75.157 86.6827 75.125 86.48 75.0824 86.256C75.0397 86.032 74.9917 85.84 74.9384 85.68H73.3704V94ZM86.0971 94.16C86.5771 94.16 87.0145 94.1013 87.4091 93.984C87.8038 93.8667 88.1345 93.696 88.4011 93.472C88.6785 93.248 88.8918 92.976 89.0411 92.656C89.1905 92.336 89.2651 91.9787 89.2651 91.584C89.2651 91.1467 89.1798 90.784 89.0091 90.496C88.8385 90.208 88.6145 89.9733 88.3371 89.792C88.0705 89.6 87.7665 89.4507 87.4251 89.344C87.0838 89.2267 86.7478 89.1307 86.4171 89.056C86.1611 88.992 85.9158 88.9333 85.6811 88.88C85.4465 88.816 85.2385 88.7467 85.0571 88.672C84.8865 88.5973 84.7478 88.5013 84.6411 88.384C84.5345 88.2667 84.4811 88.1227 84.4811 87.952C84.4811 87.8133 84.5078 87.696 84.5611 87.6C84.6145 87.504 84.6838 87.424 84.7691 87.36C84.8651 87.2853 84.9825 87.232 85.1211 87.2C85.2705 87.1573 85.4358 87.136 85.6171 87.136C86.0225 87.136 86.4278 87.2107 86.8331 87.36C87.2491 87.5093 87.6225 87.7067 87.9531 87.952L88.8971 86.544C88.4598 86.2347 87.9638 85.9893 87.4091 85.808C86.8545 85.616 86.2785 85.52 85.6811 85.52C85.2118 85.52 84.7905 85.5787 84.4171 85.696C84.0545 85.8027 83.7398 85.968 83.4731 86.192C83.2171 86.4053 83.0198 86.6667 82.8811 86.976C82.7425 87.2853 82.6731 87.632 82.6731 88.016C82.6731 88.3893 82.7371 88.7093 82.8651 88.976C82.9931 89.232 83.1638 89.4453 83.3771 89.616C83.6011 89.7867 83.8518 89.9253 84.1291 90.032C84.4065 90.1387 84.6891 90.2347 84.9771 90.32C85.3505 90.4373 85.6811 90.5333 85.9691 90.608C86.2678 90.6827 86.5185 90.7627 86.7211 90.848C86.9345 90.9333 87.0945 91.0347 87.2011 91.152C87.3078 91.2587 87.3611 91.4133 87.3611 91.616C87.3611 91.776 87.3345 91.9093 87.2811 92.016C87.2278 92.1227 87.1425 92.2187 87.0251 92.304C86.9185 92.3787 86.7798 92.4373 86.6091 92.48C86.4491 92.512 86.2625 92.528 86.0491 92.528C85.8145 92.528 85.5745 92.5067 85.3291 92.464C85.0838 92.4107 84.8438 92.3413 84.6091 92.256C84.3745 92.1707 84.1451 92.0693 83.9211 91.952C83.7078 91.8347 83.5158 91.696 83.3451 91.536L82.3531 92.96C82.8438 93.3547 83.4038 93.6533 84.0331 93.856C84.6731 94.0587 85.3611 94.16 86.0971 94.16ZM90.8231 94H92.8071V90.064H92.9351L95.9431 94H98.3271L94.7111 89.536L98.2151 85.68H95.9911L92.9351 89.184H92.8071V82.48H90.8231V94Z" fill="#15141A"/>
<circle cx="76" cy="121" r="6" fill="#FCD800"/>
</svg>
