<svg width="146" height="151" viewBox="0 0 146 151" fill="none" xmlns="http://www.w3.org/2000/svg">
<path d="M112.823 2.91436C111.824 6.67686 119.026 4.1554 119.193 5.81503C117.529 6.47002 117.205 8.02132 117.766 9.58738C119.789 14.3004 112.267 17.5507 110.997 21.7909C109.672 28.257 109.633 30.744 115.245 33.0981C117.229 34.4671 114.787 36.7227 113.66 37.7963C112.247 41.9035 114.398 46.7741 113.621 51.2014C111.991 62.0457 116.181 51.4279 120.931 54.1513C122.782 54.8605 122.684 51.0635 124.205 51.9352C124.397 53.1959 125.628 53.6391 126.755 53.3633C130.285 49.6698 124.057 60.9671 138.945 67.5072C148.589 75.4409 135.065 73.9537 135.597 80.3016C140.934 81.7692 141.805 79.5137 143.897 86.6989C145.31 90.8751 140.028 90.1807 137.675 91.077C135.449 94.7853 143.351 92.5642 136.877 99.4047C135.917 100.931 138.689 100.705 138.881 101.857C125.382 105.364 134.927 113.081 128.193 120.463C116.481 112.573 120.577 111.396 106.704 118.355C104.621 118.685 100.831 113.903 102.391 117.932C100.127 122.211 107.669 122.654 98.1229 121.98C101.914 133.735 92.2202 124.895 88.4197 128.968C88.2031 130.48 91.2898 130.987 91.1126 132.386C88.8874 137.192 88.8529 134.198 86.8246 135.646C87.9027 138.394 96.8626 143.368 90.9107 144.584C81.9951 155.163 89.0547 145.259 80.6265 145.466C75.5115 141.812 79.1496 145.579 76.5355 145.82C72.8875 143.767 67.2211 148.839 64.6021 145.091C51.9154 129.45 58.8864 147.756 50.601 135.685C49.0552 133.08 55.1154 134.365 55.204 131.878C55.4403 126.619 49.6213 129.229 47.6718 126.176C46.638 118.153 40.3168 127.323 36.979 124.211C31.928 115.051 31.0418 123.482 29.2695 117.02C30.4954 112.362 24.1004 112.785 26.0203 108.757C25.1194 107.196 21.7275 108.476 22.1311 104.497C26.5077 97.489 42.8965 107.659 23.3668 92.7859C18.7835 80.0406 13.6537 70.1124 5.72763 59.8886C0.0612288 59.2583 6.53993 52.1666 7.29315 50.2903C6.70731 48.1284 3.04951 45.6611 5.30918 43.3563C3.89135 42.4895 2.01075 42.002 2.08459 39.9434C6.09194 40.2685 -0.495068 32.5219 2.09444 30.6997C62.4556 34.9793 9.94666 -4.65003 112.818 2.91436H112.823Z" fill="white" stroke="#025ABB" stroke-width="2" stroke-linecap="round" stroke-linejoin="round"/>
<path d="M53.312 78H59.616V76.144H55.408V66.8H53.312V78ZM63.776 78.16H63.856C64.432 78.16 64.96 78.0427 65.44 77.808C65.92 77.5627 66.336 77.232 66.688 76.816C66.6987 76.9973 66.7253 77.2053 66.768 77.44C66.8213 77.664 66.8747 77.8507 66.928 78H68.496V69.68H66.512V74.224C66.512 74.5547 66.4587 74.8587 66.352 75.136C66.256 75.4027 66.1227 75.6373 65.952 75.84C65.7813 76.032 65.5733 76.1813 65.328 76.288C65.0827 76.384 64.8107 76.432 64.512 76.432H64.448C63.9253 76.432 63.5467 76.2773 63.312 75.968C63.0773 75.6587 62.96 75.2 62.96 74.592V69.68H60.976V75.008C60.976 76.0213 61.2107 76.8 61.68 77.344C62.16 77.888 62.8587 78.16 63.776 78.16ZM73.4174 78.08C73.7054 78.08 74.036 78.0533 74.4094 78C74.7934 77.9467 75.108 77.8667 75.3534 77.76V76.192C75.2787 76.224 75.1774 76.2507 75.0494 76.272C74.932 76.2933 74.8094 76.3147 74.6814 76.336C74.564 76.3467 74.4414 76.3573 74.3134 76.368C74.1854 76.368 74.0787 76.368 73.9934 76.368C73.6627 76.368 73.412 76.2827 73.2414 76.112C73.0707 75.9413 72.9854 75.6267 72.9854 75.168V71.28H75.2734V69.68H73.0014V67.52L71.0174 67.76V69.696C70.836 69.7067 70.644 69.7387 70.4414 69.792C70.2494 69.8347 70.0787 69.8827 69.9294 69.936V71.28H71.0174V75.552C71.0174 75.9893 71.0707 76.368 71.1774 76.688C71.2947 76.9973 71.4547 77.2587 71.6574 77.472C71.86 77.6747 72.1054 77.8293 72.3934 77.936C72.692 78.032 73.0334 78.08 73.4174 78.08ZM79.9096 78.16C80.3896 78.16 80.827 78.1013 81.2216 77.984C81.6163 77.8667 81.947 77.696 82.2136 77.472C82.491 77.248 82.7043 76.976 82.8536 76.656C83.003 76.336 83.0776 75.9787 83.0776 75.584C83.0776 75.1467 82.9923 74.784 82.8216 74.496C82.651 74.208 82.427 73.9733 82.1496 73.792C81.883 73.6 81.579 73.4507 81.2376 73.344C80.8963 73.2267 80.5603 73.1307 80.2296 73.056C79.9736 72.992 79.7283 72.9333 79.4936 72.88C79.259 72.816 79.051 72.7467 78.8696 72.672C78.699 72.5973 78.5603 72.5013 78.4536 72.384C78.347 72.2667 78.2936 72.1227 78.2936 71.952C78.2936 71.8133 78.3203 71.696 78.3736 71.6C78.427 71.504 78.4963 71.424 78.5816 71.36C78.6776 71.2853 78.795 71.232 78.9336 71.2C79.083 71.1573 79.2483 71.136 79.4296 71.136C79.835 71.136 80.2403 71.2107 80.6456 71.36C81.0616 71.5093 81.435 71.7067 81.7656 71.952L82.7096 70.544C82.2723 70.2347 81.7763 69.9893 81.2216 69.808C80.667 69.616 80.091 69.52 79.4936 69.52C79.0243 69.52 78.603 69.5787 78.2296 69.696C77.867 69.8027 77.5523 69.968 77.2856 70.192C77.0296 70.4053 76.8323 70.6667 76.6936 70.976C76.555 71.2853 76.4856 71.632 76.4856 72.016C76.4856 72.3893 76.5496 72.7093 76.6776 72.976C76.8056 73.232 76.9763 73.4453 77.1896 73.616C77.4136 73.7867 77.6643 73.9253 77.9416 74.032C78.219 74.1387 78.5016 74.2347 78.7896 74.32C79.163 74.4373 79.4936 74.5333 79.7816 74.608C80.0803 74.6827 80.331 74.7627 80.5336 74.848C80.747 74.9333 80.907 75.0347 81.0136 75.152C81.1203 75.2587 81.1736 75.4133 81.1736 75.616C81.1736 75.776 81.147 75.9093 81.0936 76.016C81.0403 76.1227 80.955 76.2187 80.8376 76.304C80.731 76.3787 80.5923 76.4373 80.4216 76.48C80.2616 76.512 80.075 76.528 79.8616 76.528C79.627 76.528 79.387 76.5067 79.1416 76.464C78.8963 76.4107 78.6563 76.3413 78.4216 76.256C78.187 76.1707 77.9576 76.0693 77.7336 75.952C77.5203 75.8347 77.3283 75.696 77.1576 75.536L76.1656 76.96C76.6563 77.3547 77.2163 77.6533 77.8456 77.856C78.4856 78.0587 79.1736 78.16 79.9096 78.16ZM84.6356 78H86.6196V74.064H86.7476L89.7556 78H92.1396L88.5236 73.536L92.0276 69.68H89.8036L86.7476 73.184H86.6196V66.48H84.6356V78Z" fill="#15141A"/>
<circle cx="82" cy="95" r="6" fill="#FCD800"/>
</svg>
