<svg width="159" height="172" viewBox="0 0 159 172" fill="none" xmlns="http://www.w3.org/2000/svg">
<path d="M11.8057 145.571C-20.1102 101.017 29.12 56.7237 62.1486 24.1417C69.9466 24.0432 78.1927 25.8604 77.154 14.8782C88.152 12.475 75.1158 -7.7066 90.6873 6.89032C91.3273 7.6044 91.603 6.54559 92.8732 6.25995C101.69 1.0939 97.1267 11.4802 104.56 9.79591C113.565 16.4147 96.6442 14.5335 105.284 19.9803C106.087 27.7909 107.839 16.2227 109.833 21.5069C119.522 26.412 115.145 30.0218 129.619 27.4609C128.476 23.7723 139.824 28.9777 137.579 33.5036C157.419 31.2382 129.077 41.4816 156.626 60.6438C161.392 69.6265 147.337 73.7928 138.633 75.4623C140.272 92.1572 136.161 76.2404 130.977 91.5465C129.107 93.083 119.61 97.6975 118.133 98.1703C117.769 99.7708 118.148 104.691 115.45 103.642C103.581 97.7172 100.858 102.169 98.4116 112.334C107.091 116.914 88.4966 118.637 93.6461 121.839C99.0663 117.623 95.9107 123.277 97.2842 126.094C112.27 131.841 79.5219 133.934 76.7306 136.578C69.5774 136.933 57.4668 134.308 56.4428 145.118C45.2134 150.456 60.0218 181.369 39.0104 166.772C35.7267 171.111 37.6073 165.723 36.0812 165.733C29.0412 169.037 29.2185 161.773 26.309 158.257C19.1755 159.143 18.757 159.872 13.8242 153.357C11.6777 150.446 15.9657 147.373 11.7959 145.571H11.8057Z" fill="white" stroke="#025ABB" stroke-width="2" stroke-linecap="round" stroke-linejoin="round"/>
<path d="M49.312 87H55.616V85.144H51.408V75.8H49.312V87ZM57.7595 87H60.2555L63.1355 78.68H61.0395L59.1035 85.176H58.9435L56.9915 78.68H54.8955L57.7595 87ZM64.4481 87H66.4321V78.68H64.4481V87ZM65.4241 77.384C65.7761 77.384 66.0588 77.288 66.2721 77.096C66.4961 76.904 66.6081 76.648 66.6081 76.328C66.6081 76.008 66.4961 75.7467 66.2721 75.544C66.0588 75.3413 65.7761 75.24 65.4241 75.24C65.0828 75.24 64.8055 75.3413 64.5921 75.544C64.3788 75.7467 64.2721 76.008 64.2721 76.328C64.2721 76.648 64.3788 76.904 64.5921 77.096C64.8055 77.288 65.0828 77.384 65.4241 77.384ZM70.6189 87H73.1149L75.9949 78.68H73.8989L71.9629 85.176H71.8029L69.8509 78.68H67.7549L70.6189 87Z" fill="#15141A"/>
<circle cx="85" cy="59" r="6" fill="#FCD800"/>
</svg>
