<svg width="169" height="151" viewBox="0 0 169 151" fill="none" xmlns="http://www.w3.org/2000/svg">
<path d="M92.4317 148.368C79.9321 142.966 90.8858 158.685 75.782 141.631C73.4829 137.223 77.4903 142.685 79.041 143.207C82.9105 142.754 98.6593 141.079 92.4317 148.368ZM100.909 128.512C96.5769 122.681 102.361 118.027 103.341 112.408C103.12 107.365 95.6907 112.856 101.593 104.538C101.52 103.775 100.21 103.839 99.6981 103.735C91.2453 105.981 99.1664 99.0764 96.1978 95.3877C91.1369 91.6646 95.9615 90.4089 88.5622 86.1687C89.2761 83.7063 88.2471 82.6229 87.1542 85.4103C87.7154 91.1131 93.943 85.5924 92.3923 95.0529C98.8661 98.4066 93.2292 98.7711 93.6378 104.617C95.3609 105.927 97.9848 104.735 99.895 105.4C96.7245 107.301 96.055 114.274 101.101 110.59C89.345 132.771 108.993 139.893 80.9167 134.544C79.238 135.017 79.3709 138.405 77.1555 137.164C65.8474 136.682 91.9098 108.847 74.8614 126.591C68.6978 117.82 70.918 124.729 74.7235 128.654C71.5334 136.943 64.0849 140.154 56.5871 136.248C54.7853 129.728 57.4241 121.701 52.2844 116.653C36.0532 103.942 76.0282 110.95 59.0536 92.0635C55.9422 91.6449 48.3115 90.2414 55.3121 86.1046C59.2013 76.8708 30.7659 95.0135 38.5738 61.4022C38.628 58.2553 35.9597 56.2607 33.6311 55.7387C35.62 50.3757 29.1511 51.5626 29.0723 55.4925C26.6896 55.8126 27.4724 50.3461 21.8109 52.3801C17.7592 54.675 9.76919 51.0848 12.2701 45.9976C13.5944 43.9784 9.43443 43.2693 10.6701 41.4274C11.8566 40.7478 11.7482 39.1374 11.0492 38.1722C2.70955 34.0994 10.3206 28.6724 1.18835 19.537C2.90157 14.174 -1.97225 15.154 5.72244 13.061C9.51317 12.864 1.83327 10.1751 7.92305 8.7272C9.71503 2.50233 23.1253 11.2979 25.1438 6.9592C30.3277 2.51217 36.1074 8.9094 36.3831 5.94471C38.3916 3.23118 38.4458 6.89029 40.0556 7.38768C58.9601 -8.32222 53.4019 14.6467 68.043 10.2933C71.4645 13.9129 76.5697 6.12694 74.7235 16.0503C77.3574 16.9318 74.4676 11.4801 78.0909 13.8046C82.2706 7.85552 82.2361 14.0016 88.3062 12.4749C93.9332 18.1581 79.1789 19.4434 93.2932 26.7813C93.1948 28.3079 95.3855 29.219 95.287 30.7309C89.4582 46.0715 104.98 31.4401 107.856 40.674C114.713 47.3371 112.779 30.9771 121.463 37.1577C124.564 38.9355 139.496 41.3634 139.944 35.6753C139.333 34.0108 142.469 34.8381 141.637 33.5282C138.137 26.6778 145.024 30.4157 143.459 26.7222C138.014 25.4319 146.422 20.517 147.958 22.1914C148.8 24.3829 150.489 23.9742 151.075 22.0388C155.412 21.9846 151.04 16.1438 157.061 17.9167C159.616 14.9865 163.048 26.2001 161.758 27.7071C162.644 28.825 164.401 27.3821 164.643 30.0956C160.758 34.9317 167.577 45.3919 162.216 44.1656C154.767 44.9142 164.327 50.2969 159.828 53.5669C157.913 58.1026 166.159 53.1483 164.968 58.9595C167.754 60.6044 168.187 75.4721 164.2 68.9025C163.668 65.0563 158.169 73.911 165.44 73.0098C171.899 99.367 158.691 81.111 155.313 97.8748C156.067 100.051 165.361 101.155 162.767 105.355C160.788 106.803 162.339 108.783 159.852 106.848C156.515 102.425 155.732 111.152 160.261 109.502C161.891 111.452 155.747 111.772 155.038 113.698C147.574 114.269 146.309 116.943 154.831 116.323C159.547 118.406 145.965 120.011 143.946 120.08C130.974 110.354 134.858 123.779 128.242 118.115C120.803 118.076 126.755 125.345 117.687 121.164C107.89 129.777 114.162 125.458 100.894 128.536L100.909 128.512Z" fill="white" stroke="#FCD800" stroke-width="2" stroke-linecap="round" stroke-linejoin="round"/>
<path d="M52.312 63H54.36V54.328H54.472L57.096 61.48H58.712L61.32 54.328H61.432V63H63.48V51.8H60.488L57.96 58.792H57.848L55.304 51.8H52.312V63ZM67.1645 66.216C67.5912 66.216 67.9752 66.1467 68.3165 66.008C68.6685 65.88 68.9778 65.6933 69.2445 65.448C69.5218 65.2133 69.7618 64.9253 69.9645 64.584C70.1672 64.2427 70.3378 63.8533 70.4765 63.416L73.3245 54.68H71.3245L69.4845 61.064H69.3725L67.0045 54.68H64.9085L68.4125 63.352C68.2312 63.736 68.0018 64.024 67.7245 64.216C67.4472 64.4187 67.1432 64.52 66.8125 64.52C66.6205 64.52 66.4232 64.4933 66.2205 64.44C66.0285 64.3867 65.8418 64.312 65.6605 64.216V65.912C65.8845 66.0293 66.1352 66.1093 66.4125 66.152C66.6898 66.1947 66.9405 66.216 67.1645 66.216ZM74.4325 63H76.4165V59.064H76.5445L79.5525 63H81.9365L78.3205 58.536L81.8245 54.68H79.6005L76.5445 58.184H76.4165V51.48H74.4325V63ZM86.297 63.144H86.457C87.0543 63.144 87.6037 63.048 88.105 62.856C88.6063 62.6533 89.0383 62.3707 89.401 62.008C89.7637 61.6453 90.0463 61.2133 90.249 60.712C90.4517 60.2107 90.553 59.6667 90.553 59.08V58.6C90.553 58.0027 90.4517 57.4587 90.249 56.968C90.0463 56.4667 89.7637 56.0347 89.401 55.672C89.0383 55.3093 88.6063 55.032 88.105 54.84C87.6037 54.6373 87.0543 54.536 86.457 54.536H86.297C85.689 54.536 85.1343 54.6373 84.633 54.84C84.1317 55.032 83.6997 55.3093 83.337 55.672C82.9743 56.0347 82.6917 56.4667 82.489 56.968C82.297 57.4587 82.201 58.0027 82.201 58.6V59.08C82.201 59.6667 82.297 60.2107 82.489 60.712C82.6917 61.2133 82.9743 61.6453 83.337 62.008C83.6997 62.3707 84.1317 62.6533 84.633 62.856C85.1343 63.048 85.689 63.144 86.297 63.144ZM86.297 61.56C85.9877 61.56 85.705 61.5013 85.449 61.384C85.2037 61.2667 84.9903 61.096 84.809 60.872C84.6383 60.6373 84.4997 60.3653 84.393 60.056C84.297 59.736 84.249 59.384 84.249 59V58.616C84.249 58.2427 84.297 57.9013 84.393 57.592C84.4997 57.2827 84.6437 57.0213 84.825 56.808C85.0063 56.584 85.2197 56.4133 85.465 56.296C85.721 56.1787 85.9983 56.12 86.297 56.12H86.441C86.7397 56.12 87.017 56.1787 87.273 56.296C87.529 56.4133 87.7423 56.584 87.913 56.808C88.0943 57.0213 88.233 57.2827 88.329 57.592C88.4357 57.9013 88.489 58.2427 88.489 58.616V59C88.489 59.384 88.441 59.736 88.345 60.056C88.249 60.3653 88.1103 60.6373 87.929 60.872C87.7477 61.096 87.529 61.2667 87.273 61.384C87.0277 61.5013 86.7503 61.56 86.441 61.56H86.297ZM92.2294 63H94.2134V51.48H92.2294V63ZM98.6881 63.16C99.2001 63.16 99.6855 63.064 100.144 62.872C100.603 62.6693 101.008 62.392 101.36 62.04C101.381 62.2107 101.408 62.3867 101.44 62.568C101.483 62.7387 101.525 62.8827 101.568 63H103.456C103.381 62.7333 103.312 62.456 103.248 62.168C103.195 61.8693 103.168 61.576 103.168 61.288V57.528C103.168 57.0587 103.093 56.6373 102.944 56.264C102.805 55.8907 102.592 55.576 102.304 55.32C102.027 55.0533 101.685 54.8507 101.28 54.712C100.875 54.5733 100.421 54.504 99.9201 54.504H99.7761C99.1575 54.504 98.5548 54.6 97.9681 54.792C97.3815 54.984 96.8321 55.2453 96.3201 55.576L97.1361 56.984C97.5308 56.7067 97.9415 56.4987 98.3681 56.36C98.8055 56.2213 99.2321 56.152 99.6481 56.152H99.7281C100.24 56.152 100.624 56.2747 100.88 56.52C101.147 56.7547 101.28 57.08 101.28 57.496V57.864H100.624C99.0241 57.864 97.8401 58.088 97.0721 58.536C96.3041 58.9733 95.9201 59.6453 95.9201 60.552V60.696C95.9201 61.0693 95.9895 61.4107 96.1281 61.72C96.2668 62.0187 96.4535 62.2747 96.6881 62.488C96.9335 62.7013 97.2268 62.8667 97.5681 62.984C97.9095 63.1013 98.2828 63.16 98.6881 63.16ZM99.1041 61.56C98.9228 61.56 98.7521 61.5333 98.5921 61.48C98.4321 61.4267 98.2935 61.3573 98.1761 61.272C98.0695 61.1867 97.9841 61.08 97.9201 60.952C97.8668 60.824 97.8401 60.68 97.8401 60.52V60.44C97.8401 59.992 98.0748 59.6667 98.5441 59.464C99.0241 59.2507 99.7761 59.144 100.8 59.144H101.28V60.536C101.013 60.856 100.688 61.1067 100.304 61.288C99.9308 61.4693 99.5308 61.56 99.1041 61.56ZM105.37 63H107.354V54.68H105.37V63ZM106.346 53.384C106.698 53.384 106.981 53.288 107.194 53.096C107.418 52.904 107.53 52.648 107.53 52.328C107.53 52.008 107.418 51.7467 107.194 51.544C106.981 51.3413 106.698 51.24 106.346 51.24C106.005 51.24 105.727 51.3413 105.514 51.544C105.301 51.7467 105.194 52.008 105.194 52.328C105.194 52.648 105.301 52.904 105.514 53.096C105.727 53.288 106.005 53.384 106.346 53.384ZM111.541 63H114.037L116.917 54.68H114.821L112.885 61.176H112.725L110.773 54.68H108.677L111.541 63Z" fill="#15141A"/>
<circle cx="129" cy="76" r="6" fill="#025ABB"/>
</svg>
