<svg width="180" height="254" viewBox="0 0 180 254" fill="none" xmlns="http://www.w3.org/2000/svg">
<path d="M2.00364 233.147C-1.60986 220.904 21.3216 235.201 18.2546 224.662C17.8066 223.598 19.633 222.958 20.3567 222.604C14.71 211.72 18.5253 216.846 22.6262 207.731C32.1769 207.672 24.8957 203.564 30.0255 202.885C35.1307 200.885 29.6858 195.291 31.9553 192.055C52.5286 187.126 37.8826 187.638 46.9705 175.139C50.205 170.426 41.1466 169.003 43.3472 164.58C42.6678 156.784 40.674 148.649 51.0517 146.654C52.7551 146.093 57.0086 141.838 58.195 144.97C60.4793 147.59 55.0837 161.113 59.4898 158.016C65.2103 153.662 61.7691 154.44 64.27 149.279C68.5432 160.778 75.209 139.223 73.8749 152.574C77.2718 153.687 84.543 163.477 83.7357 153.889C86.3843 152.47 87.8366 153.958 87.5067 149.353C89.4562 152.411 93.6113 154.751 92.8728 158.996C94.4826 161.97 96.442 158.385 98.2586 157.631C104.846 159.985 117.286 152.323 108.208 153.357C103.531 145.92 98.1257 146.782 98.042 142.562C103.679 142.66 98.5048 137.282 100.405 134.451C101.144 131.348 101.596 120.538 98.0223 121.474C86.9947 109.901 76.6908 118.529 80.0483 98.1899C77.7591 95.7965 77.4047 101.416 75.9425 99.8003C72.3586 93.3538 74.4558 97.2542 77.8477 93.9694C76.105 87.9268 83.6274 80.5692 76.489 76.8757C64.0928 87.4983 72.8706 78.4959 61.0701 69.5871C58.6135 64.3028 58.2443 70.7739 56.1175 68.41C51.1354 59.7031 57.6732 51.3951 59.6966 42.698C62.4042 37.5221 51.8148 42.0726 60.051 33.0258C60.9765 30.3763 56.1126 31.6518 56.1618 28.8989C53.9957 12.8837 45.6118 36.3894 38.9066 20.8125C53.8381 14.8831 46.1681 9.49052 52.0954 8.40216C57.88 14.4202 65.2645 14.563 72.4275 11.16C76.5284 14.9914 91.5879 14.76 84.7597 6.42733C87.4279 5.09273 94.01 0.635839 96.2943 5.19122C98.4801 6.75236 98.618 -0.398348 100.878 2.67469C108.951 4.79232 103.595 10.4262 120.54 9.26398C122.76 15.4741 120.826 11.8248 116.237 14.696C114.603 15.8139 118.202 15.479 116.139 19.8472C115.696 21.4379 116.937 21.8171 118.148 22.088C123.105 27.3082 120.26 35.4291 126.6 39.8564C124.479 44.8403 128.855 56.4725 136.816 52.385C137.633 50.9026 138.686 52.4047 139.745 52.6509C143.176 51.336 143.275 59.7376 144.732 53.1532C151.408 49.3563 146.386 56.7138 151.255 56.4922C155.956 63.7168 148.557 73.5219 156.035 82.1205C160.033 84.7749 175.466 80.0767 169.313 87.1142C160.003 91.4381 187.941 92.0586 174.319 106.04C141.443 114.028 203.557 127.413 147.218 144.95C149.625 163.846 127.915 186.441 111.718 203.023C111.9 201.398 111.979 193.316 109.852 199.442C110.064 205.549 106.766 202.988 103.29 200.787C100.105 201.053 102.679 209.578 99.962 205.263C100.838 201.462 98.7755 204.195 99.125 206.042C99.514 207.731 100.789 209.031 99.962 210.843C97.3577 204.604 87.4329 210.676 96.122 215.079C93.1239 217.585 92.4741 215.674 90.9332 218.57C88.9393 218.555 88.3732 221.5 88.703 217.674C87.6692 212.887 85.2766 214.478 85.5178 208.607C88.0778 206.381 82.2243 200.25 82.9726 204.101C84.5578 208.184 74.4804 232.069 87.108 223.165C85.7886 226.696 79.8022 229.242 82.2046 232.847C85.4981 236.122 82.8545 230.862 85.1289 231C85.2667 232.423 84.5135 233.783 86.8273 232.665C87.7184 232.95 87.1276 235.654 87.8316 233.093C92.5528 222.505 87.4723 273.806 83.8686 241.643C71.3346 228.031 52.3514 236.93 42.7761 247.084C40.7725 245.809 33.7128 239.998 34.8058 246.03C32.0046 246.562 33.1664 249.537 35.5196 249.916C29.3953 254.186 17.2748 246.7 10.8503 244.642C4.71622 243.721 8.36419 232.468 2.00364 233.172V233.147ZM99.1841 213.557C121.992 191.671 99.4057 218.255 88.4765 221.658C92.4642 219.265 95.7282 216.718 99.1841 213.557Z" fill="white" stroke="#FCD800" stroke-width="2" stroke-linecap="round" stroke-linejoin="round"/>
<path d="M92.64 83.56C92.64 84.4027 92.768 85.1707 93.024 85.864C93.2907 86.5467 93.6587 87.1387 94.128 87.64C94.5973 88.1413 95.1573 88.5253 95.808 88.792C96.4587 89.0587 97.1733 89.192 97.952 89.192H98.144C98.9227 89.192 99.6373 89.0587 100.288 88.792C100.939 88.5253 101.499 88.1467 101.968 87.656C102.437 87.1547 102.8 86.5573 103.056 85.864C103.323 85.1707 103.456 84.4027 103.456 83.56V83.24C103.456 82.3867 103.323 81.6187 103.056 80.936C102.8 80.2427 102.437 79.6507 101.968 79.16C101.499 78.6587 100.939 78.2747 100.288 78.008C99.6373 77.7413 98.9227 77.608 98.144 77.608H97.952C97.1627 77.608 96.4427 77.7413 95.792 78.008C95.1413 78.2747 94.5813 78.6587 94.112 79.16C93.6427 79.6507 93.28 80.2427 93.024 80.936C92.768 81.6187 92.64 82.3867 92.64 83.24V83.56ZM94.816 83.56V83.24C94.816 82.664 94.896 82.1467 95.056 81.688C95.216 81.2187 95.4347 80.824 95.712 80.504C95.9893 80.1733 96.32 79.9227 96.704 79.752C97.088 79.5707 97.5093 79.48 97.968 79.48H98.128C98.5867 79.48 99.008 79.5707 99.392 79.752C99.776 79.9227 100.107 80.1733 100.384 80.504C100.661 80.824 100.88 81.2187 101.04 81.688C101.2 82.1467 101.28 82.664 101.28 83.24V83.56C101.28 84.136 101.2 84.6587 101.04 85.128C100.88 85.5867 100.661 85.9813 100.384 86.312C100.107 86.632 99.776 86.8827 99.392 87.064C99.008 87.2347 98.5867 87.32 98.128 87.32H97.968C97.5093 87.32 97.088 87.2347 96.704 87.064C96.32 86.8827 95.9893 86.632 95.712 86.312C95.4347 85.9813 95.216 85.5867 95.056 85.128C94.896 84.6587 94.816 84.136 94.816 83.56ZM108.35 89.144H108.478C109.032 89.144 109.534 89.048 109.982 88.856C110.43 88.6533 110.819 88.376 111.15 88.024C111.171 88.1947 111.198 88.3707 111.23 88.552C111.272 88.7227 111.32 88.872 111.374 89H112.942V77.48H110.958V81.496C110.638 81.1867 110.27 80.952 109.854 80.792C109.448 80.6213 108.995 80.536 108.494 80.536H108.35C107.806 80.536 107.304 80.6373 106.846 80.84C106.398 81.032 106.008 81.3093 105.678 81.672C105.358 82.024 105.107 82.4507 104.926 82.952C104.755 83.4533 104.67 84.0027 104.67 84.6V85.08C104.67 85.6773 104.755 86.2267 104.926 86.728C105.107 87.2187 105.358 87.6453 105.678 88.008C106.008 88.3707 106.398 88.6533 106.846 88.856C107.304 89.048 107.806 89.144 108.35 89.144ZM108.782 87.56C108.472 87.56 108.19 87.5013 107.934 87.384C107.688 87.2667 107.475 87.096 107.294 86.872C107.123 86.648 106.984 86.3813 106.878 86.072C106.782 85.752 106.734 85.3947 106.734 85V84.616C106.734 84.2427 106.782 83.9013 106.878 83.592C106.984 83.2827 107.123 83.0213 107.294 82.808C107.475 82.584 107.688 82.4133 107.934 82.296C108.19 82.1787 108.472 82.12 108.782 82.12H108.91C109.219 82.12 109.496 82.1787 109.742 82.296C109.998 82.4133 110.216 82.584 110.398 82.808C110.579 83.0213 110.718 83.2827 110.814 83.592C110.91 83.9013 110.958 84.2427 110.958 84.616V85C110.958 85.384 110.91 85.736 110.814 86.056C110.718 86.3653 110.579 86.6373 110.398 86.872C110.227 87.096 110.014 87.2667 109.758 87.384C109.502 87.5013 109.219 87.56 108.91 87.56H108.782ZM118.719 89.144H118.927C119.268 89.144 119.599 89.1067 119.919 89.032C120.239 88.9573 120.543 88.856 120.831 88.728C121.129 88.6 121.401 88.44 121.647 88.248C121.903 88.056 122.127 87.8427 122.319 87.608L121.231 86.408C120.985 86.7067 120.676 86.9627 120.303 87.176C119.94 87.3787 119.508 87.48 119.007 87.48H118.847C118.527 87.48 118.233 87.432 117.967 87.336C117.7 87.24 117.471 87.1067 117.279 86.936C117.097 86.7653 116.948 86.5573 116.831 86.312C116.713 86.056 116.639 85.7733 116.607 85.464V85.448H122.575V84.376C122.575 83.8107 122.484 83.2933 122.303 82.824C122.121 82.3547 121.865 81.9493 121.535 81.608C121.204 81.2667 120.809 81.0053 120.351 80.824C119.892 80.632 119.385 80.536 118.831 80.536H118.671C118.063 80.536 117.513 80.6427 117.023 80.856C116.532 81.0587 116.105 81.3467 115.743 81.72C115.391 82.0827 115.119 82.52 114.927 83.032C114.735 83.544 114.639 84.1093 114.639 84.728V85.048C114.639 85.656 114.735 86.216 114.927 86.728C115.119 87.2293 115.391 87.6613 115.743 88.024C116.105 88.376 116.537 88.6533 117.039 88.856C117.551 89.048 118.111 89.144 118.719 89.144ZM116.639 84.12C116.692 83.8 116.772 83.5173 116.879 83.272C116.996 83.016 117.14 82.8027 117.311 82.632C117.481 82.4613 117.679 82.328 117.903 82.232C118.127 82.136 118.377 82.088 118.655 82.088H118.799C119.076 82.088 119.327 82.136 119.551 82.232C119.775 82.328 119.967 82.4613 120.127 82.632C120.297 82.8027 120.425 83.0107 120.511 83.256C120.607 83.5013 120.66 83.7733 120.671 84.072V84.12H116.639ZM127.253 89.16C127.733 89.16 128.171 89.1013 128.565 88.984C128.96 88.8667 129.291 88.696 129.557 88.472C129.835 88.248 130.048 87.976 130.197 87.656C130.347 87.336 130.421 86.9787 130.421 86.584C130.421 86.1467 130.336 85.784 130.165 85.496C129.995 85.208 129.771 84.9733 129.493 84.792C129.227 84.6 128.923 84.4507 128.581 84.344C128.24 84.2267 127.904 84.1307 127.573 84.056C127.317 83.992 127.072 83.9333 126.837 83.88C126.603 83.816 126.395 83.7467 126.213 83.672C126.043 83.5973 125.904 83.5013 125.797 83.384C125.691 83.2667 125.637 83.1227 125.637 82.952C125.637 82.8133 125.664 82.696 125.717 82.6C125.771 82.504 125.84 82.424 125.925 82.36C126.021 82.2853 126.139 82.232 126.277 82.2C126.427 82.1573 126.592 82.136 126.773 82.136C127.179 82.136 127.584 82.2107 127.989 82.36C128.405 82.5093 128.779 82.7067 129.109 82.952L130.053 81.544C129.616 81.2347 129.12 80.9893 128.565 80.808C128.011 80.616 127.435 80.52 126.837 80.52C126.368 80.52 125.947 80.5787 125.573 80.696C125.211 80.8027 124.896 80.968 124.629 81.192C124.373 81.4053 124.176 81.6667 124.037 81.976C123.899 82.2853 123.829 82.632 123.829 83.016C123.829 83.3893 123.893 83.7093 124.021 83.976C124.149 84.232 124.32 84.4453 124.533 84.616C124.757 84.7867 125.008 84.9253 125.285 85.032C125.563 85.1387 125.845 85.2347 126.133 85.32C126.507 85.4373 126.837 85.5333 127.125 85.608C127.424 85.6827 127.675 85.7627 127.877 85.848C128.091 85.9333 128.251 86.0347 128.357 86.152C128.464 86.2587 128.517 86.4133 128.517 86.616C128.517 86.776 128.491 86.9093 128.437 87.016C128.384 87.1227 128.299 87.2187 128.181 87.304C128.075 87.3787 127.936 87.4373 127.765 87.48C127.605 87.512 127.419 87.528 127.205 87.528C126.971 87.528 126.731 87.5067 126.485 87.464C126.24 87.4107 126 87.3413 125.765 87.256C125.531 87.1707 125.301 87.0693 125.077 86.952C124.864 86.8347 124.672 86.696 124.501 86.536L123.509 87.96C124 88.3547 124.56 88.6533 125.189 88.856C125.829 89.0587 126.517 89.16 127.253 89.16ZM134.251 89.16C134.763 89.16 135.248 89.064 135.707 88.872C136.165 88.6693 136.571 88.392 136.923 88.04C136.944 88.2107 136.971 88.3867 137.003 88.568C137.045 88.7387 137.088 88.8827 137.131 89H139.019C138.944 88.7333 138.875 88.456 138.811 88.168C138.757 87.8693 138.731 87.576 138.731 87.288V83.528C138.731 83.0587 138.656 82.6373 138.507 82.264C138.368 81.8907 138.155 81.576 137.867 81.32C137.589 81.0533 137.248 80.8507 136.843 80.712C136.437 80.5733 135.984 80.504 135.483 80.504H135.339C134.72 80.504 134.117 80.6 133.531 80.792C132.944 80.984 132.395 81.2453 131.883 81.576L132.699 82.984C133.093 82.7067 133.504 82.4987 133.931 82.36C134.368 82.2213 134.795 82.152 135.211 82.152H135.291C135.803 82.152 136.187 82.2747 136.443 82.52C136.709 82.7547 136.843 83.08 136.843 83.496V83.864H136.187C134.587 83.864 133.403 84.088 132.635 84.536C131.867 84.9733 131.483 85.6453 131.483 86.552V86.696C131.483 87.0693 131.552 87.4107 131.691 87.72C131.829 88.0187 132.016 88.2747 132.251 88.488C132.496 88.7013 132.789 88.8667 133.131 88.984C133.472 89.1013 133.845 89.16 134.251 89.16ZM134.667 87.56C134.485 87.56 134.315 87.5333 134.155 87.48C133.995 87.4267 133.856 87.3573 133.739 87.272C133.632 87.1867 133.547 87.08 133.483 86.952C133.429 86.824 133.403 86.68 133.403 86.52V86.44C133.403 85.992 133.637 85.6667 134.107 85.464C134.587 85.2507 135.339 85.144 136.363 85.144H136.843V86.536C136.576 86.856 136.251 87.1067 135.867 87.288C135.493 87.4693 135.093 87.56 134.667 87.56Z" fill="#15141A"/>
<circle cx="116" cy="109" r="6" fill="#025ABB"/>
</svg>
