<svg width="196" height="161" viewBox="0 0 196 161" fill="none" xmlns="http://www.w3.org/2000/svg">
<path d="M3.85347 18.653C10.6276 21.135 11.4448 13.088 17.7512 13.5066C19.9616 17.0721 20.8822 11.5269 23.4766 14.0336C23.6096 18.8056 30.8119 17.5055 33.943 17.0672C50.8979 18.2541 50.0856 0.308328 69.6448 1.50011C76.5567 4.05605 92.7485 8.8232 99.5719 7.41965C103.82 6.13922 97.5632 6.00625 99.1189 4.33677C104.721 -0.804657 107.813 7.44919 113.42 7.7496C113.356 3.75072 115.601 6.59722 116.679 5.57288C116.556 2.91845 125.959 -0.848986 124.226 4.73074C121.543 13.5165 133.354 14.7723 130.666 21.9378C129.932 29.64 134.432 22.7651 134.771 27.4042C135.574 29.9897 140.832 31.7084 138.331 34.7815C135.928 35.0031 135.387 36.8203 136.864 38.6622C136.716 42.2277 138.547 38.4799 140.6 38.7853C147.493 40.7749 149.831 37.7511 154.912 35.8895C174.791 36.5642 143.131 58.0065 174.23 63.3154C179.694 60.7545 177.119 69.6141 178.601 72.2242C185.631 85.3536 191.696 72.963 191.303 79.7492C189.225 80.6554 193.218 85.4471 193.533 86.7817C195.512 90.0173 191.362 88.8994 189.496 89.318C188.472 90.9973 197.254 94.1639 192.336 94.6662C176.026 95.9319 191.805 99.2561 186.168 105.437C182.156 119.255 158.318 102.516 166.333 121.235C167.298 126.431 162.788 119.063 161.474 123.057C161.4 124.5 159.721 126.273 158.899 124.402C161.513 121.092 155.488 122.333 153.942 122.841C140.556 129.184 128.997 132.331 125.752 144.81C124.492 148.302 128.874 148.395 127.928 151.956C123.286 154.778 129.346 157.191 123.562 159.732C114.528 157.59 97.8045 137.127 91.3898 149.089C88.7707 143.52 87.9338 144.642 83.7935 145.908C79.609 143.096 78.0877 141.604 74.1198 142.412C65.1156 135.369 77.0933 135.591 70.3783 132.971C69.3297 130.39 63.5747 133.577 62.9003 128.893C59.5181 120.383 38.2309 118.339 41.1404 110.775C41.6229 102.802 29.1185 95.794 38.9645 89.8646C40.5694 85.1714 35.1147 83.9303 35.7153 79.2814C21.1038 74.4847 35.5085 70.8453 20.2915 66.9302C11.9814 58.9915 24.5696 57.8489 17.9038 51.2055C15.5801 43.7987 9.59863 46.7978 9.07679 39.3122C11.1051 38.6129 12.6805 37.6969 10.9082 35.5744C2.93782 37.82 -1.66031 26.434 3.86333 18.6579L3.85347 18.653Z" fill="white" stroke="#025ABB" stroke-width="2" stroke-linecap="round" stroke-linejoin="round"/>
<path d="M61.312 93H63.408V89.256H65.104C65.712 89.256 66.2613 89.1707 66.752 89C67.2427 88.8293 67.6587 88.5893 68 88.28C68.352 87.96 68.624 87.576 68.816 87.128C69.008 86.6693 69.104 86.1627 69.104 85.608V85.4C69.104 84.8453 69.008 84.344 68.816 83.896C68.624 83.448 68.352 83.0693 68 82.76C67.648 82.4507 67.2267 82.216 66.736 82.056C66.2453 81.8853 65.696 81.8 65.088 81.8H61.312V93ZM63.36 87.528V83.64H64.944C65.264 83.64 65.552 83.6827 65.808 83.768C66.064 83.8427 66.2773 83.9547 66.448 84.104C66.6293 84.2533 66.768 84.4453 66.864 84.68C66.96 84.904 67.008 85.1547 67.008 85.432V85.64C67.008 85.9387 66.9547 86.2053 66.848 86.44C66.752 86.664 66.6133 86.8613 66.432 87.032C66.2507 87.192 66.032 87.3147 65.776 87.4C65.52 87.4853 65.2267 87.528 64.896 87.528H63.36ZM73.9533 93.144H74.1133C74.7106 93.144 75.2599 93.048 75.7613 92.856C76.2626 92.6533 76.6946 92.3707 77.0573 92.008C77.4199 91.6453 77.7026 91.2133 77.9053 90.712C78.1079 90.2107 78.2093 89.6667 78.2093 89.08V88.6C78.2093 88.0027 78.1079 87.4587 77.9053 86.968C77.7026 86.4667 77.4199 86.0347 77.0573 85.672C76.6946 85.3093 76.2626 85.032 75.7613 84.84C75.2599 84.6373 74.7106 84.536 74.1133 84.536H73.9533C73.3453 84.536 72.7906 84.6373 72.2893 84.84C71.7879 85.032 71.3559 85.3093 70.9933 85.672C70.6306 86.0347 70.3479 86.4667 70.1453 86.968C69.9533 87.4587 69.8573 88.0027 69.8573 88.6V89.08C69.8573 89.6667 69.9533 90.2107 70.1453 90.712C70.3479 91.2133 70.6306 91.6453 70.9933 92.008C71.3559 92.3707 71.7879 92.6533 72.2893 92.856C72.7906 93.048 73.3453 93.144 73.9533 93.144ZM73.9533 91.56C73.6439 91.56 73.3613 91.5013 73.1053 91.384C72.8599 91.2667 72.6466 91.096 72.4653 90.872C72.2946 90.6373 72.1559 90.3653 72.0493 90.056C71.9533 89.736 71.9053 89.384 71.9053 89V88.616C71.9053 88.2427 71.9533 87.9013 72.0493 87.592C72.1559 87.2827 72.2999 87.0213 72.4813 86.808C72.6626 86.584 72.8759 86.4133 73.1213 86.296C73.3773 86.1787 73.6546 86.12 73.9533 86.12H74.0973C74.3959 86.12 74.6733 86.1787 74.9293 86.296C75.1853 86.4133 75.3986 86.584 75.5693 86.808C75.7506 87.0213 75.8893 87.2827 75.9853 87.592C76.0919 87.9013 76.1453 88.2427 76.1453 88.616V89C76.1453 89.384 76.0973 89.736 76.0013 90.056C75.9053 90.3653 75.7666 90.6373 75.5853 90.872C75.4039 91.096 75.1853 91.2667 74.9293 91.384C74.6839 91.5013 74.4066 91.56 74.0973 91.56H73.9533ZM79.8856 93H81.8696V81.48H79.8856V93ZM86.7924 93.08C87.0804 93.08 87.411 93.0533 87.7844 93C88.1684 92.9467 88.483 92.8667 88.7284 92.76V91.192C88.6537 91.224 88.5524 91.2507 88.4244 91.272C88.307 91.2933 88.1844 91.3147 88.0564 91.336C87.939 91.3467 87.8164 91.3573 87.6884 91.368C87.5604 91.368 87.4537 91.368 87.3684 91.368C87.0377 91.368 86.787 91.2827 86.6164 91.112C86.4457 90.9413 86.3604 90.6267 86.3604 90.168V86.28H88.6484V84.68H86.3764V82.52L84.3924 82.76V84.696C84.211 84.7067 84.019 84.7387 83.8164 84.792C83.6244 84.8347 83.4537 84.8827 83.3044 84.936V86.28H84.3924V90.552C84.3924 90.9893 84.4457 91.368 84.5524 91.688C84.6697 91.9973 84.8297 92.2587 85.0324 92.472C85.235 92.6747 85.4804 92.8293 85.7684 92.936C86.067 93.032 86.4084 93.08 86.7924 93.08ZM92.5006 93.16C93.0126 93.16 93.498 93.064 93.9566 92.872C94.4153 92.6693 94.8206 92.392 95.1726 92.04C95.194 92.2107 95.2206 92.3867 95.2526 92.568C95.2953 92.7387 95.338 92.8827 95.3806 93H97.2686C97.194 92.7333 97.1246 92.456 97.0606 92.168C97.0073 91.8693 96.9806 91.576 96.9806 91.288V87.528C96.9806 87.0587 96.906 86.6373 96.7566 86.264C96.618 85.8907 96.4046 85.576 96.1166 85.32C95.8393 85.0533 95.498 84.8507 95.0926 84.712C94.6873 84.5733 94.234 84.504 93.7326 84.504H93.5886C92.97 84.504 92.3673 84.6 91.7806 84.792C91.194 84.984 90.6446 85.2453 90.1326 85.576L90.9486 86.984C91.3433 86.7067 91.754 86.4987 92.1806 86.36C92.618 86.2213 93.0446 86.152 93.4606 86.152H93.5406C94.0526 86.152 94.4366 86.2747 94.6926 86.52C94.9593 86.7547 95.0926 87.08 95.0926 87.496V87.864H94.4366C92.8366 87.864 91.6526 88.088 90.8846 88.536C90.1166 88.9733 89.7326 89.6453 89.7326 90.552V90.696C89.7326 91.0693 89.802 91.4107 89.9406 91.72C90.0793 92.0187 90.266 92.2747 90.5006 92.488C90.746 92.7013 91.0393 92.8667 91.3806 92.984C91.722 93.1013 92.0953 93.16 92.5006 93.16ZM92.9166 91.56C92.7353 91.56 92.5646 91.5333 92.4046 91.48C92.2446 91.4267 92.106 91.3573 91.9886 91.272C91.882 91.1867 91.7966 91.08 91.7326 90.952C91.6793 90.824 91.6526 90.68 91.6526 90.52V90.44C91.6526 89.992 91.8873 89.6667 92.3566 89.464C92.8366 89.2507 93.5886 89.144 94.6126 89.144H95.0926V90.536C94.826 90.856 94.5006 91.1067 94.1166 91.288C93.7433 91.4693 93.3433 91.56 92.9166 91.56ZM100.806 93H103.302L106.182 84.68H104.086L102.15 91.176H101.99L100.038 84.68H97.9424L100.806 93ZM109.423 93.16C109.935 93.16 110.42 93.064 110.879 92.872C111.337 92.6693 111.743 92.392 112.095 92.04C112.116 92.2107 112.143 92.3867 112.175 92.568C112.217 92.7387 112.26 92.8827 112.303 93H114.191C114.116 92.7333 114.047 92.456 113.983 92.168C113.929 91.8693 113.903 91.576 113.903 91.288V87.528C113.903 87.0587 113.828 86.6373 113.679 86.264C113.54 85.8907 113.327 85.576 113.039 85.32C112.761 85.0533 112.42 84.8507 112.015 84.712C111.609 84.5733 111.156 84.504 110.655 84.504H110.511C109.892 84.504 109.289 84.6 108.703 84.792C108.116 84.984 107.567 85.2453 107.055 85.576L107.871 86.984C108.265 86.7067 108.676 86.4987 109.103 86.36C109.54 86.2213 109.967 86.152 110.383 86.152H110.463C110.975 86.152 111.359 86.2747 111.615 86.52C111.881 86.7547 112.015 87.08 112.015 87.496V87.864H111.359C109.759 87.864 108.575 88.088 107.807 88.536C107.039 88.9733 106.655 89.6453 106.655 90.552V90.696C106.655 91.0693 106.724 91.4107 106.863 91.72C107.001 92.0187 107.188 92.2747 107.423 92.488C107.668 92.7013 107.961 92.8667 108.303 92.984C108.644 93.1013 109.017 93.16 109.423 93.16ZM109.839 91.56C109.657 91.56 109.487 91.5333 109.327 91.48C109.167 91.4267 109.028 91.3573 108.911 91.272C108.804 91.1867 108.719 91.08 108.655 90.952C108.601 90.824 108.575 90.68 108.575 90.52V90.44C108.575 89.992 108.809 89.6667 109.279 89.464C109.759 89.2507 110.511 89.144 111.535 89.144H112.015V90.536C111.748 90.856 111.423 91.1067 111.039 91.288C110.665 91.4693 110.265 91.56 109.839 91.56Z" fill="#15141A"/>
<circle cx="87" cy="60" r="6" fill="#FCD800"/>
</svg>
