<svg width="153" height="175" viewBox="0 0 153 175" fill="none" xmlns="http://www.w3.org/2000/svg">
<path d="M28.8232 1.91447C56.2149 0.707915 77.4774 9.72018 103.402 17.6244C111.614 18.5502 124.266 11.173 122.469 25.504C124.945 27.8826 129.543 24.1201 126.501 30.2366C125.122 33.4919 128.825 32.2755 130.459 31.6451C134.742 34.2207 137.125 28.8183 140.911 29.2418C144.051 32.108 154.065 30.0544 151.466 36.5846C148.851 45.523 141.093 40.6475 146.08 50.1621C143.756 51.546 142.501 46.1928 140.778 45.7594C137.258 50.0833 144.475 58.0466 135.766 58.1697C140.679 78.1789 116.995 80.6265 125.374 96.0557C122.1 103.96 129.312 107.363 125.575 114.888C124.423 116.912 121.297 120.221 123.483 122.433C127.569 124.073 122.06 129.175 119.555 126.653C118.885 118.936 113.371 128.564 109.905 129.652C107.001 127.988 99.5178 129.381 100.291 133.922C100.212 136.562 96.8397 132.696 96.5984 135.05C94.8015 139.472 91.4293 143.318 87.993 146.539C84.4533 154.414 75.2325 152.286 71.9439 160.24C69.699 161.254 67.3409 164.071 67.7741 159.634C63.4911 156.546 71.8652 150.513 63.4271 154.355C45.6451 147.066 52.1435 160.86 37.1086 160.456C29.5419 166.277 22.0196 157.359 22.9106 164.702C26.3223 167.844 20.4146 168.843 20.8331 173.394C16.3384 174.714 5.47819 168.129 8.56985 159.22C4.16867 154.719 11.8978 155.798 8.74707 150.208C-7.67121 151.927 7.97909 146.618 8.94401 140.969C6.18219 140.216 5.0302 136.355 2.81976 134.656C5.44866 134.414 9.29354 131.292 4.84805 129.032C2.8493 122.807 16.4861 131.903 14.9402 124.476C10.416 115.853 23.1863 126.313 17.7464 118.36C19.046 114.755 17.0867 114.908 21.2762 117.03C26.4946 118.532 31.8804 109.146 36.8575 113.74C39.2797 116.296 36.6754 116.454 41.0372 117.079C51.4691 125.609 40.2101 103.955 54.8118 100.641C49.3177 98.2029 59.3902 94.8344 53.2217 91.5052C52.946 87.9939 60.8524 90.9635 59.9859 86.812C59.4296 81.0205 56.7023 79.6465 51.7645 79.548C50.1054 72.614 57.549 77.3565 58.1644 71.6684C56.2296 63.6116 40.7172 61.4397 44.375 51.147C40.4267 54.6879 40.7517 50.1818 39.4569 50.8368C37.6945 55.599 32.4859 49.842 31.0828 55.7418C28.2422 57.3473 28.6213 34.7772 31.0385 35.4716C34.0219 28.9414 22.6595 32.9058 26.977 20.7959C28.2767 16.5015 35.7006 13.4433 33.7462 8.59241C33.185 7.12977 33.5148 5.37164 35.1739 4.82007C34.9819 3.16043 27.8386 5.64742 28.8035 1.9194L28.8232 1.91447Z" fill="white" stroke="#025ABB" stroke-width="2" stroke-linecap="round" stroke-linejoin="round"/>
<path d="M71.312 88H73.408V83.92H75.232L77.536 88H80.016L77.28 83.504C77.8987 83.2587 78.3787 82.8693 78.72 82.336C79.072 81.792 79.248 81.1467 79.248 80.4V80.24C79.248 79.7067 79.1573 79.232 78.976 78.816C78.8053 78.3893 78.5493 78.0267 78.208 77.728C77.8773 77.4293 77.4667 77.2 76.976 77.04C76.496 76.88 75.952 76.8 75.344 76.8H71.312V88ZM73.36 82.272V78.592H75.056C75.728 78.592 76.2453 78.7467 76.608 79.056C76.9707 79.3547 77.152 79.776 77.152 80.32V80.48C77.152 81.0347 76.9707 81.472 76.608 81.792C76.2453 82.112 75.7227 82.272 75.04 82.272H73.36ZM81.3856 88H83.3696V79.68H81.3856V88ZM82.3616 78.384C82.7136 78.384 82.9963 78.288 83.2096 78.096C83.4336 77.904 83.5456 77.648 83.5456 77.328C83.5456 77.008 83.4336 76.7467 83.2096 76.544C82.9963 76.3413 82.7136 76.24 82.3616 76.24C82.0203 76.24 81.743 76.3413 81.5296 76.544C81.3163 76.7467 81.2096 77.008 81.2096 77.328C81.2096 77.648 81.3163 77.904 81.5296 78.096C81.743 78.288 82.0203 78.384 82.3616 78.384ZM87.5564 88H90.0524L92.9324 79.68H90.8364L88.9004 86.176H88.7404L86.7884 79.68H84.6924L87.5564 88ZM94.261 88H96.245V83.456C96.245 83.1147 96.293 82.8107 96.389 82.544C96.485 82.2773 96.6183 82.048 96.789 81.856C96.9703 81.6533 97.1837 81.504 97.429 81.408C97.6743 81.3013 97.9517 81.248 98.261 81.248H98.357C98.8797 81.248 99.2637 81.4027 99.509 81.712C99.7543 82.0213 99.877 82.48 99.877 83.088V88H101.861V82.672C101.861 81.6587 101.616 80.88 101.125 80.336C100.645 79.792 99.9463 79.52 99.029 79.52H98.933C98.3463 79.52 97.8077 79.6427 97.317 79.888C96.837 80.1227 96.421 80.448 96.069 80.864C96.0477 80.6827 96.0157 80.48 95.973 80.256C95.9303 80.032 95.8823 79.84 95.829 79.68H94.261V88ZM107.5 88.144H107.708C108.049 88.144 108.38 88.1067 108.7 88.032C109.02 87.9573 109.324 87.856 109.612 87.728C109.91 87.6 110.182 87.44 110.428 87.248C110.684 87.056 110.908 86.8427 111.1 86.608L110.012 85.408C109.766 85.7067 109.457 85.9627 109.084 86.176C108.721 86.3787 108.289 86.48 107.788 86.48H107.628C107.308 86.48 107.014 86.432 106.748 86.336C106.481 86.24 106.252 86.1067 106.06 85.936C105.878 85.7653 105.729 85.5573 105.612 85.312C105.494 85.056 105.42 84.7733 105.388 84.464V84.448H111.356V83.376C111.356 82.8107 111.265 82.2933 111.084 81.824C110.902 81.3547 110.646 80.9493 110.316 80.608C109.985 80.2667 109.59 80.0053 109.132 79.824C108.673 79.632 108.166 79.536 107.612 79.536H107.452C106.844 79.536 106.294 79.6427 105.804 79.856C105.313 80.0587 104.886 80.3467 104.524 80.72C104.172 81.0827 103.9 81.52 103.708 82.032C103.516 82.544 103.42 83.1093 103.42 83.728V84.048C103.42 84.656 103.516 85.216 103.708 85.728C103.9 86.2293 104.172 86.6613 104.524 87.024C104.886 87.376 105.318 87.6533 105.82 87.856C106.332 88.048 106.892 88.144 107.5 88.144ZM105.42 83.12C105.473 82.8 105.553 82.5173 105.66 82.272C105.777 82.016 105.921 81.8027 106.092 81.632C106.262 81.4613 106.46 81.328 106.684 81.232C106.908 81.136 107.158 81.088 107.436 81.088H107.58C107.857 81.088 108.108 81.136 108.332 81.232C108.556 81.328 108.748 81.4613 108.908 81.632C109.078 81.8027 109.206 82.0107 109.292 82.256C109.388 82.5013 109.441 82.7733 109.452 83.072V83.12H105.42Z" fill="#15141A"/>
<circle cx="106" cy="58" r="6" fill="#FCD800"/>
</svg>
