<svg width="241" height="150" viewBox="0 0 241 150" fill="none" xmlns="http://www.w3.org/2000/svg">
<path d="M86.5522 149.261C73.8704 149.261 54.9365 140.564 54.3999 134.487C54.2621 132.931 55.1827 130.882 60.3469 129.961L60.4404 129.941L60.5389 129.951C60.5881 129.951 60.6768 129.956 60.79 129.956C60.9623 129.956 61.1444 129.956 61.3364 129.946C61.1051 129.779 60.9328 129.582 60.8048 129.351C60.2731 128.37 60.8835 127.277 61.5284 126.115C62.0651 125.15 62.6706 124.061 62.4441 123.254C61.3266 120.427 60.5635 116.103 62.0749 113.188C62.8035 111.784 63.9555 110.833 65.5112 110.361C67.3671 104.663 66.1216 97.3496 62.3604 92.0309C59.4804 87.9532 55.6701 85.7075 51.6381 85.7075C49.9347 85.7075 48.2018 86.1162 46.4837 86.9141L46.0012 87.1406L45.6369 86.7565C35.8598 76.5081 27.658 71.5292 20.5639 71.5292C17.3836 71.5292 14.932 72.4895 12.7659 73.3317C11.156 73.962 9.76776 74.5037 8.41393 74.5037C5.66195 74.5037 3.71242 72.263 1.68413 66.767L1.58569 66.501L1.68906 66.24C4.6281 58.72 14.8138 55.1741 20.8987 53.0614C21.0612 53.0023 21.2236 52.9482 21.3812 52.894C20.6624 48.0037 27.0624 45.4724 32.7337 43.2267C36.2635 41.8281 39.9163 40.3851 40.5169 38.7649C40.6597 38.3759 40.6154 37.9819 40.3742 37.5289L40.2807 37.3515L40.2905 37.1496C40.3594 35.6476 41.0093 35.3324 41.5459 35.3324C42.24 35.3324 42.8554 35.9332 43.6382 36.6965C44.0468 37.0954 44.8 37.8342 45.1102 37.8785C47.7981 37.8539 50.2104 35.815 52.5439 33.8402C54.8528 31.89 57.2405 29.8709 59.9235 29.8709C60.6964 29.8709 61.4694 30.0383 62.2226 30.3732C62.774 30.1171 63.4238 29.5852 64.0589 29.0681C65.1715 28.1521 66.3235 27.2066 67.5493 27.2066C68.5437 27.2066 69.3757 27.8221 70.0157 29.0386C70.3062 29.0386 70.5129 28.9893 70.6015 28.8958C70.7935 28.6988 70.7689 28.0487 70.7443 27.5267C70.7099 26.6599 70.6705 25.675 71.3253 24.9904C71.7339 24.5669 72.3394 24.3503 73.1221 24.3503C73.1763 24.3503 73.2305 24.3503 73.2896 24.3503C74.4317 24.1976 74.8796 23.9759 75.0323 23.8676C74.663 23.3899 72.7135 22.4542 70.6557 22.4542C70.0649 22.4542 69.0163 22.5478 68.6274 23.1634L67.3524 25.1726L67.2687 22.794C66.8503 10.8318 67.6674 5.15363 70.1831 2.54352C71.2662 1.42068 72.6545 0.874023 74.4317 0.874023C78.8427 0.874023 85.5036 4.32132 95.1379 9.59571C96.6148 9.39872 97.9883 9.29531 99.2092 9.29531C105.934 9.29531 108.209 12.2403 110.616 15.3528C112.304 17.5344 114.042 19.785 117.547 21.3511C119.113 19.6077 121.191 18.6917 123.593 18.6917C127.029 18.6917 130.672 20.637 132.868 23.646C134.803 26.2955 135.369 29.3685 134.468 32.3135C134.448 34.4459 135.704 35.096 138.081 36.14C139.952 36.9576 142.271 37.977 143.851 40.4344C148.297 43.1578 152.59 49.4073 157.134 56.0212C163.593 65.4274 170.273 75.1488 177.663 75.1488C182.738 75.1488 187.73 70.5541 192.924 61.0937L193.111 60.7539L193.5 60.7145C193.672 60.6997 193.825 60.6898 193.968 60.6898C194.667 60.6898 195.179 60.8967 195.484 61.3054C195.986 61.9752 195.72 62.8617 195.469 63.7186C195.262 64.4228 195.026 65.2206 195.307 65.5851C197.389 67.6584 199.245 68.6679 200.968 68.6679C203.169 68.6679 205.094 67.0871 207.329 65.2501C210.15 62.9355 213.35 60.3106 217.982 60.3106C218.745 60.3106 219.538 60.3845 220.33 60.5273L220.705 60.5963L220.867 60.9361C221.143 61.5123 221.221 62.0442 221.221 62.4923C221.438 62.3593 222.472 61.7142 222.472 61.7142L222.841 61.8964C225.096 63.0143 226.017 63.3739 226.632 63.3739C226.863 63.3739 227.1 63.3295 227.424 63.2655C228.05 63.1423 228.906 62.97 230.501 62.97C230.688 62.97 230.885 62.97 231.092 62.9749L231.447 62.9848L231.663 63.2704C231.919 63.6053 232.141 63.9057 232.338 64.1667C232.83 64.8316 233.342 65.5161 233.514 65.5604C233.687 65.5604 234.164 65.3043 234.666 65.0335C235.035 64.8365 235.483 64.5952 236.04 64.3243L236.379 64.1569L236.709 64.3342C239.328 65.718 240.333 68.8009 239.791 70.9825C239.422 72.4747 238.373 73.371 236.985 73.371C236.084 73.371 235.08 72.9967 233.997 72.2531C232.111 72.6077 229.728 75.5872 228.34 79.3645C226.888 83.319 226.455 88.6328 229.581 91.6812L229.842 91.9373L229.797 92.2968C229.379 95.8574 225.426 96.1479 222.255 96.3843C220.749 96.4976 219.321 96.601 218.406 96.9852C217.8 98.7827 216.678 99.6938 215.063 99.6938C213.561 99.6938 211.858 98.8812 210.214 98.0932C208.761 97.3988 207.26 96.6848 206.172 96.6848C205.453 96.6848 204.67 96.9556 204.296 98.9551L204.232 99.3047L203.917 99.4721C202.017 100.467 200.313 100.954 198.699 100.954C195.208 100.954 192.855 98.7088 190.359 96.3252C188.035 94.1091 185.633 91.8191 182.064 91.0656L181.951 91.041L181.847 90.9819C181.301 90.6716 180.518 90.5042 179.573 90.5042C175.624 90.5042 170.377 93.1832 169.717 95.5373C169.623 95.8771 169.333 96.9162 171.263 98.0932L171.893 98.4773L171.509 99.1077C170.751 100.354 169.525 100.373 168.629 100.383C168.048 100.393 167.684 100.413 167.541 100.59C167.398 100.772 167.132 101.462 167.708 104.008L168.161 106.012L166.537 104.756C165.389 103.87 164.233 103.422 163.095 103.422C158.182 103.422 153.894 111.617 151.329 116.517L151.137 116.886L150.694 116.95C150.581 116.955 150.468 116.96 150.364 116.96C148.188 116.96 147.297 115.679 146.588 114.655C145.939 113.719 145.471 113.045 144.171 113.045C143.999 113.045 143.817 113.055 143.62 113.079C141.139 114.823 138.273 114.951 135.502 115.079C132.228 115.226 129.131 115.369 126.655 118.043L126.498 118.211L126.271 118.26C116.021 120.506 113.639 125.155 111.123 130.084C109.39 133.477 107.598 136.979 103.261 139.801L103.202 139.84L103.138 139.865C102.202 140.254 101.513 140.52 100.991 140.722C100.089 141.07 99.4915 141.5 99.1994 142.012C98.8794 142.573 98.3969 143.425 97.3828 144.849C95.5761 147.705 91.8198 149.232 86.5472 149.232L86.5522 149.261Z" fill="white"/>
<path d="M74.4415 1.63254C78.6162 1.63254 85.1491 4.98137 95.005 10.3789C96.5902 10.1573 97.9834 10.0538 99.2191 10.0538C110.389 10.0538 108.435 18.4505 117.769 22.2671C119.325 20.2972 121.427 19.4551 123.603 19.4551C129.456 19.4551 135.866 25.5471 133.744 32.2201C133.606 37.4206 140.159 35.825 143.329 41.0008C153.993 47.3341 164.508 75.9172 177.672 75.9172C182.561 75.9172 187.819 71.9725 193.579 61.4779C193.721 61.4632 193.854 61.4582 193.973 61.4582C196.523 61.4582 193.505 64.6346 194.76 66.1071C197.177 68.5203 199.176 69.4313 200.968 69.4313C206.413 69.4313 210.007 61.0741 217.982 61.0741C218.686 61.0741 219.425 61.1381 220.197 61.2809C220.857 62.6599 220.109 63.7532 220.453 63.7532C220.65 63.7532 221.187 63.4133 222.506 62.5909C224.983 63.8221 225.884 64.1471 226.622 64.1471C227.449 64.1471 228.079 63.7433 230.492 63.7433C230.674 63.7433 230.866 63.7433 231.068 63.7482C232.48 65.6049 232.879 66.3288 233.509 66.3288C234.041 66.3288 234.74 65.8067 236.355 65.0188C239.968 66.9296 240.062 72.662 236.975 72.662C236.227 72.662 235.291 72.3271 234.179 71.5145C229.34 71.8444 222.757 86.1016 229.059 92.2378C228.522 96.8129 220.695 94.9021 217.79 96.4928C217.254 98.3494 216.269 98.9847 215.058 98.9847C212.419 98.9847 208.702 95.9757 206.167 95.9757C204.926 95.9757 203.971 96.6996 203.568 98.8517C201.687 99.8366 200.097 100.245 198.694 100.245C192.397 100.245 189.867 91.9916 182.211 90.3713C181.517 89.9724 180.602 89.7952 179.573 89.7952C173.926 89.7952 164.902 95.1188 170.879 98.7483C169.392 101.186 165.38 97.0985 166.985 104.2C165.641 103.161 164.341 102.713 163.095 102.713C157.719 102.713 153.362 111.075 150.655 116.246C150.556 116.251 150.458 116.256 150.364 116.256C146.82 116.256 147.573 112.336 144.166 112.336C143.91 112.336 143.635 112.355 143.334 112.405C138.19 116.177 131.032 112.267 126.114 117.571C108.46 121.432 113.289 132.429 102.857 139.21C97.5059 141.431 100.189 139.668 96.7822 144.445C94.9361 147.355 91.1355 148.518 86.5521 148.518C70.1634 148.518 43.7268 133.679 60.4798 130.685C60.5438 130.69 60.6521 130.695 60.7949 130.695C62.0454 130.695 65.8705 130.483 63.7782 129.853C58.2546 129.464 64.0047 125.834 63.1481 123.012C61.5727 119.053 60.7654 112.262 66.0921 110.972C69.9813 99.9697 62.3899 84.9738 51.6479 84.9738C49.8953 84.9738 48.0639 85.3727 46.1834 86.2493C34.3632 73.8636 26.3583 70.7906 20.5738 70.7906C14.7892 70.7906 11.3382 73.7651 8.42378 73.7651C6.27242 73.7651 4.46566 72.1449 2.38815 66.511C5.38627 58.8333 16.6797 55.3417 22.2476 53.3767C19.8698 44.5319 44.3569 43.4681 41.0388 37.1842C41.0782 36.3765 41.2652 36.0712 41.5557 36.0712C42.3828 36.0712 44.0025 38.5434 45.0855 38.6173C50.8307 38.6025 54.9365 30.6047 59.9334 30.6097C60.6669 30.6097 61.4201 30.782 62.198 31.176C63.8816 30.654 65.841 27.9454 67.5542 27.9454C68.273 27.9454 68.9523 28.4231 69.548 29.7478C69.7203 29.7675 69.8779 29.7774 70.0256 29.7774C73.2009 29.7774 69.7203 25.0891 73.132 25.0891C73.196 25.0891 73.2649 25.0891 73.3338 25.094C78.7738 24.3848 74.1363 21.7254 70.6705 21.7254C69.5185 21.7254 68.4994 22.0209 68.017 22.7744C67.4853 7.63084 68.8539 1.62268 74.4415 1.62268M74.4415 0.145264C72.4822 0.145264 70.8773 0.780538 69.6613 2.03635C66.9487 4.84344 66.1019 10.4773 66.5351 22.8236L66.668 26.5911C65.5505 26.8915 64.561 27.7041 63.5961 28.4969C63.1284 28.8811 62.6164 29.3046 62.193 29.5607C61.4546 29.2751 60.6965 29.1322 59.9334 29.1322C56.9796 29.1322 54.4885 31.2401 52.0811 33.274C49.8904 35.1257 47.6307 37.0364 45.2677 37.1349C44.9969 36.9774 44.4849 36.475 44.1699 36.1648C43.3034 35.3227 42.56 34.5888 41.5656 34.5888C41.1274 34.5888 39.6801 34.771 39.5718 37.1103L39.5521 37.5142L39.7391 37.8687C39.9361 38.243 39.877 38.4154 39.8425 38.504C39.36 39.814 35.5447 41.3209 32.4826 42.5324C27.0476 44.6845 20.3867 47.3193 20.6083 52.377C14.3954 54.5389 4.06688 58.1537 1.0146 65.9644L0.812744 66.4864L1.00475 67.0133C3.15611 72.8491 5.30751 75.2327 8.42871 75.2327C9.92038 75.2327 11.3727 74.6664 13.0514 74.0114C15.1536 73.1889 17.5412 72.2581 20.5787 72.2581C27.4611 72.2581 35.4856 77.1632 45.12 87.2589L45.8535 88.0271L46.8135 87.579C48.4332 86.8255 50.0627 86.4414 51.6578 86.4414C55.4436 86.4414 59.0374 88.5738 61.7746 92.4495C65.329 97.4777 66.5597 104.338 64.9351 109.77C63.3844 110.336 62.1832 111.385 61.4349 112.838C59.8201 115.96 60.5389 120.358 61.7549 123.47C61.873 123.992 61.3118 125.002 60.8983 125.746C60.2927 126.839 59.6085 128.06 59.9925 129.262C54.4885 130.311 53.5187 132.699 53.6811 134.536C54.0799 139.042 62.2374 143.238 65.7278 144.834C72.7825 148.06 80.5756 149.985 86.5719 149.985C92.0856 149.985 96.0487 148.35 98.0277 145.262C99.0517 143.829 99.5391 142.967 99.864 142.396C99.9822 142.184 100.12 141.948 100.169 141.894C100.263 141.825 100.755 141.633 101.277 141.431C101.794 141.234 102.498 140.958 103.443 140.569L103.566 140.515L103.679 140.441C108.184 137.516 110.02 133.921 111.797 130.444C114.338 125.47 116.538 121.176 126.448 119.009L126.901 118.91L127.216 118.57C129.486 116.123 132.297 115.995 135.556 115.842C138.377 115.714 141.286 115.581 143.9 113.818C143.999 113.808 144.097 113.803 144.191 113.803C145.062 113.803 145.333 114.138 146.003 115.098C146.726 116.142 147.824 117.723 150.389 117.723C150.507 117.723 150.635 117.723 150.763 117.713L151.6 117.664L151.989 116.921L152.014 116.876C154.5 112.129 158.66 104.18 163.125 104.18C164.109 104.18 165.084 104.564 166.113 105.362L169.362 107.874L168.456 103.865C168.073 102.166 168.102 101.432 168.146 101.161C168.299 101.147 168.511 101.142 168.668 101.142C169.613 101.127 171.199 101.102 172.168 99.5117L172.941 98.246L171.676 97.4777C170.224 96.5962 170.401 95.9609 170.46 95.7541C170.977 93.8975 175.797 91.2627 179.602 91.2627C180.419 91.2627 181.074 91.3957 181.507 91.6419L181.709 91.7552L181.936 91.8044C185.303 92.5185 187.627 94.7346 189.877 96.8769C192.368 99.2506 194.942 101.708 198.728 101.708C200.461 101.708 202.283 101.196 204.291 100.142L204.926 99.8121L205.059 99.1078C205.374 97.4383 205.896 97.4383 206.211 97.4383C207.132 97.4383 208.555 98.118 209.933 98.7779C211.656 99.6003 213.433 100.447 215.102 100.447C216.407 100.447 218.095 99.9302 219.021 97.5811C219.848 97.3251 221.118 97.2315 222.349 97.1379C225.613 96.8966 230.083 96.5617 230.57 92.3954L230.654 91.6715L230.132 91.1642C227.257 88.362 227.695 83.3733 229.069 79.6354C230.393 76.0256 232.485 73.573 233.903 73.0707C235.006 73.77 236.055 74.1246 237.019 74.1246C238.743 74.1246 240.091 72.9969 240.544 71.1796C241.155 68.7222 240.027 65.2502 237.088 63.6989L236.424 63.3493L235.749 63.6793C235.183 63.96 234.72 64.2062 234.351 64.4032C234.135 64.5214 233.903 64.6445 233.721 64.7332C233.524 64.4968 233.239 64.1176 232.963 63.7433C232.766 63.4774 232.544 63.1769 232.288 62.842L231.86 62.2757L231.151 62.261C230.935 62.256 230.733 62.2511 230.541 62.2511C228.877 62.2511 227.941 62.4382 227.321 62.5564C227.026 62.6155 226.834 62.6549 226.671 62.6549C226.204 62.6549 225.268 62.2757 223.21 61.2563L222.472 60.8919L221.827 61.2957C221.763 61.0839 221.684 60.8672 221.576 60.6407L221.251 59.9561L220.508 59.8182C219.671 59.6656 218.834 59.5868 218.026 59.5868C213.133 59.5868 209.825 62.3003 206.905 64.6937C204.779 66.4371 202.947 67.9441 201.012 67.9441C199.516 67.9441 197.862 67.033 195.957 65.1616C195.932 64.9105 196.119 64.285 196.217 63.9403C196.493 63.0046 196.838 61.8423 196.119 60.8771C195.666 60.2713 194.962 59.966 194.012 59.966C193.84 59.966 193.667 59.9759 193.47 59.9956L192.697 60.0743L192.323 60.754C187.341 69.8253 182.423 74.425 177.712 74.425C170.711 74.425 164.144 64.8612 157.788 55.6175C153.249 49.0085 148.956 42.759 144.427 39.9076C142.739 37.3615 140.356 36.3174 138.426 35.4753C136.088 34.451 135.275 33.9634 135.256 32.4367C136.181 29.2947 135.566 26.0346 133.513 23.2275C131.179 20.0313 127.305 17.9679 123.637 17.9679C121.245 17.9679 119.079 18.8494 117.424 20.4697C114.392 18.9873 112.792 16.9189 111.241 14.9145C108.829 11.7972 106.333 8.57148 99.2486 8.57148C98.0573 8.57148 96.7379 8.66502 95.3201 8.84723C85.7005 3.58762 79.0248 0.150193 74.471 0.150193L74.4415 0.145264ZM67.4114 26.4778L69.2625 23.5673C69.3757 23.39 69.8631 23.2028 70.6705 23.2028C71.5222 23.2028 72.364 23.3851 73.0385 23.6166C72.0883 23.6363 71.34 23.9268 70.8034 24.4833C69.9271 25.3943 69.9813 26.6452 70.0157 27.5612C70.0157 27.6055 70.0157 27.6548 70.0207 27.7041C69.3413 26.8866 68.5142 26.4778 67.5542 26.4778C67.505 26.4778 67.4557 26.4778 67.4114 26.4778Z" fill="#FCD800"/>
<path d="M75.72 75.176C76.3387 75.176 76.8987 75.096 77.4 74.936C77.9013 74.776 78.328 74.552 78.68 74.264C79.032 73.976 79.2987 73.624 79.48 73.208C79.672 72.792 79.768 72.328 79.768 71.816C79.768 71.2827 79.672 70.8347 79.48 70.472C79.288 70.1093 79.0373 69.8053 78.728 69.56C78.4187 69.304 78.072 69.096 77.688 68.936C77.304 68.776 76.9147 68.6373 76.52 68.52C76.136 68.4133 75.7787 68.312 75.448 68.216C75.1173 68.1093 74.8293 67.992 74.584 67.864C74.3493 67.736 74.1627 67.592 74.024 67.432C73.896 67.2613 73.832 67.0427 73.832 66.776C73.832 66.5947 73.864 66.4293 73.928 66.28C73.992 66.12 74.0933 65.9867 74.232 65.88C74.3707 65.7733 74.5413 65.6933 74.744 65.64C74.9467 65.576 75.176 65.544 75.432 65.544C75.88 65.544 76.36 65.6347 76.872 65.816C77.384 65.9973 77.832 66.2747 78.216 66.648L79.352 65C78.808 64.552 78.2053 64.2107 77.544 63.976C76.8933 63.7307 76.1893 63.608 75.432 63.608C74.8987 63.608 74.408 63.688 73.96 63.848C73.512 63.9973 73.1227 64.216 72.792 64.504C72.472 64.7813 72.2213 65.112 72.04 65.496C71.8587 65.88 71.768 66.3067 71.768 66.776C71.768 67.2347 71.832 67.6293 71.96 67.96C72.0987 68.28 72.2747 68.5627 72.488 68.808C72.712 69.0427 72.968 69.24 73.256 69.4C73.5547 69.5493 73.8693 69.688 74.2 69.816C74.7013 69.9867 75.16 70.136 75.576 70.264C76.0027 70.3813 76.3653 70.5147 76.664 70.664C76.9733 70.8027 77.2133 70.968 77.384 71.16C77.5653 71.3413 77.656 71.5973 77.656 71.928C77.656 72.1413 77.6133 72.3333 77.528 72.504C77.4533 72.664 77.336 72.7973 77.176 72.904C77.0267 73.0107 76.84 73.096 76.616 73.16C76.392 73.2133 76.1307 73.24 75.832 73.24C75.5653 73.24 75.2827 73.2133 74.984 73.16C74.696 73.1067 74.408 73.0267 74.12 72.92C73.8427 72.8133 73.576 72.6853 73.32 72.536C73.064 72.376 72.8293 72.184 72.616 71.96L71.448 73.624C71.7253 73.8587 72.0293 74.0773 72.36 74.28C72.6907 74.472 73.0373 74.6373 73.4 74.776C73.7733 74.904 74.152 75 74.536 75.064C74.9307 75.1387 75.3253 75.176 75.72 75.176ZM81.4325 75H83.4165V66.68H81.4325V75ZM82.4085 65.384C82.7605 65.384 83.0432 65.288 83.2565 65.096C83.4805 64.904 83.5925 64.648 83.5925 64.328C83.5925 64.008 83.4805 63.7467 83.2565 63.544C83.0432 63.3413 82.7605 63.24 82.4085 63.24C82.0672 63.24 81.7898 63.3413 81.5765 63.544C81.3632 63.7467 81.2565 64.008 81.2565 64.328C81.2565 64.648 81.3632 64.904 81.5765 65.096C81.7898 65.288 82.0672 65.384 82.4085 65.384ZM85.6673 75H87.6513V70.264C87.6513 69.9333 87.6886 69.6453 87.7633 69.4C87.8379 69.144 87.9499 68.936 88.0993 68.776C88.2486 68.6053 88.4246 68.4773 88.6273 68.392C88.8406 68.296 89.0806 68.248 89.3473 68.248H89.4113C89.6353 68.248 89.8273 68.2853 89.9873 68.36C90.1579 68.424 90.2966 68.5253 90.4033 68.664C90.5099 68.8027 90.5899 68.9787 90.6433 69.192C90.7073 69.3947 90.7393 69.64 90.7393 69.928V75H92.7233V70.264C92.7233 69.9333 92.7606 69.6453 92.8353 69.4C92.9206 69.144 93.0379 68.9307 93.1873 68.76C93.3366 68.5893 93.5179 68.4613 93.7313 68.376C93.9446 68.2907 94.1793 68.248 94.4353 68.248H94.4993C94.7233 68.248 94.9153 68.28 95.0753 68.344C95.2459 68.408 95.3846 68.5093 95.4913 68.648C95.5979 68.7867 95.6779 68.9627 95.7313 69.176C95.7846 69.3893 95.8113 69.64 95.8113 69.928V75H97.7953V69.576C97.7953 68.584 97.5713 67.8267 97.1233 67.304C96.6859 66.7813 96.0406 66.52 95.1873 66.52H95.1073C94.5526 66.52 94.0406 66.6427 93.5712 66.888C93.1126 67.1333 92.7233 67.4747 92.4033 67.912C92.2006 67.4533 91.9073 67.1067 91.5233 66.872C91.1393 66.6373 90.6646 66.52 90.0993 66.52H90.0193C89.4966 66.52 89.0166 66.632 88.5793 66.856C88.1526 67.0693 87.7793 67.368 87.4593 67.752C87.4379 67.5707 87.4059 67.384 87.3633 67.192C87.3206 66.9893 87.2779 66.8187 87.2353 66.68H85.6673V75ZM100.126 75H102.11V68.312H106.318V66.76H102.03V66.392C102.03 65.9333 102.11 65.608 102.27 65.416C102.43 65.224 102.68 65.128 103.022 65.128C103.203 65.128 103.395 65.1493 103.598 65.192C103.8 65.2347 104.003 65.304 104.206 65.4V63.848C104.088 63.7947 103.955 63.7467 103.806 63.704C103.667 63.6613 103.523 63.6293 103.374 63.608C103.224 63.576 103.07 63.5547 102.91 63.544C102.75 63.5227 102.606 63.512 102.478 63.512C101.731 63.512 101.15 63.752 100.734 64.232C100.328 64.712 100.126 65.384 100.126 66.248V66.792C99.9656 66.8133 99.7896 66.8453 99.5976 66.888C99.4163 66.9307 99.2563 66.9787 99.1176 67.032V68.312H100.126V75ZM104.814 75H106.798V66.808H104.814V75ZM105.79 65.384C106.142 65.384 106.424 65.288 106.638 65.096C106.862 64.904 106.974 64.648 106.974 64.328C106.974 64.008 106.862 63.7467 106.638 63.544C106.424 63.3413 106.142 63.24 105.79 63.24C105.448 63.24 105.171 63.3413 104.958 63.544C104.744 63.7467 104.638 64.008 104.638 64.328C104.638 64.648 104.744 64.904 104.958 65.096C105.171 65.288 105.448 65.384 105.79 65.384ZM109.042 75H111.026V70.6C111.026 70.2587 111.063 69.96 111.138 69.704C111.223 69.4373 111.346 69.2187 111.506 69.048C111.677 68.8667 111.879 68.7333 112.114 68.648C112.349 68.5627 112.626 68.52 112.946 68.52C113.053 68.52 113.159 68.5253 113.266 68.536C113.383 68.5467 113.479 68.5627 113.554 68.584V66.68H113.346C112.823 66.68 112.349 66.7813 111.922 66.984C111.506 67.176 111.149 67.448 110.85 67.8C110.829 67.6187 110.791 67.4267 110.738 67.224C110.695 67.0213 110.647 66.84 110.594 66.68H109.042V75ZM118.516 75.144H118.676C119.273 75.144 119.822 75.048 120.324 74.856C120.825 74.6533 121.257 74.3707 121.62 74.008C121.982 73.6453 122.265 73.2133 122.468 72.712C122.67 72.2107 122.772 71.6667 122.772 71.08V70.6C122.772 70.0027 122.67 69.4587 122.468 68.968C122.265 68.4667 121.982 68.0347 121.62 67.672C121.257 67.3093 120.825 67.032 120.324 66.84C119.822 66.6373 119.273 66.536 118.676 66.536H118.516C117.908 66.536 117.353 66.6373 116.852 66.84C116.35 67.032 115.918 67.3093 115.556 67.672C115.193 68.0347 114.91 68.4667 114.708 68.968C114.516 69.4587 114.42 70.0027 114.42 70.6V71.08C114.42 71.6667 114.516 72.2107 114.708 72.712C114.91 73.2133 115.193 73.6453 115.556 74.008C115.918 74.3707 116.35 74.6533 116.852 74.856C117.353 75.048 117.908 75.144 118.516 75.144ZM118.516 73.56C118.206 73.56 117.924 73.5013 117.668 73.384C117.422 73.2667 117.209 73.096 117.028 72.872C116.857 72.6373 116.718 72.3653 116.612 72.056C116.516 71.736 116.468 71.384 116.468 71V70.616C116.468 70.2427 116.516 69.9013 116.612 69.592C116.718 69.2827 116.862 69.0213 117.044 68.808C117.225 68.584 117.438 68.4133 117.684 68.296C117.94 68.1787 118.217 68.12 118.516 68.12H118.66C118.958 68.12 119.236 68.1787 119.492 68.296C119.748 68.4133 119.961 68.584 120.132 68.808C120.313 69.0213 120.452 69.2827 120.548 69.592C120.654 69.9013 120.708 70.2427 120.708 70.616V71C120.708 71.384 120.66 71.736 120.564 72.056C120.468 72.3653 120.329 72.6373 120.148 72.872C119.966 73.096 119.748 73.2667 119.492 73.384C119.246 73.5013 118.969 73.56 118.66 73.56H118.516ZM124.448 78.2H126.432V74.184C126.752 74.4933 127.115 74.7333 127.52 74.904C127.936 75.064 128.395 75.144 128.896 75.144H129.04C129.584 75.144 130.08 75.048 130.528 74.856C130.987 74.6533 131.376 74.3707 131.696 74.008C132.027 73.6453 132.277 73.2187 132.448 72.728C132.629 72.2267 132.72 71.6773 132.72 71.08V70.6C132.72 70.0027 132.629 69.4587 132.448 68.968C132.277 68.4667 132.027 68.0347 131.696 67.672C131.376 67.3093 130.987 67.032 130.528 66.84C130.08 66.6373 129.584 66.536 129.04 66.536H128.896C128.352 66.536 127.851 66.6373 127.392 66.84C126.944 67.032 126.56 67.3093 126.24 67.672C126.219 67.5013 126.187 67.3253 126.144 67.144C126.112 66.9627 126.069 66.808 126.016 66.68H124.448V78.2ZM128.48 73.56C128.171 73.56 127.888 73.5013 127.632 73.384C127.387 73.2667 127.173 73.096 126.992 72.872C126.821 72.648 126.683 72.3813 126.576 72.072C126.48 71.752 126.432 71.3947 126.432 71V70.616C126.432 70.2427 126.48 69.9013 126.576 69.592C126.672 69.2827 126.811 69.0213 126.992 68.808C127.173 68.584 127.387 68.4133 127.632 68.296C127.888 68.1787 128.171 68.12 128.48 68.12H128.608C128.917 68.12 129.195 68.1787 129.44 68.296C129.696 68.4133 129.915 68.584 130.096 68.808C130.277 69.0213 130.416 69.2827 130.512 69.592C130.608 69.9013 130.656 70.2427 130.656 70.616V71C130.656 71.3947 130.608 71.752 130.512 72.072C130.416 72.3813 130.277 72.648 130.096 72.872C129.915 73.096 129.696 73.2667 129.44 73.384C129.195 73.5013 128.917 73.56 128.608 73.56H128.48ZM137.969 75.144H138.129C138.726 75.144 139.276 75.048 139.777 74.856C140.278 74.6533 140.71 74.3707 141.073 74.008C141.436 73.6453 141.718 73.2133 141.921 72.712C142.124 72.2107 142.225 71.6667 142.225 71.08V70.6C142.225 70.0027 142.124 69.4587 141.921 68.968C141.718 68.4667 141.436 68.0347 141.073 67.672C140.71 67.3093 140.278 67.032 139.777 66.84C139.276 66.6373 138.726 66.536 138.129 66.536H137.969C137.361 66.536 136.806 66.6373 136.305 66.84C135.804 67.032 135.372 67.3093 135.009 67.672C134.646 68.0347 134.364 68.4667 134.161 68.968C133.969 69.4587 133.873 70.0027 133.873 70.6V71.08C133.873 71.6667 133.969 72.2107 134.161 72.712C134.364 73.2133 134.646 73.6453 135.009 74.008C135.372 74.3707 135.804 74.6533 136.305 74.856C136.806 75.048 137.361 75.144 137.969 75.144ZM137.969 73.56C137.66 73.56 137.377 73.5013 137.121 73.384C136.876 73.2667 136.662 73.096 136.481 72.872C136.31 72.6373 136.172 72.3653 136.065 72.056C135.969 71.736 135.921 71.384 135.921 71V70.616C135.921 70.2427 135.969 69.9013 136.065 69.592C136.172 69.2827 136.316 69.0213 136.497 68.808C136.678 68.584 136.892 68.4133 137.137 68.296C137.393 68.1787 137.67 68.12 137.969 68.12H138.113C138.412 68.12 138.689 68.1787 138.945 68.296C139.201 68.4133 139.414 68.584 139.585 68.808C139.766 69.0213 139.905 69.2827 140.001 69.592C140.108 69.9013 140.161 70.2427 140.161 70.616V71C140.161 71.384 140.113 71.736 140.017 72.056C139.921 72.3653 139.782 72.6373 139.601 72.872C139.42 73.096 139.201 73.2667 138.945 73.384C138.7 73.5013 138.422 73.56 138.113 73.56H137.969ZM143.901 75H145.885V63.48H143.901V75Z" fill="#15141A"/>
<circle cx="88" cy="92" r="6" fill="#025ABB"/>
</svg>
