<svg width="159" height="207" viewBox="0 0 159 207" fill="none" xmlns="http://www.w3.org/2000/svg">
<path d="M26.8085 2.41808C28.0688 3.63449 29.5506 2.62985 30.5008 1.63505C33.7844 0.305373 31.0817 6.56964 33.0558 7.72203C66.7096 -13.9419 53.6341 32.3949 84.5507 55.0093C87.9476 66.8041 63.9429 58.4025 66.1779 68.3209C72.7846 71.3988 76.0978 85.2374 71.608 90.2409C75.9797 96.4855 78.4067 89.6795 78.6184 95.6827C77.6338 98.9133 74.4634 101.868 71.613 103.503C74.4289 105.02 77.9686 106.542 80.2282 103.301C84.7624 101.523 89.3752 106.709 93.9881 104.616C98.1333 104.193 95.9032 110.314 99.5068 110.9C110.436 112.555 118.16 101.716 123.708 109.492C124.668 113.126 124.26 122.966 129.828 122.601C134.746 119.445 143.179 125.251 133.914 126.802C135.977 134.47 140.151 142.345 143.553 150.16C142.534 159.202 148.274 153.11 139.506 159.143C140.58 162.891 140.969 174.602 146.679 174.434C152.095 176.389 149.008 187.761 157.535 185.19C158.002 190.267 144.813 184.791 146.886 188.563C143.824 189.927 140.865 181.575 139.743 189.839C137.586 188.627 135.125 188.145 135.661 191.247C132.846 190.937 132.009 191.503 132.476 194.414C128.971 197.255 125.225 190.691 123.546 197.063C118.352 195.492 121.749 201.968 118.332 200.181C114.911 196.694 117.471 201.496 112.809 202.879C104.228 199.521 105.006 205.386 101.875 202.687C99.8662 201.55 100.723 205.268 99.1819 205.588C94.5149 203.889 85.5648 208.627 87.3469 201.358C93.5549 200.171 87.0565 196 85.7617 193.419C85.7519 189.42 83.4922 193.158 82.2812 191.912C82.3402 184.737 81.2129 182.476 75.7385 177.005C74.2222 171.824 77.6437 164.161 69.5157 169.559C66.9902 170.199 68.093 169.967 67.4727 171.809C62.3675 171.115 64.9373 177.955 56.0365 168.525C54.8254 168.071 49.5627 169.628 49.9615 171.213C55.7018 174.183 42.6804 175.124 40.7407 172.548C38.294 171.45 21.6196 169.77 20.1969 167.116C13.6542 167.293 19.2221 171.076 9.54836 169.042C4.92072 167.786 11.4142 161.443 9.82408 156.508C17.3415 145.925 6.75704 147.895 12.965 135.997C15.5299 134.174 14.9194 128.994 12.7976 127.103C12.6105 125.157 18.6905 121.08 13.8364 120.695C12.9896 124.625 9.38099 124.192 6.72748 122.005C5.71333 120.627 10.4296 118.499 5.49672 119.336C-1.6269 117.686 2.73982 115.48 1.8586 109.95C4.45303 108.28 6.20073 109.457 5.69858 105.281C7.75641 103.375 8.33239 104.601 7.65794 101.253C9.189 98.2633 5.9841 100.839 7.10163 95.5744C5.20134 95.0277 2.49862 91.5952 5.15213 90.0144C12.0444 98.6868 11.0106 84.6218 10.8973 79.8202C12.2807 79.2981 13.3342 82.3022 14.6142 79.1011C10.1982 75.0235 14.4468 74.8166 13.9545 72.7827C-0.858877 34.9263 16.8689 54.8813 25.2332 33.5621C23.9483 24.412 31.0226 35.5813 31.6035 26.5936C16.8689 18.586 23.5052 15.4342 26.8085 2.43286V2.41808Z" fill="white" stroke="#025ABB" stroke-width="2" stroke-linecap="round" stroke-linejoin="round"/>
<path d="M36.72 150.176C37.3387 150.176 37.8987 150.096 38.4 149.936C38.9013 149.776 39.328 149.552 39.68 149.264C40.032 148.976 40.2987 148.624 40.48 148.208C40.672 147.792 40.768 147.328 40.768 146.816C40.768 146.283 40.672 145.835 40.48 145.472C40.288 145.109 40.0373 144.805 39.728 144.56C39.4187 144.304 39.072 144.096 38.688 143.936C38.304 143.776 37.9147 143.637 37.52 143.52C37.136 143.413 36.7787 143.312 36.448 143.216C36.1173 143.109 35.8293 142.992 35.584 142.864C35.3493 142.736 35.1627 142.592 35.024 142.432C34.896 142.261 34.832 142.043 34.832 141.776C34.832 141.595 34.864 141.429 34.928 141.28C34.992 141.12 35.0933 140.987 35.232 140.88C35.3707 140.773 35.5413 140.693 35.744 140.64C35.9467 140.576 36.176 140.544 36.432 140.544C36.88 140.544 37.36 140.635 37.872 140.816C38.384 140.997 38.832 141.275 39.216 141.648L40.352 140C39.808 139.552 39.2053 139.211 38.544 138.976C37.8933 138.731 37.1893 138.608 36.432 138.608C35.8987 138.608 35.408 138.688 34.96 138.848C34.512 138.997 34.1227 139.216 33.792 139.504C33.472 139.781 33.2213 140.112 33.04 140.496C32.8587 140.88 32.768 141.307 32.768 141.776C32.768 142.235 32.832 142.629 32.96 142.96C33.0987 143.28 33.2747 143.563 33.488 143.808C33.712 144.043 33.968 144.24 34.256 144.4C34.5547 144.549 34.8693 144.688 35.2 144.816C35.7013 144.987 36.16 145.136 36.576 145.264C37.0027 145.381 37.3653 145.515 37.664 145.664C37.9733 145.803 38.2133 145.968 38.384 146.16C38.5653 146.341 38.656 146.597 38.656 146.928C38.656 147.141 38.6133 147.333 38.528 147.504C38.4533 147.664 38.336 147.797 38.176 147.904C38.0267 148.011 37.84 148.096 37.616 148.16C37.392 148.213 37.1307 148.24 36.832 148.24C36.5653 148.24 36.2827 148.213 35.984 148.16C35.696 148.107 35.408 148.027 35.12 147.92C34.8427 147.813 34.576 147.685 34.32 147.536C34.064 147.376 33.8293 147.184 33.616 146.96L32.448 148.624C32.7253 148.859 33.0293 149.077 33.36 149.28C33.6907 149.472 34.0373 149.637 34.4 149.776C34.7733 149.904 35.152 150 35.536 150.064C35.9307 150.139 36.3253 150.176 36.72 150.176ZM45.026 150.16H45.106C45.682 150.16 46.21 150.043 46.69 149.808C47.17 149.563 47.586 149.232 47.938 148.816C47.9487 148.997 47.9753 149.205 48.018 149.44C48.0713 149.664 48.1247 149.851 48.178 150H49.746V141.68H47.762V146.224C47.762 146.555 47.7087 146.859 47.602 147.136C47.506 147.403 47.3727 147.637 47.202 147.84C47.0313 148.032 46.8233 148.181 46.578 148.288C46.3327 148.384 46.0607 148.432 45.762 148.432H45.698C45.1753 148.432 44.7967 148.277 44.562 147.968C44.3273 147.659 44.21 147.2 44.21 146.592V141.68H42.226V147.008C42.226 148.021 42.4607 148.8 42.93 149.344C43.41 149.888 44.1087 150.16 45.026 150.16ZM51.9954 150H53.9794V145.264C53.9794 144.933 54.0167 144.645 54.0914 144.4C54.166 144.144 54.278 143.936 54.4274 143.776C54.5767 143.605 54.7527 143.477 54.9554 143.392C55.1687 143.296 55.4087 143.248 55.6754 143.248H55.7394C55.9634 143.248 56.1554 143.285 56.3154 143.36C56.486 143.424 56.6247 143.525 56.7314 143.664C56.838 143.803 56.918 143.979 56.9714 144.192C57.0354 144.395 57.0674 144.64 57.0674 144.928V150H59.0514V145.264C59.0514 144.933 59.0887 144.645 59.1634 144.4C59.2487 144.144 59.366 143.931 59.5154 143.76C59.6647 143.589 59.846 143.461 60.0594 143.376C60.2727 143.291 60.5074 143.248 60.7634 143.248H60.8274C61.0514 143.248 61.2434 143.28 61.4034 143.344C61.574 143.408 61.7127 143.509 61.8194 143.648C61.926 143.787 62.006 143.963 62.0594 144.176C62.1127 144.389 62.1394 144.64 62.1394 144.928V150H64.1234V144.576C64.1234 143.584 63.8994 142.827 63.4514 142.304C63.014 141.781 62.3687 141.52 61.5154 141.52H61.4354C60.8807 141.52 60.3687 141.643 59.8994 141.888C59.4407 142.133 59.0514 142.475 58.7314 142.912C58.5287 142.453 58.2354 142.107 57.8514 141.872C57.4674 141.637 56.9927 141.52 56.4274 141.52H56.3474C55.8247 141.52 55.3447 141.632 54.9074 141.856C54.4807 142.069 54.1074 142.368 53.7874 142.752C53.766 142.571 53.734 142.384 53.6914 142.192C53.6487 141.989 53.606 141.819 53.5634 141.68H51.9954V150ZM67.102 153.216C67.5287 153.216 67.9127 153.147 68.254 153.008C68.606 152.88 68.9153 152.693 69.182 152.448C69.4593 152.213 69.6993 151.925 69.902 151.584C70.1047 151.243 70.2753 150.853 70.414 150.416L73.262 141.68H71.262L69.422 148.064H69.31L66.942 141.68H64.846L68.35 150.352C68.1687 150.736 67.9393 151.024 67.662 151.216C67.3847 151.419 67.0807 151.52 66.75 151.52C66.558 151.52 66.3607 151.493 66.158 151.44C65.966 151.387 65.7793 151.312 65.598 151.216V152.912C65.822 153.029 66.0727 153.109 66.35 153.152C66.6273 153.195 66.878 153.216 67.102 153.216Z" fill="#15141A"/>
<circle cx="55" cy="112" r="6" fill="#FCD800"/>
</svg>
