<svg width="98" height="157" viewBox="0 0 98 157" fill="none" xmlns="http://www.w3.org/2000/svg">
<path d="M39.5635 23.684C39.5734 21.6403 40.2085 20.9853 42.0251 22.3691C42.7881 19.1927 41.1094 19.2173 44.521 17.0455C41.9463 4.47264 50.729 15.6764 57.1437 9.683C71.0512 9.68792 67.7282 -0.358537 80.3803 1.49316C84.2055 3.5714 84.8603 3.98016 88.2966 1.56212C89.7046 2.94597 87.6467 4.17222 87.312 5.54623C86.5538 7.77713 89.4535 7.39793 88.9415 11.318C84.624 13.1402 91.9691 12.4802 91.2159 15.2184C90.571 18.5623 84.6191 14.5782 88.8676 19.6014C88.9021 21.33 87.632 21.4827 86.7753 22.4775C93.2196 26.9836 84.2745 24.733 84.2597 28.6629C86.347 31.8788 82.8714 33.957 85.9877 35.7743C88.1292 38.4385 84.2055 40.763 88.4787 43.3485C90.8565 48.9331 85.9827 49.6571 87.6516 52.3805C89.8375 54.7591 91.4965 55.2023 88.4689 58.1621C87.1495 62.3284 89.2024 62.2348 85.0966 64.9828C83.1619 72.2222 89.7489 79.8753 90.3495 87.4446C85.7464 97.7176 88.464 109.463 87.1741 118.382C87.4794 119.455 85.5249 122.061 87.755 121.277C90.7285 127.36 86.48 137.997 91.7181 142.065C90.0147 141.168 103.514 159.149 92.4171 154.293C85.5692 151.634 84.1662 156.056 83.2308 146.586C78.0074 145.512 85.7514 152.727 81.2911 152.495C75.477 150.594 82.2659 138.027 76.2253 146.049C70.618 146.221 72.277 153.766 64.735 142.114C62.1258 139.371 62.1307 146.502 60.3043 144.35C60.3239 142.025 58.8618 141.538 56.8827 141.577C52.4028 140.1 58.0347 134.372 50.852 130.664C48.8828 129.901 42.9506 128.852 44.9936 125.902C46.1998 123.868 42.4632 123.361 43.1721 125.803C39.1845 125.498 38.6626 124.227 38.6232 128.965C36.723 127.788 34.9211 132.363 32.9175 132.24C30.5692 127.694 35.3544 128.842 37.294 126.448C36.5113 125.853 33.8085 124.759 32.8633 124.937C28.2652 129.743 34.9113 116.717 31.1206 118.859C29.24 119.854 28.7477 121.937 28.5064 123.878C26.1779 125.01 25.3212 119.288 25.9514 117.564C22.0474 112.571 17.9121 118.214 16.2777 112.585C16.5238 110.418 8.76512 107.621 14.4364 107.528C20.861 111.403 18.7539 99.8795 10.7442 102.588C11.2119 91.2908 9.66603 80.1806 1.87781 69.7352C4.08332 58.2409 14.338 64.5741 20.3785 49.6768C29.3877 53.5082 18.4093 39.3742 26.9212 40.699C32.179 38.6798 42.3598 38.5075 41.0257 31.3272C46.761 30.101 39.7309 26.698 39.5635 23.684Z" fill="white" stroke="#025ABB" stroke-width="2" stroke-linecap="round" stroke-linejoin="round"/>
<path d="M22.216 88H24.296V78.656H27.192V76.8H19.32V78.656H22.216V88ZM30.8904 88.144H31.0984C31.4397 88.144 31.7704 88.1067 32.0904 88.032C32.4104 87.9573 32.7144 87.856 33.0024 87.728C33.301 87.6 33.573 87.44 33.8184 87.248C34.0744 87.056 34.2984 86.8427 34.4904 86.608L33.4024 85.408C33.157 85.7067 32.8477 85.9627 32.4744 86.176C32.1117 86.3787 31.6797 86.48 31.1784 86.48H31.0184C30.6984 86.48 30.405 86.432 30.1384 86.336C29.8717 86.24 29.6424 86.1067 29.4504 85.936C29.269 85.7653 29.1197 85.5573 29.0024 85.312C28.885 85.056 28.8104 84.7733 28.7784 84.464V84.448H34.7464V83.376C34.7464 82.8107 34.6557 82.2933 34.4744 81.824C34.293 81.3547 34.037 80.9493 33.7064 80.608C33.3757 80.2667 32.981 80.0053 32.5224 79.824C32.0637 79.632 31.557 79.536 31.0024 79.536H30.8424C30.2344 79.536 29.685 79.6427 29.1944 79.856C28.7037 80.0587 28.277 80.3467 27.9144 80.72C27.5624 81.0827 27.2904 81.52 27.0984 82.032C26.9064 82.544 26.8104 83.1093 26.8104 83.728V84.048C26.8104 84.656 26.9064 85.216 27.0984 85.728C27.2904 86.2293 27.5624 86.6613 27.9144 87.024C28.277 87.376 28.709 87.6533 29.2104 87.856C29.7224 88.048 30.2824 88.144 30.8904 88.144ZM28.8104 83.12C28.8637 82.8 28.9437 82.5173 29.0504 82.272C29.1677 82.016 29.3117 81.8027 29.4824 81.632C29.653 81.4613 29.8504 81.328 30.0744 81.232C30.2984 81.136 30.549 81.088 30.8264 81.088H30.9704C31.2477 81.088 31.4984 81.136 31.7224 81.232C31.9464 81.328 32.1384 81.4613 32.2984 81.632C32.469 81.8027 32.597 82.0107 32.6824 82.256C32.7784 82.5013 32.8317 82.7733 32.8424 83.072V83.12H28.8104ZM36.4013 88H38.3853V83.6C38.3853 83.2587 38.4226 82.96 38.4973 82.704C38.5826 82.4373 38.7053 82.2187 38.8653 82.048C39.0359 81.8667 39.2386 81.7333 39.4733 81.648C39.7079 81.5627 39.9853 81.52 40.3053 81.52C40.4119 81.52 40.5186 81.5253 40.6253 81.536C40.7426 81.5467 40.8386 81.5627 40.9133 81.584V79.68H40.7053C40.1826 79.68 39.7079 79.7813 39.2812 79.984C38.8653 80.176 38.5079 80.448 38.2093 80.8C38.1879 80.6187 38.1506 80.4267 38.0973 80.224C38.0546 80.0213 38.0066 79.84 37.9533 79.68H36.4013V88ZM42.4641 88H44.4481V83.456C44.4481 83.1147 44.4961 82.8107 44.5921 82.544C44.6881 82.2773 44.8215 82.048 44.9921 81.856C45.1735 81.6533 45.3868 81.504 45.6321 81.408C45.8775 81.3013 46.1548 81.248 46.4641 81.248H46.5601C47.0828 81.248 47.4668 81.4027 47.7121 81.712C47.9575 82.0213 48.0801 82.48 48.0801 83.088V88H50.0641V82.672C50.0641 81.6587 49.8188 80.88 49.3281 80.336C48.8481 79.792 48.1495 79.52 47.2321 79.52H47.1361C46.5495 79.52 46.0108 79.6427 45.5201 79.888C45.0401 80.1227 44.6241 80.448 44.2721 80.864C44.2508 80.6827 44.2188 80.48 44.1761 80.256C44.1335 80.032 44.0855 79.84 44.0321 79.68H42.4641V88ZM55.7189 88.144H55.8789C56.4762 88.144 57.0255 88.048 57.5269 87.856C58.0282 87.6533 58.4602 87.3707 58.8229 87.008C59.1855 86.6453 59.4682 86.2133 59.6709 85.712C59.8735 85.2107 59.9749 84.6667 59.9749 84.08V83.6C59.9749 83.0027 59.8735 82.4587 59.6709 81.968C59.4682 81.4667 59.1855 81.0347 58.8229 80.672C58.4602 80.3093 58.0282 80.032 57.5269 79.84C57.0255 79.6373 56.4762 79.536 55.8789 79.536H55.7189C55.1109 79.536 54.5562 79.6373 54.0549 79.84C53.5535 80.032 53.1215 80.3093 52.7589 80.672C52.3962 81.0347 52.1135 81.4667 51.9109 81.968C51.7189 82.4587 51.6229 83.0027 51.6229 83.6V84.08C51.6229 84.6667 51.7189 85.2107 51.9109 85.712C52.1135 86.2133 52.3962 86.6453 52.7589 87.008C53.1215 87.3707 53.5535 87.6533 54.0549 87.856C54.5562 88.048 55.1109 88.144 55.7189 88.144ZM55.7189 86.56C55.4095 86.56 55.1269 86.5013 54.8709 86.384C54.6255 86.2667 54.4122 86.096 54.2309 85.872C54.0602 85.6373 53.9215 85.3653 53.8149 85.056C53.7189 84.736 53.6709 84.384 53.6709 84V83.616C53.6709 83.2427 53.7189 82.9013 53.8149 82.592C53.9215 82.2827 54.0655 82.0213 54.2469 81.808C54.4282 81.584 54.6415 81.4133 54.8869 81.296C55.1429 81.1787 55.4202 81.12 55.7189 81.12H55.8629C56.1615 81.12 56.4389 81.1787 56.6949 81.296C56.9509 81.4133 57.1642 81.584 57.3349 81.808C57.5162 82.0213 57.6549 82.2827 57.7509 82.592C57.8575 82.9013 57.9109 83.2427 57.9109 83.616V84C57.9109 84.384 57.8629 84.736 57.7669 85.056C57.6709 85.3653 57.5322 85.6373 57.3509 85.872C57.1695 86.096 56.9509 86.2667 56.6949 86.384C56.4495 86.5013 56.1722 86.56 55.8629 86.56H55.7189ZM61.6513 91.2H63.6353V87.184C63.9553 87.4933 64.3179 87.7333 64.7233 87.904C65.1393 88.064 65.5979 88.144 66.0993 88.144H66.2433C66.7873 88.144 67.2833 88.048 67.7313 87.856C68.1899 87.6533 68.5793 87.3707 68.8993 87.008C69.2299 86.6453 69.4806 86.2187 69.6513 85.728C69.8326 85.2267 69.9233 84.6773 69.9233 84.08V83.6C69.9233 83.0027 69.8326 82.4587 69.6513 81.968C69.4806 81.4667 69.2299 81.0347 68.8993 80.672C68.5793 80.3093 68.1899 80.032 67.7313 79.84C67.2833 79.6373 66.7873 79.536 66.2433 79.536H66.0993C65.5553 79.536 65.0539 79.6373 64.5953 79.84C64.1473 80.032 63.7633 80.3093 63.4433 80.672C63.4219 80.5013 63.3899 80.3253 63.3473 80.144C63.3153 79.9627 63.2726 79.808 63.2193 79.68H61.6513V91.2ZM65.6833 86.56C65.3739 86.56 65.0913 86.5013 64.8353 86.384C64.5899 86.2667 64.3766 86.096 64.1953 85.872C64.0246 85.648 63.8859 85.3813 63.7793 85.072C63.6833 84.752 63.6353 84.3947 63.6353 84V83.616C63.6353 83.2427 63.6833 82.9013 63.7793 82.592C63.8753 82.2827 64.0139 82.0213 64.1953 81.808C64.3766 81.584 64.5899 81.4133 64.8353 81.296C65.0913 81.1787 65.3739 81.12 65.6833 81.12H65.8113C66.1206 81.12 66.3979 81.1787 66.6433 81.296C66.8993 81.4133 67.1179 81.584 67.2993 81.808C67.4806 82.0213 67.6193 82.2827 67.7153 82.592C67.8113 82.9013 67.8593 83.2427 67.8593 83.616V84C67.8593 84.3947 67.8113 84.752 67.7153 85.072C67.6193 85.3813 67.4806 85.648 67.2993 85.872C67.1179 86.096 66.8993 86.2667 66.6433 86.384C66.3979 86.5013 66.1206 86.56 65.8113 86.56H65.6833ZM71.62 88H73.604V79.68H71.62V88ZM72.596 78.384C72.948 78.384 73.2307 78.288 73.444 78.096C73.668 77.904 73.78 77.648 73.78 77.328C73.78 77.008 73.668 76.7467 73.444 76.544C73.2307 76.3413 72.948 76.24 72.596 76.24C72.2547 76.24 71.9773 76.3413 71.764 76.544C71.5507 76.7467 71.444 77.008 71.444 77.328C71.444 77.648 71.5507 77.904 71.764 78.096C71.9773 78.288 72.2547 78.384 72.596 78.384ZM75.9013 88H77.8853V76.48H75.9013V88Z" fill="#15141A"/>
<circle cx="55" cy="60" r="6" fill="#FCD800"/>
</svg>
