<svg width="145" height="105" viewBox="0 0 145 105" fill="none" xmlns="http://www.w3.org/2000/svg">
<path d="M1.03881 60.1867C-1.2947 37.4886 10.7962 44.6344 12.3322 29.8602C16.3839 23.7042 14.7937 12.2197 23.153 9.33877C23.2417 6.99459 23.1727 0.557984 26.5893 1.63158C29.4496 7.29995 35.6526 2.9317 38.8132 7.06847C44.6519 11.7076 41.2353 6.576 43.8396 8.20609C44.9719 29.0771 56.5213 13.8104 59.6573 24.9108C61.0013 31.0716 68.0609 25.5707 68.1003 30.4019C69.6067 30.3871 70.3845 26.8905 71.571 29.5893C71.3298 33.2631 76.5777 32.3521 78.9457 32.0418C106.638 42.0932 96.767 61.7576 114.042 49.2242C117.931 49.8595 111.009 74.4585 124.976 61.6099C129.195 68.2485 140.922 71.8189 137.392 81.5846C139.937 87.3958 147.73 88.1444 141.104 95.1966C140.912 101.303 137.018 100.033 131.996 98.8951C128.082 100.166 123.839 103.106 119.492 103.574C100.966 92.0349 105.328 105.947 95.0046 95.9156C69.4492 93.1479 82.5001 102.85 59.7311 86.6571C54.2961 85.8002 56.2948 96.024 50.7564 96.2899C41.9344 91.5917 48.6346 96.8809 44.6765 99.028C37.4101 99.358 47.2168 88.9964 35.9972 84.9236C22.3358 92.3452 28.1056 70.1297 14.6165 74.557C12.2436 72.6758 9.7378 68.1894 10.5009 64.9735C9.9298 63.2449 7.50767 65.3773 8.11812 62.9051C10.7962 57.3451 3.48063 59.9306 1.03881 60.1916V60.1867Z" fill="white" stroke="#FCD800" stroke-width="2" stroke-linecap="round" stroke-linejoin="round"/>
<path d="M23.6 67.192C24.2827 67.192 24.896 67.1013 25.44 66.92C25.984 66.7387 26.4427 66.4667 26.816 66.104C27.2 65.7413 27.488 65.2987 27.68 64.776C27.8827 64.2427 27.984 63.6293 27.984 62.936V55.8H25.888V62.808C25.888 63.2133 25.8347 63.5707 25.728 63.88C25.632 64.1787 25.4827 64.4293 25.28 64.632C25.088 64.8347 24.848 64.9893 24.56 65.096C24.272 65.2027 23.952 65.256 23.6 65.256C23.248 65.256 22.928 65.2027 22.64 65.096C22.352 64.9893 22.1067 64.8347 21.904 64.632C21.7013 64.4293 21.5467 64.1787 21.44 63.88C21.3333 63.5707 21.28 63.2133 21.28 62.808V55.8H19.184V62.936C19.184 63.6187 19.28 64.2213 19.472 64.744C19.6747 65.2667 19.9627 65.7147 20.336 66.088C20.72 66.4507 21.184 66.728 21.728 66.92C22.272 67.1013 22.896 67.192 23.6 67.192ZM29.4633 67H36.3433V65.4H31.8153V65.32L36.1513 60.232V58.68H29.7513V60.28H33.7993V60.36L29.4633 65.448V67ZM37.9169 67H39.9009V62.392C39.9009 62.0613 39.9489 61.7627 40.0449 61.496C40.1409 61.2293 40.2742 61.0053 40.4449 60.824C40.6262 60.6427 40.8449 60.504 41.1009 60.408C41.3569 60.3013 41.6395 60.248 41.9489 60.248C42.4822 60.248 42.8769 60.4027 43.1329 60.712C43.3995 61.0107 43.5329 61.4693 43.5329 62.088V67H45.5169V61.672C45.5169 60.6693 45.2715 59.896 44.7809 59.352C44.2902 58.7973 43.5969 58.52 42.7009 58.52C42.1462 58.52 41.6289 58.6267 41.1489 58.84C40.6689 59.0427 40.2529 59.3307 39.9009 59.704V55.48H37.9169V67ZM47.62 67H49.604V62.392C49.604 62.0613 49.652 61.7627 49.748 61.496C49.844 61.2293 49.9773 61.0053 50.148 60.824C50.3293 60.6427 50.548 60.504 50.804 60.408C51.06 60.3013 51.3427 60.248 51.652 60.248C52.1853 60.248 52.58 60.4027 52.836 60.712C53.1027 61.0107 53.236 61.4693 53.236 62.088V67H55.22V61.672C55.22 60.6693 54.9747 59.896 54.484 59.352C53.9933 58.7973 53.3 58.52 52.404 58.52C51.8493 58.52 51.332 58.6267 50.852 58.84C50.372 59.0427 49.956 59.3307 49.604 59.704V55.48H47.62V67ZM60.8751 67.144H61.0351C61.6325 67.144 62.1818 67.048 62.6831 66.856C63.1845 66.6533 63.6165 66.3707 63.9791 66.008C64.3418 65.6453 64.6245 65.2133 64.8271 64.712C65.0298 64.2107 65.1311 63.6667 65.1311 63.08V62.6C65.1311 62.0027 65.0298 61.4587 64.8271 60.968C64.6245 60.4667 64.3418 60.0347 63.9791 59.672C63.6165 59.3093 63.1845 59.032 62.6831 58.84C62.1818 58.6373 61.6325 58.536 61.0351 58.536H60.8751C60.2671 58.536 59.7125 58.6373 59.2111 58.84C58.7098 59.032 58.2778 59.3093 57.9151 59.672C57.5525 60.0347 57.2698 60.4667 57.0671 60.968C56.8751 61.4587 56.7791 62.0027 56.7791 62.6V63.08C56.7791 63.6667 56.8751 64.2107 57.0671 64.712C57.2698 65.2133 57.5525 65.6453 57.9151 66.008C58.2778 66.3707 58.7098 66.6533 59.2111 66.856C59.7125 67.048 60.2671 67.144 60.8751 67.144ZM60.8751 65.56C60.5658 65.56 60.2831 65.5013 60.0271 65.384C59.7818 65.2667 59.5685 65.096 59.3871 64.872C59.2165 64.6373 59.0778 64.3653 58.9711 64.056C58.8751 63.736 58.8271 63.384 58.8271 63V62.616C58.8271 62.2427 58.8751 61.9013 58.9711 61.592C59.0778 61.2827 59.2218 61.0213 59.4031 60.808C59.5845 60.584 59.7978 60.4133 60.0431 60.296C60.2991 60.1787 60.5765 60.12 60.8751 60.12H61.0191C61.3178 60.12 61.5951 60.1787 61.8511 60.296C62.1071 60.4133 62.3205 60.584 62.4911 60.808C62.6725 61.0213 62.8111 61.2827 62.9071 61.592C63.0138 61.9013 63.0671 62.2427 63.0671 62.616V63C63.0671 63.384 63.0191 63.736 62.9231 64.056C62.8271 64.3653 62.6885 64.6373 62.5071 64.872C62.3258 65.096 62.1071 65.2667 61.8511 65.384C61.6058 65.5013 61.3285 65.56 61.0191 65.56H60.8751ZM66.8075 67H68.7915V62.6C68.7915 62.2587 68.8288 61.96 68.9035 61.704C68.9888 61.4373 69.1115 61.2187 69.2715 61.048C69.4422 60.8667 69.6448 60.7333 69.8795 60.648C70.1142 60.5627 70.3915 60.52 70.7115 60.52C70.8182 60.52 70.9248 60.5253 71.0315 60.536C71.1488 60.5467 71.2448 60.5627 71.3195 60.584V58.68H71.1115C70.5888 58.68 70.1142 58.7813 69.6875 58.984C69.2715 59.176 68.9142 59.448 68.6155 59.8C68.5942 59.6187 68.5568 59.4267 68.5035 59.224C68.4608 59.0213 68.4128 58.84 68.3595 58.68H66.8075V67ZM76.2814 67.144H76.4414C77.0387 67.144 77.588 67.048 78.0894 66.856C78.5907 66.6533 79.0227 66.3707 79.3854 66.008C79.748 65.6453 80.0307 65.2133 80.2334 64.712C80.436 64.2107 80.5374 63.6667 80.5374 63.08V62.6C80.5374 62.0027 80.436 61.4587 80.2334 60.968C80.0307 60.4667 79.748 60.0347 79.3854 59.672C79.0227 59.3093 78.5907 59.032 78.0894 58.84C77.588 58.6373 77.0387 58.536 76.4414 58.536H76.2814C75.6734 58.536 75.1187 58.6373 74.6174 58.84C74.116 59.032 73.684 59.3093 73.3214 59.672C72.9587 60.0347 72.676 60.4667 72.4734 60.968C72.2814 61.4587 72.1854 62.0027 72.1854 62.6V63.08C72.1854 63.6667 72.2814 64.2107 72.4734 64.712C72.676 65.2133 72.9587 65.6453 73.3214 66.008C73.684 66.3707 74.116 66.6533 74.6174 66.856C75.1187 67.048 75.6734 67.144 76.2814 67.144ZM76.2814 65.56C75.972 65.56 75.6894 65.5013 75.4334 65.384C75.188 65.2667 74.9747 65.096 74.7934 64.872C74.6227 64.6373 74.484 64.3653 74.3774 64.056C74.2814 63.736 74.2334 63.384 74.2334 63V62.616C74.2334 62.2427 74.2814 61.9013 74.3774 61.592C74.484 61.2827 74.628 61.0213 74.8094 60.808C74.9907 60.584 75.204 60.4133 75.4494 60.296C75.7054 60.1787 75.9827 60.12 76.2814 60.12H76.4254C76.724 60.12 77.0014 60.1787 77.2574 60.296C77.5134 60.4133 77.7267 60.584 77.8974 60.808C78.0787 61.0213 78.2174 61.2827 78.3134 61.592C78.42 61.9013 78.4734 62.2427 78.4734 62.616V63C78.4734 63.384 78.4254 63.736 78.3294 64.056C78.2334 64.3653 78.0947 64.6373 77.9134 64.872C77.732 65.096 77.5134 65.2667 77.2574 65.384C77.012 65.5013 76.7347 65.56 76.4254 65.56H76.2814ZM85.3498 67.144H85.4778C86.0324 67.144 86.5338 67.048 86.9818 66.856C87.4298 66.6533 87.8191 66.376 88.1498 66.024C88.1711 66.1947 88.1978 66.3707 88.2298 66.552C88.2724 66.7227 88.3204 66.872 88.3738 67H89.9418V55.48H87.9578V59.496C87.6378 59.1867 87.2698 58.952 86.8538 58.792C86.4484 58.6213 85.9951 58.536 85.4938 58.536H85.3498C84.8058 58.536 84.3044 58.6373 83.8458 58.84C83.3978 59.032 83.0084 59.3093 82.6778 59.672C82.3578 60.024 82.1071 60.4507 81.9258 60.952C81.7551 61.4533 81.6698 62.0027 81.6698 62.6V63.08C81.6698 63.6773 81.7551 64.2267 81.9258 64.728C82.1071 65.2187 82.3578 65.6453 82.6778 66.008C83.0084 66.3707 83.3978 66.6533 83.8458 66.856C84.3044 67.048 84.8058 67.144 85.3498 67.144ZM85.7818 65.56C85.4724 65.56 85.1898 65.5013 84.9338 65.384C84.6884 65.2667 84.4751 65.096 84.2938 64.872C84.1231 64.648 83.9844 64.3813 83.8778 64.072C83.7818 63.752 83.7338 63.3947 83.7338 63V62.616C83.7338 62.2427 83.7818 61.9013 83.8778 61.592C83.9844 61.2827 84.1231 61.0213 84.2938 60.808C84.4751 60.584 84.6884 60.4133 84.9338 60.296C85.1898 60.1787 85.4724 60.12 85.7818 60.12H85.9098C86.2191 60.12 86.4964 60.1787 86.7418 60.296C86.9978 60.4133 87.2164 60.584 87.3978 60.808C87.5791 61.0213 87.7178 61.2827 87.8138 61.592C87.9098 61.9013 87.9578 62.2427 87.9578 62.616V63C87.9578 63.384 87.9098 63.736 87.8138 64.056C87.7178 64.3653 87.5791 64.6373 87.3978 64.872C87.2271 65.096 87.0138 65.2667 86.7578 65.384C86.5018 65.5013 86.2191 65.56 85.9098 65.56H85.7818Z" fill="#15141A"/>
<circle cx="38" cy="41" r="6" fill="#025ABB"/>
</svg>
