<svg width="157" height="166" viewBox="0 0 157 166" fill="none" xmlns="http://www.w3.org/2000/svg">
<path d="M31.1928 132.452C25.3443 121.627 14.4102 129.837 15.1881 123.366C14.3708 122.908 13.0613 123.671 12.4656 124.208C5.20418 125.843 9.80228 111.113 1.81714 110.818C7.49831 92.6602 -4.48432 74.0397 15.4244 65.0028C25.5461 67.7705 20.9628 70.1886 31.3307 64.8994C31.8821 61.5703 27.9682 58.1969 30.543 55.3701C31.695 52.105 22.8778 46.146 28.8347 44.1417C30.1491 38.621 18.9443 43.462 24.2415 37.6952C17.108 32.017 28.5344 33.9228 24.4187 29.4709C29.2236 21.7144 26.5898 23.9059 23.6212 18.5774C24.6009 15.1941 26.8064 19.188 28.4015 15.4896C25.1227 12.7219 32.5516 11.8994 35.274 11.4808C51.84 12.0619 64.6989 7.14706 78.9757 9.00861C89.9737 -7.51387 88.7184 6.35418 95.0248 14.6868C88.5313 19.9415 95.8666 20.695 93.8088 25.3834C92.1596 28.6288 108.169 27.4074 110.114 27.4468C110.458 23.113 116.839 25.6641 118.877 21.7144C121.732 21.7735 126.03 21.9607 123.248 25.8955C121.466 32.0268 128.083 29.8698 127.088 34.2873C126.887 35.0802 125.695 34.9521 125.592 35.7795C130.397 46.3086 123.672 40.847 123.298 46.8109C126.739 54.4541 136.363 57.0248 134.768 65.0225C136.393 68.9328 132.42 66.9087 133.336 70.6121C132.666 72.4195 126.586 73.1385 129.186 77.1522C134.335 77.8268 133.587 79.3732 131.027 83.0865C134.379 86.5584 137.235 84.1059 134.921 90.247C139.859 92.67 135.684 100.195 143.064 99.1411C143.935 100.515 147.155 101.323 144.112 102.539C141.793 106.006 147.755 107.045 149.449 108.611C149.444 115.329 156.331 119.298 149.375 124.612C148.961 127.311 153.052 123.799 154.254 124.292C157.744 125.523 154.593 128.837 152.092 128.517C145.722 137.726 150.01 128.025 145.181 127.808C129.954 141.262 147.386 145.586 132.77 150.427C138.643 157.568 128.368 158.218 123.145 156.938C114.815 153.727 108.868 161.863 99.7016 152.417C93.9269 155.519 101.986 158.199 86.9165 164.817C83.4803 153.683 78.7886 152.185 67.3623 152.126C65.3291 157.489 66.3531 163.906 61.6417 154.426C63.6553 153.028 62.3605 149.575 59.9088 150.462C59.0965 152.185 56.059 156.391 55.739 152.112C56.3396 149.556 60.7359 147.886 58.1464 144.463C53.1298 143.03 49.0683 152.028 47.9212 142.73C46.0308 142.996 44.2044 146.069 42.2253 143.927C46.7201 133.289 34.1319 140.465 31.1977 132.472L31.1928 132.452Z" fill="white" stroke="#FCD800" stroke-width="2" stroke-linecap="round" stroke-linejoin="round"/>
<path d="M44.584 100H47.336L50.808 88.8H48.6L46.04 97.808H45.896L43.32 88.8H41.096L44.584 100ZM52.3231 100H54.3071V91.68H52.3231V100ZM53.2991 90.384C53.6511 90.384 53.9338 90.288 54.1471 90.096C54.3711 89.904 54.4831 89.648 54.4831 89.328C54.4831 89.008 54.3711 88.7467 54.1471 88.544C53.9338 88.3413 53.6511 88.24 53.2991 88.24C52.9578 88.24 52.6805 88.3413 52.4671 88.544C52.2538 88.7467 52.1471 89.008 52.1471 89.328C52.1471 89.648 52.2538 89.904 52.4671 90.096C52.6805 90.288 52.9578 90.384 53.2991 90.384ZM56.5579 100H58.5419V95.456C58.5419 95.1147 58.5899 94.8107 58.6859 94.544C58.7819 94.2773 58.9152 94.048 59.0859 93.856C59.2672 93.6533 59.4805 93.504 59.7259 93.408C59.9712 93.3013 60.2485 93.248 60.5579 93.248H60.6539C61.1765 93.248 61.5605 93.4027 61.8059 93.712C62.0512 94.0213 62.1739 94.48 62.1739 95.088V100H64.1579V94.672C64.1579 93.6587 63.9125 92.88 63.4219 92.336C62.9419 91.792 62.2432 91.52 61.3259 91.52H61.2299C60.6432 91.52 60.1045 91.6427 59.6139 91.888C59.1339 92.1227 58.7179 92.448 58.3659 92.864C58.3445 92.6827 58.3125 92.48 58.2699 92.256C58.2272 92.032 58.1792 91.84 58.1259 91.68H56.5579V100ZM66.2766 100H68.2606V95.456C68.2606 95.1147 68.3086 94.8107 68.4046 94.544C68.5006 94.2773 68.634 94.048 68.8046 93.856C68.986 93.6533 69.1993 93.504 69.4446 93.408C69.69 93.3013 69.9673 93.248 70.2766 93.248H70.3726C70.8953 93.248 71.2793 93.4027 71.5246 93.712C71.77 94.0213 71.8926 94.48 71.8926 95.088V100H73.8766V94.672C73.8766 93.6587 73.6313 92.88 73.1406 92.336C72.6606 91.792 71.962 91.52 71.0446 91.52H70.9486C70.362 91.52 69.8233 91.6427 69.3326 91.888C68.8526 92.1227 68.4366 92.448 68.0846 92.864C68.0633 92.6827 68.0313 92.48 67.9886 92.256C67.946 92.032 67.898 91.84 67.8446 91.68H66.2766V100ZM76.8676 103.216C77.2943 103.216 77.6783 103.147 78.0196 103.008C78.3716 102.88 78.681 102.693 78.9476 102.448C79.225 102.213 79.465 101.925 79.6676 101.584C79.8703 101.243 80.041 100.853 80.1796 100.416L83.0276 91.68H81.0276L79.1876 98.064H79.0756L76.7076 91.68H74.6116L78.1156 100.352C77.9343 100.736 77.705 101.024 77.4276 101.216C77.1503 101.419 76.8463 101.52 76.5156 101.52C76.3236 101.52 76.1263 101.493 75.9236 101.44C75.7316 101.387 75.545 101.312 75.3636 101.216V102.912C75.5876 103.029 75.8383 103.109 76.1156 103.152C76.393 103.195 76.6436 103.216 76.8676 103.216ZM87.0424 100.08C87.3304 100.08 87.661 100.053 88.0344 100C88.4184 99.9467 88.733 99.8667 88.9784 99.76V98.192C88.9037 98.224 88.8024 98.2507 88.6744 98.272C88.557 98.2933 88.4344 98.3147 88.3064 98.336C88.189 98.3467 88.0664 98.3573 87.9384 98.368C87.8104 98.368 87.7037 98.368 87.6184 98.368C87.2877 98.368 87.037 98.2827 86.8664 98.112C86.6957 97.9413 86.6104 97.6267 86.6104 97.168V93.28H88.8984V91.68H86.6264V89.52L84.6424 89.76V91.696C84.461 91.7067 84.269 91.7387 84.0664 91.792C83.8744 91.8347 83.7037 91.8827 83.5544 91.936V93.28H84.6424V97.552C84.6424 97.9893 84.6957 98.368 84.8024 98.688C84.9197 98.9973 85.0797 99.2587 85.2824 99.472C85.485 99.6747 85.7304 99.8293 86.0184 99.936C86.317 100.032 86.6584 100.08 87.0424 100.08ZM93.5346 100.16C94.0146 100.16 94.452 100.101 94.8466 99.984C95.2413 99.8667 95.572 99.696 95.8386 99.472C96.116 99.248 96.3293 98.976 96.4786 98.656C96.628 98.336 96.7026 97.9787 96.7026 97.584C96.7026 97.1467 96.6173 96.784 96.4466 96.496C96.276 96.208 96.052 95.9733 95.7746 95.792C95.508 95.6 95.204 95.4507 94.8626 95.344C94.5213 95.2267 94.1853 95.1307 93.8546 95.056C93.5986 94.992 93.3533 94.9333 93.1186 94.88C92.884 94.816 92.676 94.7467 92.4946 94.672C92.324 94.5973 92.1853 94.5013 92.0786 94.384C91.972 94.2667 91.9186 94.1227 91.9186 93.952C91.9186 93.8133 91.9453 93.696 91.9986 93.6C92.052 93.504 92.1213 93.424 92.2066 93.36C92.3026 93.2853 92.42 93.232 92.5586 93.2C92.708 93.1573 92.8733 93.136 93.0546 93.136C93.46 93.136 93.8653 93.2107 94.2706 93.36C94.6866 93.5093 95.06 93.7067 95.3906 93.952L96.3346 92.544C95.8973 92.2347 95.4013 91.9893 94.8466 91.808C94.292 91.616 93.716 91.52 93.1186 91.52C92.6493 91.52 92.228 91.5787 91.8546 91.696C91.492 91.8027 91.1773 91.968 90.9106 92.192C90.6546 92.4053 90.4573 92.6667 90.3186 92.976C90.18 93.2853 90.1106 93.632 90.1106 94.016C90.1106 94.3893 90.1746 94.7093 90.3026 94.976C90.4306 95.232 90.6013 95.4453 90.8146 95.616C91.0386 95.7867 91.2893 95.9253 91.5666 96.032C91.844 96.1387 92.1266 96.2347 92.4146 96.32C92.788 96.4373 93.1186 96.5333 93.4066 96.608C93.7053 96.6827 93.956 96.7627 94.1586 96.848C94.372 96.9333 94.532 97.0347 94.6386 97.152C94.7453 97.2587 94.7986 97.4133 94.7986 97.616C94.7986 97.776 94.772 97.9093 94.7186 98.016C94.6653 98.1227 94.58 98.2187 94.4626 98.304C94.356 98.3787 94.2173 98.4373 94.0466 98.48C93.8866 98.512 93.7 98.528 93.4866 98.528C93.252 98.528 93.012 98.5067 92.7666 98.464C92.5213 98.4107 92.2813 98.3413 92.0466 98.256C91.812 98.1707 91.5826 98.0693 91.3586 97.952C91.1453 97.8347 90.9533 97.696 90.7826 97.536L89.7906 98.96C90.2813 99.3547 90.8413 99.6533 91.4706 99.856C92.1106 100.059 92.7986 100.16 93.5346 100.16ZM98.2606 100H100.245V91.68H98.2606V100ZM99.2366 90.384C99.5886 90.384 99.8713 90.288 100.085 90.096C100.309 89.904 100.421 89.648 100.421 89.328C100.421 89.008 100.309 88.7467 100.085 88.544C99.8713 88.3413 99.5886 88.24 99.2366 88.24C98.8953 88.24 98.618 88.3413 98.4046 88.544C98.1913 88.7467 98.0846 89.008 98.0846 89.328C98.0846 89.648 98.1913 89.904 98.4046 90.096C98.618 90.288 98.8953 90.384 99.2366 90.384ZM104.719 100.16C105.231 100.16 105.717 100.064 106.175 99.872C106.634 99.6693 107.039 99.392 107.391 99.04C107.413 99.2107 107.439 99.3867 107.471 99.568C107.514 99.7387 107.557 99.8827 107.599 100H109.487C109.413 99.7333 109.343 99.456 109.279 99.168C109.226 98.8693 109.199 98.576 109.199 98.288V94.528C109.199 94.0587 109.125 93.6373 108.975 93.264C108.837 92.8907 108.623 92.576 108.335 92.32C108.058 92.0533 107.717 91.8507 107.311 91.712C106.906 91.5733 106.453 91.504 105.951 91.504H105.807C105.189 91.504 104.586 91.6 103.999 91.792C103.413 91.984 102.863 92.2453 102.351 92.576L103.167 93.984C103.562 93.7067 103.973 93.4987 104.399 93.36C104.837 93.2213 105.263 93.152 105.679 93.152H105.759C106.271 93.152 106.655 93.2747 106.911 93.52C107.178 93.7547 107.311 94.08 107.311 94.496V94.864H106.655C105.055 94.864 103.871 95.088 103.103 95.536C102.335 95.9733 101.951 96.6453 101.951 97.552V97.696C101.951 98.0693 102.021 98.4107 102.159 98.72C102.298 99.0187 102.485 99.2747 102.719 99.488C102.965 99.7013 103.258 99.8667 103.599 99.984C103.941 100.101 104.314 100.16 104.719 100.16ZM105.135 98.56C104.954 98.56 104.783 98.5333 104.623 98.48C104.463 98.4267 104.325 98.3573 104.207 98.272C104.101 98.1867 104.015 98.08 103.951 97.952C103.898 97.824 103.871 97.68 103.871 97.52V97.44C103.871 96.992 104.106 96.6667 104.575 96.464C105.055 96.2507 105.807 96.144 106.831 96.144H107.311V97.536C107.045 97.856 106.719 98.1067 106.335 98.288C105.962 98.4693 105.562 98.56 105.135 98.56Z" fill="#15141A"/>
<circle cx="73" cy="74" r="6" fill="#025ABB"/>
</svg>
