<svg width="174" height="161" viewBox="0 0 174 161" fill="none" xmlns="http://www.w3.org/2000/svg">
<path d="M61.9974 159.21C59.3292 158.86 70.3764 147.233 63.8239 152.399C58.0688 152.232 62.731 145.5 61.8596 143.87C58.9845 143.791 56.8234 140.664 56.7938 137.93C53.3674 140.989 60.3334 144.85 57.547 148.459C43.6345 168.902 55.7353 135.975 37.6728 138.772C40.218 131.592 31.2975 139.398 30.239 130.144C36.7226 124.57 17.769 122.752 27.7283 120.6C44.2992 105.102 19.6299 104.659 19.8366 88.9735C16.3659 87.176 17.1881 81.0693 17.5426 77.888C18.3253 73.2784 13.6731 77.3709 17.7296 70.8062C2.61103 75.5733 7.32728 77.425 2.14826 61.0749C-1.88862 52.4074 18.3253 54.5792 22.9234 49.487C45.269 57.0859 39.5091 52.7866 42.8764 34.442C38.0863 34.2006 39.9423 30.1033 40.4543 27.2568C35.2851 25.341 32.5922 19.6234 40.1491 18.7271C45.1459 15.8363 31.8488 12.8224 36.6241 9.89214C38.3915 7.81882 34.8765 2.70204 38.2094 2.39671C39.0759 10.4486 44.7865 2.98274 48.7693 2.7562C57.931 -0.543371 68.0232 6.05577 77.2293 5.64209C81.8963 -0.469507 88.3159 3.4703 92.6236 7.22787C109.638 0.476058 94.5337 12.783 105.812 9.68038C105.94 10.7293 103.371 11.9064 104.66 12.7928C108.151 13.5857 104.67 18.5252 109.805 18.2888C110.366 26.5919 104.616 22.2385 107.21 25.0406C108.835 28.9755 112.606 26.0157 114.132 24.4743C116.082 25.2967 114.255 27.9955 117.741 27.9167C120.394 31.0734 122.172 25.804 124.53 26.7298C124.638 28.744 135.035 25.9369 135.966 26.1142C135.734 29.1085 135.941 32.1175 139.781 30.7386C141.514 33.0679 142.42 40.2679 145.792 40.9081C141.494 42.5727 146.905 43.1784 145.817 45.365C145.216 48.4627 148.298 45.2025 149.253 46.3598C150.769 47.5073 152.389 50.0287 154.063 50.9841C158.474 46.1874 164.037 56.421 167.129 59.1149C168.94 59.2183 174.991 56.3816 171.515 61.8629C170.589 63.5915 171.481 68.0631 169.334 68.1419C162.915 60.5431 169.605 76.967 155.338 72.2885C154.668 74.5736 158.804 78.8237 155.737 80.3208C154.88 80.5572 151.449 80.0401 152.089 81.5864C157.573 84.497 159.212 89.2395 162.949 93.5683C164.337 91.4901 168.926 95.0654 165.499 97.2372C168.655 103.083 164.913 98.498 161.221 102.689C163.318 110.918 151.897 110.918 150.425 119.694C149.583 122.147 149.273 128.495 145.531 127.155C159.395 110.445 118.657 115.208 118.981 130.041C106.098 112.484 71.2626 142.584 62.0024 159.205L61.9974 159.21Z" fill="white" stroke="#FCD800" stroke-width="2" stroke-linecap="round" stroke-linejoin="round"/>
<path d="M44.512 93H52.512V91.144H47.12V91L52.368 83.4V81.8H44.848V83.656H49.808V83.752L44.512 91.416V93ZM56.36 93.16C56.872 93.16 57.3573 93.064 57.816 92.872C58.2747 92.6693 58.68 92.392 59.032 92.04C59.0533 92.2107 59.08 92.3867 59.112 92.568C59.1547 92.7387 59.1973 92.8827 59.24 93H61.128C61.0533 92.7333 60.984 92.456 60.92 92.168C60.8667 91.8693 60.84 91.576 60.84 91.288V87.528C60.84 87.0587 60.7653 86.6373 60.616 86.264C60.4773 85.8907 60.264 85.576 59.976 85.32C59.6987 85.0533 59.3573 84.8507 58.952 84.712C58.5467 84.5733 58.0933 84.504 57.592 84.504H57.448C56.8293 84.504 56.2267 84.6 55.64 84.792C55.0533 84.984 54.504 85.2453 53.992 85.576L54.808 86.984C55.2027 86.7067 55.6133 86.4987 56.04 86.36C56.4773 86.2213 56.904 86.152 57.32 86.152H57.4C57.912 86.152 58.296 86.2747 58.552 86.52C58.8187 86.7547 58.952 87.08 58.952 87.496V87.864H58.296C56.696 87.864 55.512 88.088 54.744 88.536C53.976 88.9733 53.592 89.6453 53.592 90.552V90.696C53.592 91.0693 53.6613 91.4107 53.8 91.72C53.9387 92.0187 54.1253 92.2747 54.36 92.488C54.6053 92.7013 54.8987 92.8667 55.24 92.984C55.5813 93.1013 55.9547 93.16 56.36 93.16ZM56.776 91.56C56.5947 91.56 56.424 91.5333 56.264 91.48C56.104 91.4267 55.9653 91.3573 55.848 91.272C55.7413 91.1867 55.656 91.08 55.592 90.952C55.5387 90.824 55.512 90.68 55.512 90.52V90.44C55.512 89.992 55.7467 89.6667 56.216 89.464C56.696 89.2507 57.448 89.144 58.472 89.144H58.952V90.536C58.6853 90.856 58.36 91.1067 57.976 91.288C57.6027 91.4693 57.2027 91.56 56.776 91.56ZM63.0419 96.2H65.0259V92.184C65.3459 92.4933 65.7085 92.7333 66.1139 92.904C66.5299 93.064 66.9885 93.144 67.4899 93.144H67.6339C68.1779 93.144 68.6739 93.048 69.1219 92.856C69.5805 92.6533 69.9699 92.3707 70.2899 92.008C70.6205 91.6453 70.8712 91.2187 71.0419 90.728C71.2232 90.2267 71.3139 89.6773 71.3139 89.08V88.6C71.3139 88.0027 71.2232 87.4587 71.0419 86.968C70.8712 86.4667 70.6205 86.0347 70.2899 85.672C69.9699 85.3093 69.5805 85.032 69.1219 84.84C68.6739 84.6373 68.1779 84.536 67.6339 84.536H67.4899C66.9459 84.536 66.4445 84.6373 65.9859 84.84C65.5379 85.032 65.1539 85.3093 64.8339 85.672C64.8125 85.5013 64.7805 85.3253 64.7379 85.144C64.7059 84.9627 64.6632 84.808 64.6099 84.68H63.0419V96.2ZM67.0739 91.56C66.7645 91.56 66.4819 91.5013 66.2259 91.384C65.9805 91.2667 65.7672 91.096 65.5859 90.872C65.4152 90.648 65.2765 90.3813 65.1699 90.072C65.0739 89.752 65.0259 89.3947 65.0259 89V88.616C65.0259 88.2427 65.0739 87.9013 65.1699 87.592C65.2659 87.2827 65.4045 87.0213 65.5859 86.808C65.7672 86.584 65.9805 86.4133 66.2259 86.296C66.4819 86.1787 66.7645 86.12 67.0739 86.12H67.2019C67.5112 86.12 67.7885 86.1787 68.0339 86.296C68.2899 86.4133 68.5085 86.584 68.6899 86.808C68.8712 87.0213 69.0099 87.2827 69.1059 87.592C69.2019 87.9013 69.2499 88.2427 69.2499 88.616V89C69.2499 89.3947 69.2019 89.752 69.1059 90.072C69.0099 90.3813 68.8712 90.648 68.6899 90.872C68.5085 91.096 68.2899 91.2667 68.0339 91.384C67.7885 91.5013 67.5112 91.56 67.2019 91.56H67.0739ZM76.5626 93.144H76.7226C77.32 93.144 77.8693 93.048 78.3706 92.856C78.872 92.6533 79.304 92.3707 79.6666 92.008C80.0293 91.6453 80.312 91.2133 80.5146 90.712C80.7173 90.2107 80.8186 89.6667 80.8186 89.08V88.6C80.8186 88.0027 80.7173 87.4587 80.5146 86.968C80.312 86.4667 80.0293 86.0347 79.6666 85.672C79.304 85.3093 78.872 85.032 78.3706 84.84C77.8693 84.6373 77.32 84.536 76.7226 84.536H76.5626C75.9546 84.536 75.4 84.6373 74.8986 84.84C74.3973 85.032 73.9653 85.3093 73.6026 85.672C73.24 86.0347 72.9573 86.4667 72.7546 86.968C72.5626 87.4587 72.4666 88.0027 72.4666 88.6V89.08C72.4666 89.6667 72.5626 90.2107 72.7546 90.712C72.9573 91.2133 73.24 91.6453 73.6026 92.008C73.9653 92.3707 74.3973 92.6533 74.8986 92.856C75.4 93.048 75.9546 93.144 76.5626 93.144ZM76.5626 91.56C76.2533 91.56 75.9706 91.5013 75.7146 91.384C75.4693 91.2667 75.256 91.096 75.0746 90.872C74.904 90.6373 74.7653 90.3653 74.6586 90.056C74.5626 89.736 74.5146 89.384 74.5146 89V88.616C74.5146 88.2427 74.5626 87.9013 74.6586 87.592C74.7653 87.2827 74.9093 87.0213 75.0906 86.808C75.272 86.584 75.4853 86.4133 75.7306 86.296C75.9866 86.1787 76.264 86.12 76.5626 86.12H76.7066C77.0053 86.12 77.2826 86.1787 77.5386 86.296C77.7946 86.4133 78.008 86.584 78.1786 86.808C78.36 87.0213 78.4986 87.2827 78.5946 87.592C78.7013 87.9013 78.7546 88.2427 78.7546 88.616V89C78.7546 89.384 78.7066 89.736 78.6106 90.056C78.5146 90.3653 78.376 90.6373 78.1946 90.872C78.0133 91.096 77.7946 91.2667 77.5386 91.384C77.2933 91.5013 77.016 91.56 76.7066 91.56H76.5626ZM82.495 93H84.479V88.6C84.479 88.2587 84.5163 87.96 84.591 87.704C84.6763 87.4373 84.799 87.2187 84.959 87.048C85.1297 86.8667 85.3323 86.7333 85.567 86.648C85.8017 86.5627 86.079 86.52 86.399 86.52C86.5057 86.52 86.6123 86.5253 86.719 86.536C86.8363 86.5467 86.9323 86.5627 87.007 86.584V84.68H86.799C86.2763 84.68 85.8017 84.7813 85.375 84.984C84.959 85.176 84.6017 85.448 84.303 85.8C84.2817 85.6187 84.2443 85.4267 84.191 85.224C84.1483 85.0213 84.1003 84.84 84.047 84.68H82.495V93ZM88.5419 93H90.5259V84.68H88.5419V93ZM89.5179 83.384C89.8699 83.384 90.1525 83.288 90.3659 83.096C90.5899 82.904 90.7019 82.648 90.7019 82.328C90.7019 82.008 90.5899 81.7467 90.3659 81.544C90.1525 81.3413 89.8699 81.24 89.5179 81.24C89.1765 81.24 88.8992 81.3413 88.6859 81.544C88.4725 81.7467 88.3659 82.008 88.3659 82.328C88.3659 82.648 88.4725 82.904 88.6859 83.096C88.8992 83.288 89.1765 83.384 89.5179 83.384ZM92.0726 93H98.9526V91.4H94.4246V91.32L98.7606 86.232V84.68H92.3606V86.28H96.4086V86.36L92.0726 91.448V93ZM100.526 93H102.51V88.392C102.51 88.0613 102.558 87.7627 102.654 87.496C102.75 87.2293 102.884 87.0053 103.054 86.824C103.236 86.6427 103.454 86.504 103.71 86.408C103.966 86.3013 104.249 86.248 104.558 86.248C105.092 86.248 105.486 86.4027 105.742 86.712C106.009 87.0107 106.142 87.4693 106.142 88.088V93H108.126V87.672C108.126 86.6693 107.881 85.896 107.39 85.352C106.9 84.7973 106.206 84.52 105.31 84.52C104.756 84.52 104.238 84.6267 103.758 84.84C103.278 85.0427 102.862 85.3307 102.51 85.704V81.48H100.526V93ZM110.229 93H112.213V84.68H110.229V93ZM111.205 83.384C111.557 83.384 111.84 83.288 112.053 83.096C112.277 82.904 112.389 82.648 112.389 82.328C112.389 82.008 112.277 81.7467 112.053 81.544C111.84 81.3413 111.557 81.24 111.205 81.24C110.864 81.24 110.587 81.3413 110.373 81.544C110.16 81.7467 110.053 82.008 110.053 82.328C110.053 82.648 110.16 82.904 110.373 83.096C110.587 83.288 110.864 83.384 111.205 83.384ZM116.688 93.16C117.2 93.16 117.685 93.064 118.144 92.872C118.603 92.6693 119.008 92.392 119.36 92.04C119.381 92.2107 119.408 92.3867 119.44 92.568C119.483 92.7387 119.525 92.8827 119.568 93H121.456C121.381 92.7333 121.312 92.456 121.248 92.168C121.195 91.8693 121.168 91.576 121.168 91.288V87.528C121.168 87.0587 121.093 86.6373 120.944 86.264C120.805 85.8907 120.592 85.576 120.304 85.32C120.027 85.0533 119.685 84.8507 119.28 84.712C118.875 84.5733 118.421 84.504 117.92 84.504H117.776C117.157 84.504 116.555 84.6 115.968 84.792C115.381 84.984 114.832 85.2453 114.32 85.576L115.136 86.984C115.531 86.7067 115.941 86.4987 116.368 86.36C116.805 86.2213 117.232 86.152 117.648 86.152H117.728C118.24 86.152 118.624 86.2747 118.88 86.52C119.147 86.7547 119.28 87.08 119.28 87.496V87.864H118.624C117.024 87.864 115.84 88.088 115.072 88.536C114.304 88.9733 113.92 89.6453 113.92 90.552V90.696C113.92 91.0693 113.989 91.4107 114.128 91.72C114.267 92.0187 114.453 92.2747 114.688 92.488C114.933 92.7013 115.227 92.8667 115.568 92.984C115.909 93.1013 116.283 93.16 116.688 93.16ZM117.104 91.56C116.923 91.56 116.752 91.5333 116.592 91.48C116.432 91.4267 116.293 91.3573 116.176 91.272C116.069 91.1867 115.984 91.08 115.92 90.952C115.867 90.824 115.84 90.68 115.84 90.52V90.44C115.84 89.992 116.075 89.6667 116.544 89.464C117.024 89.2507 117.776 89.144 118.8 89.144H119.28V90.536C119.013 90.856 118.688 91.1067 118.304 91.288C117.931 91.4693 117.531 91.56 117.104 91.56Z" fill="#15141A"/>
<circle cx="80" cy="57" r="6" fill="#025ABB"/>
</svg>
