<svg width="148" height="190" viewBox="0 0 148 190" fill="none" xmlns="http://www.w3.org/2000/svg">
<path d="M28.6884 16.4452C31.2976 21.306 33.7591 17.2972 35.6003 14.5443C36.7572 -9.3062 47.6863 24.9897 58.4333 2.21276C62.8098 -0.293935 60.9834 5.21685 63.12 6.89618C72.0257 20.3309 66.5759 4.15803 82.1869 10.6341C84.4318 28.6143 86.012 16.2236 88.7099 23.6354C91.2009 26.3193 90.3492 18.5383 90.6495 17.0362C121.497 -13.5464 109.372 17.6617 124.933 26.802C132.919 34.6668 115.437 39.4093 122.398 50.1107C127.06 44.6394 127.745 52.9622 131.146 53.5777C134.543 55.7988 130.132 60.3689 131.146 63.8704C129.138 62.7624 125.839 61.9005 127.784 65.4907C132.648 69.0168 134.396 75.3057 132.732 80.9494C137.512 79.7872 139.924 86.0318 137.591 89.7056C128.596 96.3491 135.508 98.2057 132.928 103.352C130.314 103.761 132.884 105.238 133.317 106.263C133.327 110.389 131.2 108.646 130.048 110.153C133.386 112.473 129.512 111.754 129.093 113.211C130.915 115.654 136.207 110.291 137.586 115.314C138.679 116.861 138.285 123.051 140.825 122.43C146.26 126.055 142.184 133.107 146.181 136.939C148.077 143.878 140.416 139.628 143.838 147.566C141.637 149.615 146.147 153.826 146.742 155.786C143.498 161.425 136.635 166.266 130.723 168.255C128.124 169.531 132.525 171.678 128.66 176.494C131.013 176.302 134.597 177.587 130.949 179.946C129.079 185.127 102.361 192.908 104.631 183.896C97.9405 176.47 108.451 176.642 102.928 172.382C99.2894 163.069 100.304 156.869 90.5855 165.714C87.8089 173.012 78.529 166.95 72.3211 167.866C68.5944 173.431 66.8467 169.348 61.9581 170.107C46.3325 173.303 24.7696 173.628 21.8257 156.066C27.7727 154.254 16.2577 148.881 25.7493 150.403C33.8329 145.109 22.8447 146.67 27.6594 140.46C24.8336 137.234 30.4557 137.766 25.3751 132.851C25.0207 131.502 25.8921 129.527 25.1635 128.242C22.5198 127.715 22.8644 133.299 18.9309 131.123C17.8872 130.694 18.9506 128.793 17.6214 128.429C14.2393 127.611 17.0306 126.685 13.5254 126.178C14.9925 122.829 8.9421 122.371 7.76057 119.727C7.9378 117.373 5.42706 117.88 4.10277 116.994C1.64126 112.153 10.8375 107.691 6.43628 107.617C-2.43009 99.9688 7.58825 101.855 1.68555 95.9994C2.84246 89.7204 9.28176 86.9822 3.89105 80.3289C2.60614 77.6154 4.55567 73.8283 4.38828 71.0507C3.95013 69.9032 2.05479 68.6917 3.97969 67.9333C4.13231 65.0474 0.799412 62.5555 3.04923 59.2461C9.95624 56.7296 18.1432 39.5029 14.7759 33.1647C17.5722 33.3913 21.993 30.0572 18.67 27.6983C18.4189 25.3048 18.99 16.7013 21.7223 23.2759C29.5843 30.0227 17.9561 16.2039 28.6982 16.4305L28.6884 16.4452Z" fill="white" stroke="#025ABB" stroke-width="2" stroke-linecap="round" stroke-linejoin="round"/>
<path d="M38.512 111H46.512V109.144H41.12V109L46.368 101.4V99.8H38.848V101.656H43.808V101.752L38.512 109.416V111ZM48.2138 111H50.1978V106.392C50.1978 106.061 50.2458 105.763 50.3418 105.496C50.4378 105.229 50.5711 105.005 50.7418 104.824C50.9231 104.643 51.1418 104.504 51.3978 104.408C51.6538 104.301 51.9364 104.248 52.2458 104.248C52.7791 104.248 53.1738 104.403 53.4298 104.712C53.6964 105.011 53.8298 105.469 53.8298 106.088V111H55.8138V105.672C55.8138 104.669 55.5684 103.896 55.0778 103.352C54.5871 102.797 53.8938 102.52 52.9978 102.52C52.4431 102.52 51.9258 102.627 51.4458 102.84C50.9658 103.043 50.5498 103.331 50.1978 103.704V99.48H48.2138V111ZM58.8051 114.216C59.2318 114.216 59.6158 114.147 59.9571 114.008C60.3091 113.88 60.6185 113.693 60.8851 113.448C61.1625 113.213 61.4025 112.925 61.6051 112.584C61.8078 112.243 61.9785 111.853 62.1171 111.416L64.9651 102.68H62.9651L61.1251 109.064H61.0131L58.6451 102.68H56.5491L60.0531 111.352C59.8718 111.736 59.6425 112.024 59.3651 112.216C59.0878 112.419 58.7838 112.52 58.4531 112.52C58.2611 112.52 58.0638 112.493 57.8611 112.44C57.6691 112.387 57.4825 112.312 57.3011 112.216V113.912C57.5251 114.029 57.7758 114.109 58.0531 114.152C58.3305 114.195 58.5811 114.216 58.8051 114.216ZM68.9799 111.08C69.2679 111.08 69.5985 111.053 69.9719 111C70.3559 110.947 70.6705 110.867 70.9159 110.76V109.192C70.8412 109.224 70.7399 109.251 70.6119 109.272C70.4945 109.293 70.3719 109.315 70.2439 109.336C70.1265 109.347 70.0039 109.357 69.8759 109.368C69.7479 109.368 69.6412 109.368 69.5559 109.368C69.2252 109.368 68.9745 109.283 68.8039 109.112C68.6332 108.941 68.5479 108.627 68.5479 108.168V104.28H70.8359V102.68H68.5639V100.52L66.5799 100.76V102.696C66.3985 102.707 66.2065 102.739 66.0039 102.792C65.8119 102.835 65.6412 102.883 65.4919 102.936V104.28H66.5799V108.552C66.5799 108.989 66.6332 109.368 66.7399 109.688C66.8572 109.997 67.0172 110.259 67.2199 110.472C67.4225 110.675 67.6679 110.829 67.9559 110.936C68.2545 111.032 68.5959 111.08 68.9799 111.08ZM75.9064 111.144H76.0664C76.6637 111.144 77.213 111.048 77.7144 110.856C78.2157 110.653 78.6477 110.371 79.0104 110.008C79.373 109.645 79.6557 109.213 79.8584 108.712C80.061 108.211 80.1624 107.667 80.1624 107.08V106.6C80.1624 106.003 80.061 105.459 79.8584 104.968C79.6557 104.467 79.373 104.035 79.0104 103.672C78.6477 103.309 78.2157 103.032 77.7144 102.84C77.213 102.637 76.6637 102.536 76.0664 102.536H75.9064C75.2984 102.536 74.7437 102.637 74.2424 102.84C73.741 103.032 73.309 103.309 72.9464 103.672C72.5837 104.035 72.301 104.467 72.0984 104.968C71.9064 105.459 71.8104 106.003 71.8104 106.6V107.08C71.8104 107.667 71.9064 108.211 72.0984 108.712C72.301 109.213 72.5837 109.645 72.9464 110.008C73.309 110.371 73.741 110.653 74.2424 110.856C74.7437 111.048 75.2984 111.144 75.9064 111.144ZM75.9064 109.56C75.597 109.56 75.3144 109.501 75.0584 109.384C74.813 109.267 74.5997 109.096 74.4184 108.872C74.2477 108.637 74.109 108.365 74.0024 108.056C73.9064 107.736 73.8584 107.384 73.8584 107V106.616C73.8584 106.243 73.9064 105.901 74.0024 105.592C74.109 105.283 74.253 105.021 74.4344 104.808C74.6157 104.584 74.829 104.413 75.0744 104.296C75.3304 104.179 75.6077 104.12 75.9064 104.12H76.0504C76.349 104.12 76.6264 104.179 76.8824 104.296C77.1384 104.413 77.3517 104.584 77.5224 104.808C77.7037 105.021 77.8424 105.283 77.9384 105.592C78.045 105.901 78.0984 106.243 78.0984 106.616V107C78.0984 107.384 78.0504 107.736 77.9544 108.056C77.8584 108.365 77.7197 108.637 77.5384 108.872C77.357 109.096 77.1384 109.267 76.8824 109.384C76.637 109.501 76.3597 109.56 76.0504 109.56H75.9064ZM81.8548 111H83.8388V106.264C83.8388 105.933 83.8761 105.645 83.9508 105.4C84.0254 105.144 84.1374 104.936 84.2868 104.776C84.4361 104.605 84.6121 104.477 84.8148 104.392C85.0281 104.296 85.2681 104.248 85.5348 104.248H85.5988C85.8228 104.248 86.0148 104.285 86.1748 104.36C86.3454 104.424 86.4841 104.525 86.5908 104.664C86.6974 104.803 86.7774 104.979 86.8308 105.192C86.8948 105.395 86.9268 105.64 86.9268 105.928V111H88.9108V106.264C88.9108 105.933 88.9481 105.645 89.0228 105.4C89.1081 105.144 89.2254 104.931 89.3748 104.76C89.5241 104.589 89.7054 104.461 89.9188 104.376C90.1321 104.291 90.3668 104.248 90.6228 104.248H90.6868C90.9108 104.248 91.1028 104.28 91.2628 104.344C91.4334 104.408 91.5721 104.509 91.6788 104.648C91.7854 104.787 91.8654 104.963 91.9188 105.176C91.9721 105.389 91.9988 105.64 91.9988 105.928V111H93.9828V105.576C93.9828 104.584 93.7588 103.827 93.3108 103.304C92.8734 102.781 92.2281 102.52 91.3748 102.52H91.2948C90.7401 102.52 90.2281 102.643 89.7587 102.888C89.3001 103.133 88.9108 103.475 88.5908 103.912C88.3881 103.453 88.0948 103.107 87.7108 102.872C87.3268 102.637 86.8521 102.52 86.2868 102.52H86.2068C85.6841 102.52 85.2041 102.632 84.7668 102.856C84.3401 103.069 83.9668 103.368 83.6468 103.752C83.6254 103.571 83.5934 103.384 83.5508 103.192C83.5081 102.989 83.4654 102.819 83.4228 102.68H81.8548V111ZM96.9614 114.216C97.388 114.216 97.772 114.147 98.1134 114.008C98.4654 113.88 98.7747 113.693 99.0414 113.448C99.3187 113.213 99.5587 112.925 99.7614 112.584C99.964 112.243 100.135 111.853 100.273 111.416L103.121 102.68H101.121L99.2814 109.064H99.1694L96.8014 102.68H94.7054L98.2094 111.352C98.028 111.736 97.7987 112.024 97.5214 112.216C97.244 112.419 96.94 112.52 96.6094 112.52C96.4174 112.52 96.22 112.493 96.0174 112.44C95.8254 112.387 95.6387 112.312 95.4574 112.216V113.912C95.6814 114.029 95.932 114.109 96.2094 114.152C96.4867 114.195 96.7374 114.216 96.9614 114.216ZM104.292 111H106.276V106.6C106.276 106.259 106.313 105.96 106.388 105.704C106.473 105.437 106.596 105.219 106.756 105.048C106.927 104.867 107.129 104.733 107.364 104.648C107.599 104.563 107.876 104.52 108.196 104.52C108.303 104.52 108.409 104.525 108.516 104.536C108.633 104.547 108.729 104.563 108.804 104.584V102.68H108.596C108.073 102.68 107.599 102.781 107.172 102.984C106.756 103.176 106.399 103.448 106.1 103.8C106.079 103.619 106.041 103.427 105.988 103.224C105.945 103.021 105.897 102.84 105.844 102.68H104.292V111Z" fill="#15141A"/>
<circle cx="47" cy="79" r="6" fill="#FCD800"/>
</svg>
