<svg width="41" height="40" viewBox="0 0 41 40" fill="none" xmlns="http://www.w3.org/2000/svg">
<g clip-path="url(#clip0_256_400)">
<path d="M6.35938 40H19.4062V25.7812H14.7188V21.0938H19.4062V15.2344C19.4062 12.0035 22.0347 9.375 25.2656 9.375H31.125V14.0625H26.4375C25.1451 14.0625 24.0938 15.1138 24.0938 16.4062V21.0938H30.9135L30.1323 25.7812H24.0938V40H34.6406C37.8715 40 40.5 37.3715 40.5 34.1406V5.85938C40.5 2.62848 37.8715 0 34.6406 0H6.35938C3.12848 0 0.5 2.62848 0.5 5.85938V34.1406C0.5 37.3715 3.12848 40 6.35938 40ZM2.84375 5.85938C2.84375 3.9209 4.4209 2.34375 6.35938 2.34375H34.6406C36.5791 2.34375 38.1562 3.9209 38.1562 5.85938V34.1406C38.1562 36.0791 36.5791 37.6562 34.6406 37.6562H26.4375V28.125H32.1177L33.6802 18.75H26.4375V16.4062H33.4688V7.03125H25.2656C20.7423 7.03125 17.0625 10.7111 17.0625 15.2344V18.75H12.375V28.125H17.0625V37.6562H6.35938C4.4209 37.6562 2.84375 36.0791 2.84375 34.1406V5.85938Z" fill="white"/>
</g>
<defs>
<clipPath id="clip0_256_400">
<rect width="40" height="40" fill="white" transform="translate(0.5)"/>
</clipPath>
</defs>
</svg>
