<svg width="72" height="72" viewBox="0 0 72 72" fill="none" xmlns="http://www.w3.org/2000/svg">
<circle cx="36" cy="36" r="36" fill="#025ABB"/>
<path d="M36 0C16.1168 0 0 16.119 0 36C0 55.881 16.1168 72 36 72C55.881 72 72 55.881 72 36C72 16.119 55.8832 0 36 0ZM36.3893 55.341C25.704 55.341 17.0483 46.6853 17.0483 36C17.0483 25.3147 25.704 16.659 36.3893 16.659C41.6115 16.659 45.9765 18.5828 49.3222 21.699L43.8705 27.1508V27.1395C41.841 25.2045 39.2648 24.2145 36.3893 24.2145C30.0083 24.2145 24.822 29.6055 24.822 35.9865C24.822 42.3675 30.0083 47.772 36.3893 47.772C42.1785 47.772 46.1205 44.46 46.9305 39.915H36.3893V32.3708H54.5805C54.8212 33.6623 54.954 35.019 54.954 36.432C54.954 47.484 47.556 55.341 36.3893 55.341Z" fill="#FCD800"/>
</svg>
