<svg width="169" height="58" viewBox="0 0 169 58" fill="none" xmlns="http://www.w3.org/2000/svg">
<path d="M9.984 46.7319H10.304C10.944 46.7319 11.5733 46.6572 12.192 46.5079C12.832 46.3799 13.4293 46.1879 13.984 45.9319C14.5387 45.6759 15.0293 45.3772 15.456 45.0359C15.904 44.6946 16.2773 44.3212 16.576 43.9159C16.5973 44.3639 16.6613 44.8332 16.768 45.3239C16.8747 45.7932 16.992 46.1559 17.12 46.4119H20.16V34.5079H11.264V38.0279H16.288V38.5079C16.288 39.1479 16.1493 39.7452 15.872 40.2999C15.616 40.8332 15.2533 41.3026 14.784 41.7079C14.3147 42.1132 13.76 42.4332 13.12 42.6679C12.5013 42.9026 11.8187 43.0199 11.072 43.0199H10.752C9.77067 43.0199 8.88533 42.8492 8.096 42.5079C7.30667 42.1452 6.63467 41.6439 6.08 41.0039C5.52533 40.3426 5.09867 39.5532 4.8 38.6359C4.50133 37.7186 4.352 36.6946 4.352 35.5639V34.8919C4.352 33.7612 4.50133 32.7372 4.8 31.8199C5.09867 30.8812 5.51467 30.0919 6.048 29.4519C6.60267 28.7906 7.264 28.2786 8.032 27.9159C8.82133 27.5532 9.68533 27.3719 10.624 27.3719H10.944C12.1173 27.3719 13.1413 27.6599 14.016 28.2359C14.8907 28.7906 15.6267 29.6226 16.224 30.7319L19.584 28.5879C19.1147 27.8199 18.56 27.1266 17.92 26.5079C17.3013 25.8892 16.6187 25.3772 15.872 24.9719C15.1253 24.5452 14.336 24.2252 13.504 24.0119C12.672 23.7772 11.808 23.6599 10.912 23.6599H10.56C9.00267 23.6599 7.57333 23.9372 6.272 24.4919C4.97067 25.0252 3.85067 25.7932 2.912 26.7959C1.99467 27.7772 1.28 28.9612 0.768 30.3479C0.256 31.7346 0 33.2599 0 34.9239V35.5319C0 37.2172 0.234667 38.7532 0.704 40.1399C1.17333 41.5052 1.84533 42.6786 2.72 43.6599C3.59467 44.6412 4.64 45.3986 5.856 45.9319C7.09333 46.4652 8.46933 46.7319 9.984 46.7319Z" fill="black"/>
<path d="M31.2515 46.6999H31.5715C32.7662 46.6999 33.8648 46.5079 34.8675 46.1239C35.8702 45.7186 36.7342 45.1532 37.4595 44.4279C38.1848 43.7026 38.7502 42.8386 39.1555 41.8359C39.5608 40.8332 39.7635 39.7452 39.7635 38.5719V37.6119C39.7635 36.4172 39.5608 35.3292 39.1555 34.3479C38.7502 33.3452 38.1848 32.4812 37.4595 31.7559C36.7342 31.0306 35.8702 30.4759 34.8675 30.0919C33.8648 29.6866 32.7662 29.4839 31.5715 29.4839H31.2515C30.0355 29.4839 28.9262 29.6866 27.9235 30.0919C26.9208 30.4759 26.0568 31.0306 25.3315 31.7559C24.6062 32.4812 24.0408 33.3452 23.6355 34.3479C23.2515 35.3292 23.0595 36.4172 23.0595 37.6119V38.5719C23.0595 39.7452 23.2515 40.8332 23.6355 41.8359C24.0408 42.8386 24.6062 43.7026 25.3315 44.4279C26.0568 45.1532 26.9208 45.7186 27.9235 46.1239C28.9262 46.5079 30.0355 46.6999 31.2515 46.6999ZM31.2515 43.5319C30.6328 43.5319 30.0675 43.4146 29.5555 43.1799C29.0648 42.9452 28.6382 42.6039 28.2755 42.1559C27.9342 41.6866 27.6568 41.1426 27.4435 40.5239C27.2515 39.8839 27.1555 39.1799 27.1555 38.4119V37.6439C27.1555 36.8972 27.2515 36.2146 27.4435 35.5959C27.6568 34.9772 27.9448 34.4546 28.3075 34.0279C28.6702 33.5799 29.0968 33.2386 29.5875 33.0039C30.0995 32.7692 30.6542 32.6519 31.2515 32.6519H31.5395C32.1368 32.6519 32.6915 32.7692 33.2035 33.0039C33.7155 33.2386 34.1422 33.5799 34.4835 34.0279C34.8462 34.4546 35.1235 34.9772 35.3155 35.5959C35.5288 36.2146 35.6355 36.8972 35.6355 37.6439V38.4119C35.6355 39.1799 35.5395 39.8839 35.3475 40.5239C35.1555 41.1426 34.8782 41.6866 34.5155 42.1559C34.1528 42.6039 33.7155 42.9452 33.2035 43.1799C32.7128 43.4146 32.1582 43.5319 31.5395 43.5319H31.2515Z" fill="black"/>
<path d="M101.4 43.4118H104.376V37.5079H104.568L109.08 43.4118H112.656L107.232 36.7158L112.488 30.9318H109.152L104.568 36.1878H104.376V26.1319H101.4V43.4118Z" fill="black"/>
<path d="M114.455 43.4118H117.431V36.8119C117.431 36.2999 117.487 35.8519 117.599 35.4679C117.727 35.0679 117.911 34.7399 118.151 34.4839C118.407 34.2119 118.711 34.0119 119.063 33.8839C119.415 33.7559 119.831 33.6918 120.311 33.6918C120.471 33.6918 120.631 33.6999 120.791 33.7159C120.967 33.7319 121.111 33.7559 121.223 33.7879V30.9318H120.911C120.127 30.9318 119.415 31.0838 118.775 31.3878C118.151 31.6759 117.615 32.0839 117.167 32.6119C117.135 32.3399 117.079 32.0519 116.999 31.7479C116.935 31.4439 116.863 31.1719 116.783 30.9318H114.455V43.4118Z" fill="black"/>
<path d="M126.697 43.6519C127.465 43.6519 128.193 43.5079 128.881 43.2199C129.569 42.9159 130.177 42.4999 130.705 41.9719C130.737 42.2279 130.777 42.4919 130.825 42.7639C130.889 43.0199 130.953 43.2358 131.017 43.4118H133.849C133.737 43.0119 133.633 42.5959 133.537 42.1639C133.457 41.7159 133.417 41.2759 133.417 40.8439V35.2039C133.417 34.4999 133.305 33.8679 133.081 33.3078C132.873 32.7478 132.553 32.2759 132.121 31.8919C131.705 31.4919 131.193 31.1879 130.585 30.9799C129.977 30.7719 129.297 30.6679 128.545 30.6679H128.329C127.401 30.6679 126.497 30.8119 125.617 31.0999C124.737 31.3879 123.913 31.7799 123.145 32.2759L124.369 34.3879C124.961 33.9719 125.577 33.6599 126.217 33.4518C126.873 33.2438 127.513 33.1398 128.137 33.1398H128.257C129.025 33.1398 129.601 33.3238 129.985 33.6918C130.385 34.0438 130.585 34.5319 130.585 35.1559V35.7079H129.601C127.201 35.7079 125.425 36.0438 124.273 36.7158C123.121 37.3719 122.545 38.3799 122.545 39.7399V39.9559C122.545 40.5159 122.649 41.0279 122.857 41.4919C123.065 41.9399 123.345 42.3239 123.697 42.6439C124.065 42.9639 124.505 43.2119 125.017 43.3879C125.529 43.5639 126.089 43.6519 126.697 43.6519ZM127.321 41.2519C127.049 41.2519 126.793 41.2119 126.553 41.1319C126.313 41.0519 126.105 40.9479 125.929 40.8198C125.769 40.6918 125.641 40.5319 125.545 40.3399C125.465 40.1479 125.425 39.9319 125.425 39.6919V39.5719C125.425 38.8999 125.777 38.4118 126.481 38.1079C127.201 37.7879 128.329 37.6279 129.865 37.6279H130.585V39.7158C130.185 40.1959 129.697 40.5718 129.121 40.8439C128.561 41.1159 127.961 41.2519 127.321 41.2519Z" fill="black"/>
<path d="M136.72 43.4118H139.696V30.9318H136.72V43.4118ZM138.184 28.9879C138.712 28.9879 139.136 28.8439 139.456 28.5559C139.792 28.2678 139.96 27.8839 139.96 27.4038C139.96 26.9239 139.792 26.5319 139.456 26.2279C139.136 25.9239 138.712 25.7719 138.184 25.7719C137.672 25.7719 137.256 25.9239 136.936 26.2279C136.616 26.5319 136.456 26.9239 136.456 27.4038C136.456 27.8839 136.616 28.2678 136.936 28.5559C137.256 28.8439 137.672 28.9879 138.184 28.9879Z" fill="black"/>
<path d="M143.072 43.4118H146.048V36.5959C146.048 36.0839 146.12 35.6279 146.264 35.2279C146.408 34.8279 146.608 34.4839 146.864 34.1959C147.136 33.8919 147.456 33.6679 147.824 33.5239C148.192 33.3639 148.608 33.2839 149.072 33.2839H149.216C150 33.2839 150.576 33.5159 150.944 33.9799C151.312 34.4439 151.496 35.1319 151.496 36.0439V43.4118H154.472V35.4199C154.472 33.8998 154.104 32.7319 153.368 31.9159C152.648 31.0999 151.6 30.6918 150.224 30.6918H150.08C149.2 30.6918 148.392 30.8758 147.656 31.2438C146.936 31.5958 146.312 32.0839 145.784 32.7079C145.752 32.4359 145.704 32.1318 145.64 31.7958C145.576 31.4599 145.504 31.1719 145.424 30.9318H143.072V43.4118Z" fill="black"/>
<path d="M162.93 43.6278H163.242C163.754 43.6278 164.25 43.5718 164.73 43.4599C165.21 43.3479 165.666 43.1958 166.098 43.0038C166.546 42.8118 166.954 42.5719 167.322 42.2839C167.706 41.9959 168.042 41.6759 168.33 41.3239L166.698 39.5239C166.33 39.9719 165.866 40.3559 165.306 40.6759C164.762 40.9799 164.114 41.1319 163.362 41.1319H163.122C162.642 41.1319 162.202 41.0599 161.802 40.9159C161.402 40.7719 161.058 40.5718 160.77 40.3159C160.498 40.0599 160.274 39.7479 160.098 39.3799C159.922 38.9959 159.81 38.5718 159.762 38.1079V38.0838H168.714V36.4759C168.714 35.6278 168.578 34.8519 168.306 34.1479C168.034 33.4439 167.65 32.8359 167.154 32.3239C166.658 31.8119 166.066 31.4199 165.378 31.1479C164.69 30.8598 163.93 30.7158 163.098 30.7158H162.858C161.946 30.7158 161.122 30.8759 160.386 31.1959C159.65 31.4999 159.01 31.9319 158.466 32.4919C157.938 33.0359 157.53 33.6919 157.242 34.4599C156.954 35.2279 156.81 36.0758 156.81 37.0038V37.4839C156.81 38.3959 156.954 39.2358 157.242 40.0038C157.53 40.7558 157.938 41.4038 158.466 41.9478C159.01 42.4758 159.658 42.8918 160.41 43.1959C161.178 43.4839 162.018 43.6278 162.93 43.6278ZM159.81 36.0919C159.89 35.6119 160.01 35.1878 160.17 34.8198C160.346 34.4359 160.562 34.1159 160.818 33.8598C161.074 33.6038 161.37 33.4039 161.706 33.2599C162.042 33.1159 162.418 33.0439 162.834 33.0439H163.05C163.466 33.0439 163.842 33.1159 164.178 33.2599C164.514 33.4039 164.802 33.6038 165.042 33.8598C165.298 34.1159 165.49 34.4278 165.618 34.7958C165.762 35.1638 165.842 35.5719 165.858 36.0199V36.0919H159.81Z" fill="black"/>
<g clip-path="url(#clip0_327_10981)">
<path fill-rule="evenodd" clip-rule="evenodd" d="M86.0325 30.5396C86.9931 19.3601 88.4214 8.65659 96.4214 4.61113C97.0163 17.9623 96.5093 32.4252 96.676 46.2032H87.5556C86.1829 51.1469 83.3519 54.6131 79.9538 57.5023C76.1112 54.9719 73.2732 51.433 72.0973 46.2032H62.72V4.60878C71.0093 8.36344 72.3982 19.1091 73.3635 30.284C69.0302 29.7094 68.6436 36.8623 72.8565 36.1915C74.9792 35.8491 77.4839 29.3905 77.9237 23.6072C78.5811 14.9839 75.9376 4.46573 79.6968 0.5C83.5371 4.20306 80.882 13.9567 81.4723 22.838C81.7015 26.2948 83.6968 35.5536 86.2848 36.1915C90.4306 37.2047 90.9167 29.618 86.0302 30.5373L86.0325 30.5396ZM65.507 11.7968V27.4604C65.507 28.966 64.889 31.201 66.2686 32.0828C67.6112 31.6278 68.4399 28.9379 70.0695 27.974C69.3357 21.5294 69.3218 14.3507 65.507 11.0299V11.7992V11.7968ZM89.3288 28.2319C91.4746 28.7104 91.2177 31.6254 93.382 32.0828C94.3913 26.1682 93.8982 17.369 93.6366 11.0299C90.2894 14.8245 90.0348 21.7569 89.3288 28.2319ZM76.4052 37.2187C77.8265 37.6596 78.4769 38.8885 79.9538 39.2708C80.8265 38.3585 82.2084 37.9622 82.9931 36.9584C81.3403 35.0401 80.9954 31.7943 79.4468 29.7681C78.8913 32.7136 77.6829 34.9955 76.4052 37.2164V37.2187ZM65.5093 43.3796H71.845C71.9815 41.9771 72.2153 40.6732 72.3519 39.2731C69.4538 38.8698 68.0602 36.942 66.7755 34.9087H65.5093V43.3796ZM92.3704 34.9087C91.6922 37.472 89.7223 38.7314 87.0487 39.2731C87.2015 40.6545 87.5695 41.827 87.5579 43.3796H93.8936V34.9087H92.3704ZM74.8843 43.3796H78.1783C77.9839 41.4354 77.1482 40.1455 75.139 40.0424C75.0718 41.1751 74.7339 42.0287 74.8843 43.3796ZM81.2223 43.3796H84.5163C84.6644 42.0287 84.3265 41.1727 84.2616 40.0424C82.1991 40.0939 81.4954 41.5175 81.2223 43.3796ZM78.1806 52.1107V46.2032H75.3936C75.5996 48.9072 76.8195 50.5817 78.1806 52.1107ZM81.4769 52.1107C82.5718 50.3964 83.9862 49.0033 84.007 46.2032H81.2223C81.389 48.0911 80.8866 50.652 81.4769 52.1107Z" fill="#FCD800"/>
<path fill-rule="evenodd" clip-rule="evenodd" d="M86.0327 30.5368C86.0326 30.5377 86.0325 30.5387 86.0325 30.5396L86.0302 30.5373C86.031 30.5371 86.0319 30.537 86.0327 30.5368ZM96.6728 31.5C96.6752 31.108 96.6777 30.7159 96.6802 30.3239C96.7354 21.6111 96.7906 12.897 96.4214 4.61113C88.422 8.65625 86.9934 19.3583 86.0327 30.5368C87.4696 30.2673 88.4416 30.7334 88.9923 31.5H92.2784C91.8896 31.1298 91.6162 30.6425 91.3427 30.1551C90.8701 29.3127 90.3974 28.4702 89.3288 28.2319C89.4187 27.4073 89.5013 26.5753 89.5839 25.7433C90.1498 20.042 90.7157 14.3412 93.6366 11.0299C93.6585 11.5604 93.682 12.108 93.7061 12.6698C93.9609 18.6043 94.2831 26.1116 93.4753 31.5H96.6728ZM62.72 31.5V4.60878C71.0093 8.36344 72.3982 19.1091 73.3635 30.284C72.0277 30.1069 71.0669 30.6641 70.5003 31.5H67.0942C67.4333 31.1417 67.7539 30.6709 68.0872 30.1814C68.6584 29.3424 69.2668 28.4488 70.0695 27.974C69.9526 26.9474 69.854 25.9022 69.7554 24.8569C69.2348 19.3402 68.7141 13.8217 65.507 11.0299V11.7968V11.7992V27.4604C65.507 27.8038 65.4749 28.1851 65.4416 28.5797C65.3548 29.6094 65.2604 30.7292 65.7099 31.5H62.72ZM76.1907 31.5C77.0549 29.1893 77.7171 26.3238 77.9237 23.6072C78.1509 20.6263 77.9837 17.419 77.8229 14.3342C77.5186 8.49507 77.2371 3.09486 79.6968 0.5C82.2243 2.93717 81.9382 7.99523 81.6156 13.7005C81.448 16.6639 81.2705 19.8019 81.4723 22.838C81.5996 24.7588 82.2723 28.4709 83.2889 31.5H80.4322C80.1537 30.8721 79.8388 30.281 79.4468 29.7681C79.333 30.3715 79.1918 30.9471 79.0282 31.5H76.1907Z" fill="#025ABB"/>
</g>
<defs>
<clipPath id="clip0_327_10981">
<rect width="34" height="57" fill="white" transform="translate(62.72 0.5)"/>
</clipPath>
</defs>
</svg>
