<svg width="33" height="32" viewBox="0 0 33 32" fill="none" xmlns="http://www.w3.org/2000/svg">
<path d="M28.2867 6.14666C27.6057 5.46533 26.7971 4.92485 25.9071 4.5561C25.0172 4.18735 24.0633 3.99756 23.1 3.99756C22.1367 3.99756 21.1828 4.18735 20.2929 4.5561C19.4029 4.92485 18.5943 5.46533 17.9133 6.14666L16.5 7.55999L15.0867 6.14666C13.7111 4.77107 11.8454 3.99827 9.9 3.99827C7.95462 3.99827 6.08892 4.77107 4.71333 6.14666C3.33774 7.52225 2.56494 9.38795 2.56494 11.3333C2.56494 13.2787 3.33774 15.1444 4.71333 16.52L6.12666 17.9333L16.5 28.3067L26.8733 17.9333L28.2867 16.52C28.968 15.839 29.5085 15.0304 29.8772 14.1405C30.246 13.2505 30.4358 12.2966 30.4358 11.3333C30.4358 10.37 30.246 9.41613 29.8772 8.52619C29.5085 7.63624 28.968 6.82767 28.2867 6.14666Z" stroke="#15141A" stroke-width="2" stroke-linecap="round" stroke-linejoin="round"/>
</svg>
