<svg width="33" height="32" viewBox="0 0 33 32" fill="none" xmlns="http://www.w3.org/2000/svg">
<path d="M23.3358 11.0953L23.3381 11.0976C23.369 11.1285 23.3936 11.1653 23.4104 11.2057L29.8772 8.52619L23.4104 11.2057C23.4271 11.2462 23.4358 11.2895 23.4358 11.3333C23.4358 11.3771 23.4271 11.4205 23.4104 11.4609L29.8772 14.1405L23.4104 11.4609C23.3936 11.5014 23.369 11.5381 23.3381 11.5691L23.3369 11.5702L21.9236 12.9836L16.5 18.4072L11.0764 12.9836L9.66308 11.5702C9.60024 11.5074 9.56494 11.4222 9.56494 11.3333C9.56494 11.2445 9.60024 11.1592 9.66308 11.0964C9.72591 11.0336 9.81113 10.9983 9.9 10.9983C9.98886 10.9983 10.0741 11.0336 10.1369 11.0964L15.0867 6.14666L10.1369 11.0964L11.5502 12.5097C14.2839 15.2434 18.7161 15.2434 21.4497 12.5097L22.8631 11.0964L22.8642 11.0952C22.8952 11.0643 22.9319 11.0397 22.9724 11.0229C23.0128 11.0062 23.0562 10.9976 23.1 10.9976C23.1438 10.9976 23.1871 11.0062 23.2276 11.0229L25.9071 4.5561L23.2276 11.0229C23.268 11.0397 23.3048 11.0643 23.3358 11.0953Z" stroke="#15141A" stroke-width="14" stroke-linecap="round" stroke-linejoin="round"/>
</svg>
