<svg width="29" height="26" viewBox="0 0 29 26" fill="none" xmlns="http://www.w3.org/2000/svg">
<path d="M21.3358 8.09525L21.3381 8.09757C21.369 8.12852 21.3936 8.16527 21.4104 8.20573C21.4271 8.24619 21.4358 8.28955 21.4358 8.33333C21.4358 8.3771 21.4271 8.42046 21.4104 8.46092C21.3936 8.50138 21.369 8.53813 21.3381 8.56908L21.3369 8.57024L19.9236 9.98358L14.5 15.4072L9.07641 9.98358L7.66308 8.57024C7.60024 8.50741 7.56494 8.42219 7.56494 8.33333C7.56494 8.24446 7.60024 8.15924 7.66308 8.09641C7.72591 8.03357 7.81113 7.99827 7.9 7.99827C7.98886 7.99827 8.07408 8.03357 8.13691 8.09641L13.0867 3.14666L8.13692 8.09641L9.55025 9.50974C12.2839 12.2434 16.7161 12.2434 19.4497 9.50974L20.8631 8.09641L20.8642 8.09524C20.8952 8.06427 20.9319 8.03971 20.9724 8.02295C21.0128 8.00619 21.0562 7.99756 21.1 7.99756C21.1438 7.99756 21.1871 8.00619 21.2276 8.02295C21.268 8.03971 21.3048 8.06428 21.3358 8.09525Z" stroke="#15141A" stroke-width="14" stroke-linecap="round" stroke-linejoin="round"/>
</svg>
