<svg width="41" height="40" viewBox="0 0 41 40" fill="none" xmlns="http://www.w3.org/2000/svg">
<g clip-path="url(#clip0_256_396)">
<path d="M6.35938 40H34.6406C37.8715 40 40.5 37.3715 40.5 34.1406V5.85938C40.5 2.62848 37.8715 0 34.6406 0H6.35938C3.12848 0 0.5 2.62848 0.5 5.85938V34.1406C0.5 37.3715 3.12848 40 6.35938 40ZM2.84375 5.85938C2.84375 3.9209 4.4209 2.34375 6.35938 2.34375H34.6406C36.5791 2.34375 38.1562 3.9209 38.1562 5.85938V34.1406C38.1562 36.0791 36.5791 37.6562 34.6406 37.6562H6.35938C4.4209 37.6562 2.84375 36.0791 2.84375 34.1406V5.85938Z" fill="white"/>
<path d="M20.5 30.5469C26.3154 30.5469 31.0469 25.8154 31.0469 20C31.0469 14.1846 26.3154 9.45312 20.5 9.45312C14.6846 9.45312 9.95312 14.1846 9.95312 20C9.95312 25.8154 14.6846 30.5469 20.5 30.5469ZM20.5 11.7969C25.0233 11.7969 28.7031 15.4767 28.7031 20C28.7031 24.5233 25.0233 28.2031 20.5 28.2031C15.9767 28.2031 12.2969 24.5233 12.2969 20C12.2969 15.4767 15.9767 11.7969 20.5 11.7969Z" fill="white"/>
<path d="M32.2188 11.7969C34.1572 11.7969 35.7344 10.2197 35.7344 8.28125C35.7344 6.34277 34.1572 4.76562 32.2188 4.76562C30.2803 4.76562 28.7031 6.34277 28.7031 8.28125C28.7031 10.2197 30.2803 11.7969 32.2188 11.7969ZM32.2188 7.10938C32.8648 7.10938 33.3906 7.63519 33.3906 8.28125C33.3906 8.92731 32.8648 9.45312 32.2188 9.45312C31.5727 9.45312 31.0469 8.92731 31.0469 8.28125C31.0469 7.63519 31.5727 7.10938 32.2188 7.10938Z" fill="white"/>
</g>
<defs>
<clipPath id="clip0_256_396">
<rect width="40" height="40" fill="white" transform="translate(0.5)"/>
</clipPath>
</defs>
</svg>
