<svg width="80" height="16" viewBox="0 0 80 16" fill="none" xmlns="http://www.w3.org/2000/svg">
<mask id="path-1-inside-1_256_1068" fill="white">
<path d="M8 0L10.472 5.26604L16 6.11567L12 10.2124L12.944 16L8 13.266L3.056 16L4 10.2124L0 6.11567L5.528 5.26604L8 0Z"/>
</mask>
<path d="M8 0L25.1993 -8.07374C22.069 -14.742 15.3664 -19 8 -19C0.633568 -19 -6.06902 -14.742 -9.19927 -8.07374L8 0ZM10.472 5.26604L-6.72727 13.3398C-4.03748 19.0698 1.32923 23.0839 7.58567 24.0455L10.472 5.26604ZM16 6.11567L29.5946 19.3892C34.5684 14.2952 36.2769 6.84793 34.0209 0.0952492C31.765 -6.65744 25.9233 -11.5823 18.8863 -12.6638L16 6.11567ZM12 10.2124L-1.59458 -3.06115C-5.80917 1.25536 -7.72336 7.31689 -6.75219 13.271L12 10.2124ZM12.944 16L3.74945 32.6271C10.1172 36.1484 17.9368 35.7236 23.8856 31.5332C29.8345 27.3429 32.8676 20.123 31.6962 12.9414L12.944 16ZM8 13.266L17.1946 -3.36106C11.4731 -6.52493 4.52689 -6.52493 -1.19455 -3.36106L8 13.266ZM3.056 16L-15.6962 12.9414C-16.8676 20.123 -13.8345 27.3429 -7.88562 31.5332C-1.93678 35.7236 5.88279 36.1484 12.2506 32.6271L3.056 16ZM4 10.2124L22.7522 13.271C23.7234 7.31689 21.8092 1.25536 17.5946 -3.06115L4 10.2124ZM0 6.11567L-2.88633 -12.6638C-9.92325 -11.5823 -15.765 -6.65744 -18.0209 0.0952492C-20.2769 6.84793 -18.5684 14.2952 -13.5946 19.3892L0 6.11567ZM5.528 5.26604L8.41433 24.0455C14.6708 23.0839 20.0375 19.0698 22.7273 13.3398L5.528 5.26604ZM-9.19927 8.07374L-6.72727 13.3398L27.6713 -2.8077L25.1993 -8.07374L-9.19927 8.07374ZM7.58567 24.0455L13.1137 24.8952L18.8863 -12.6638L13.3583 -13.5134L7.58567 24.0455ZM2.40542 -7.15789L-1.59458 -3.06115L25.5946 23.486L29.5946 19.3892L2.40542 -7.15789ZM-6.75219 13.271L-5.80819 19.0586L31.6962 12.9414L30.7522 7.15378L-6.75219 13.271ZM22.1386 -0.627093L17.1946 -3.36106L-1.19455 29.8931L3.74945 32.6271L22.1386 -0.627093ZM-1.19455 -3.36106L-6.13855 -0.627092L12.2506 32.6271L17.1946 29.8931L-1.19455 -3.36106ZM21.8082 19.0586L22.7522 13.271L-14.7522 7.15378L-15.6962 12.9414L21.8082 19.0586ZM17.5946 -3.06115L13.5946 -7.15789L-13.5946 19.3892L-9.59458 23.486L17.5946 -3.06115ZM2.88633 24.8952L8.41433 24.0455L2.64167 -13.5134L-2.88633 -12.6638L2.88633 24.8952ZM22.7273 13.3398L25.1993 8.07374L-9.19927 -8.07374L-11.6713 -2.8077L22.7273 13.3398Z" fill="#FFDC00" mask="url(#path-1-inside-1_256_1068)"/>
<mask id="path-3-inside-2_256_1068" fill="white">
<path d="M24 0L26.472 5.26604L32 6.11567L28 10.2124L28.944 16L24 13.266L19.056 16L20 10.2124L16 6.11567L21.528 5.26604L24 0Z"/>
</mask>
<path d="M24 0L41.1993 -8.07374C38.069 -14.742 31.3664 -19 24 -19C16.6336 -19 9.93098 -14.742 6.80073 -8.07374L24 0ZM26.472 5.26604L9.27273 13.3398C11.9625 19.0698 17.3292 23.0839 23.5857 24.0455L26.472 5.26604ZM32 6.11567L45.5946 19.3892C50.5684 14.2952 52.2769 6.84793 50.0209 0.0952492C47.765 -6.65744 41.9233 -11.5823 34.8863 -12.6638L32 6.11567ZM28 10.2124L14.4054 -3.06115C10.1908 1.25536 8.27664 7.31689 9.24781 13.271L28 10.2124ZM28.944 16L19.7494 32.6271C26.1172 36.1484 33.9368 35.7236 39.8856 31.5332C45.8345 27.3429 48.8676 20.123 47.6962 12.9414L28.944 16ZM24 13.266L33.1946 -3.36106C27.4731 -6.52493 20.5269 -6.52493 14.8054 -3.36106L24 13.266ZM19.056 16L0.303805 12.9414C-0.867571 20.123 2.16555 27.3429 8.11438 31.5332C14.0632 35.7236 21.8828 36.1484 28.2506 32.6271L19.056 16ZM20 10.2124L38.7522 13.271C39.7234 7.31689 37.8092 1.25536 33.5946 -3.06115L20 10.2124ZM16 6.11567L13.1137 -12.6638C6.07675 -11.5823 0.234982 -6.65744 -2.02095 0.0952492C-4.27688 6.84793 -2.56836 14.2952 2.40542 19.3892L16 6.11567ZM21.528 5.26604L24.4143 24.0455C30.6708 23.0839 36.0375 19.0698 38.7273 13.3398L21.528 5.26604ZM6.80073 8.07374L9.27273 13.3398L43.6713 -2.8077L41.1993 -8.07374L6.80073 8.07374ZM23.5857 24.0455L29.1137 24.8952L34.8863 -12.6638L29.3583 -13.5134L23.5857 24.0455ZM18.4054 -7.15789L14.4054 -3.06115L41.5946 23.486L45.5946 19.3892L18.4054 -7.15789ZM9.24781 13.271L10.1918 19.0586L47.6962 12.9414L46.7522 7.15378L9.24781 13.271ZM38.1386 -0.627093L33.1946 -3.36106L14.8054 29.8931L19.7494 32.6271L38.1386 -0.627093ZM14.8054 -3.36106L9.86145 -0.627092L28.2506 32.6271L33.1946 29.8931L14.8054 -3.36106ZM37.8082 19.0586L38.7522 13.271L1.2478 7.15378L0.303805 12.9414L37.8082 19.0586ZM33.5946 -3.06115L29.5946 -7.15789L2.40542 19.3892L6.40542 23.486L33.5946 -3.06115ZM18.8863 24.8952L24.4143 24.0455L18.6417 -13.5134L13.1137 -12.6638L18.8863 24.8952ZM38.7273 13.3398L41.1993 8.07374L6.80073 -8.07374L4.32873 -2.8077L38.7273 13.3398Z" fill="#FFDC00" mask="url(#path-3-inside-2_256_1068)"/>
<mask id="path-5-inside-3_256_1068" fill="white">
<path d="M40 0L42.472 5.26604L48 6.11567L44 10.2124L44.944 16L40 13.266L35.056 16L36 10.2124L32 6.11567L37.528 5.26604L40 0Z"/>
</mask>
<path d="M40 0L57.1993 -8.07374C54.069 -14.742 47.3664 -19 40 -19C32.6336 -19 25.931 -14.742 22.8007 -8.07374L40 0ZM42.472 5.26604L25.2727 13.3398C27.9625 19.0698 33.3292 23.0839 39.5857 24.0455L42.472 5.26604ZM48 6.11567L61.5946 19.3892C66.5684 14.2952 68.2769 6.84793 66.0209 0.0952492C63.765 -6.65744 57.9233 -11.5823 50.8863 -12.6638L48 6.11567ZM44 10.2124L30.4054 -3.06115C26.1908 1.25536 24.2766 7.31689 25.2478 13.271L44 10.2124ZM44.944 16L35.7494 32.6271C42.1172 36.1484 49.9368 35.7236 55.8856 31.5332C61.8345 27.3429 64.8676 20.123 63.6962 12.9414L44.944 16ZM40 13.266L49.1946 -3.36106C43.4731 -6.52493 36.5269 -6.52493 30.8054 -3.36106L40 13.266ZM35.056 16L16.3038 12.9414C15.1324 20.123 18.1655 27.3429 24.1144 31.5332C30.0632 35.7236 37.8828 36.1484 44.2506 32.6271L35.056 16ZM36 10.2124L54.7522 13.271C55.7234 7.31689 53.8092 1.25536 49.5946 -3.06115L36 10.2124ZM32 6.11567L29.1137 -12.6638C22.0767 -11.5823 16.235 -6.65744 13.9791 0.0952492C11.7231 6.84793 13.4316 14.2952 18.4054 19.3892L32 6.11567ZM37.528 5.26604L40.4143 24.0455C46.6708 23.0839 52.0375 19.0698 54.7273 13.3398L37.528 5.26604ZM22.8007 8.07374L25.2727 13.3398L59.6713 -2.8077L57.1993 -8.07374L22.8007 8.07374ZM39.5857 24.0455L45.1137 24.8952L50.8863 -12.6638L45.3583 -13.5134L39.5857 24.0455ZM34.4054 -7.15789L30.4054 -3.06115L57.5946 23.486L61.5946 19.3892L34.4054 -7.15789ZM25.2478 13.271L26.1918 19.0586L63.6962 12.9414L62.7522 7.15378L25.2478 13.271ZM54.1386 -0.627093L49.1946 -3.36106L30.8054 29.8931L35.7494 32.6271L54.1386 -0.627093ZM30.8054 -3.36106L25.8614 -0.627092L44.2506 32.6271L49.1946 29.8931L30.8054 -3.36106ZM53.8082 19.0586L54.7522 13.271L17.2478 7.15378L16.3038 12.9414L53.8082 19.0586ZM49.5946 -3.06115L45.5946 -7.15789L18.4054 19.3892L22.4054 23.486L49.5946 -3.06115ZM34.8863 24.8952L40.4143 24.0455L34.6417 -13.5134L29.1137 -12.6638L34.8863 24.8952ZM54.7273 13.3398L57.1993 8.07374L22.8007 -8.07374L20.3287 -2.8077L54.7273 13.3398Z" fill="#FFDC00" mask="url(#path-5-inside-3_256_1068)"/>
<mask id="path-7-inside-4_256_1068" fill="white">
<path d="M56 0L58.472 5.26604L64 6.11567L60 10.2124L60.944 16L56 13.266L51.056 16L52 10.2124L48 6.11567L53.528 5.26604L56 0Z"/>
</mask>
<path d="M56 0L73.1993 -8.07374C70.069 -14.742 63.3664 -19 56 -19C48.6336 -19 41.931 -14.742 38.8007 -8.07374L56 0ZM58.472 5.26604L41.2727 13.3398C43.9625 19.0698 49.3292 23.0839 55.5857 24.0455L58.472 5.26604ZM64 6.11567L77.5946 19.3892C82.5684 14.2952 84.2769 6.84793 82.0209 0.0952492C79.765 -6.65744 73.9233 -11.5823 66.8863 -12.6638L64 6.11567ZM60 10.2124L46.4054 -3.06115C42.1908 1.25536 40.2766 7.31689 41.2478 13.271L60 10.2124ZM60.944 16L51.7494 32.6271C58.1172 36.1484 65.9368 35.7236 71.8856 31.5332C77.8345 27.3429 80.8676 20.123 79.6962 12.9414L60.944 16ZM56 13.266L65.1946 -3.36106C59.4731 -6.52493 52.5269 -6.52493 46.8054 -3.36106L56 13.266ZM51.056 16L32.3038 12.9414C31.1324 20.123 34.1655 27.3429 40.1144 31.5332C46.0632 35.7236 53.8828 36.1484 60.2506 32.6271L51.056 16ZM52 10.2124L70.7522 13.271C71.7234 7.31689 69.8092 1.25536 65.5946 -3.06115L52 10.2124ZM48 6.11567L45.1137 -12.6638C38.0767 -11.5823 32.235 -6.65744 29.9791 0.0952492C27.7231 6.84793 29.4316 14.2952 34.4054 19.3892L48 6.11567ZM53.528 5.26604L56.4143 24.0455C62.6708 23.0839 68.0375 19.0698 70.7273 13.3398L53.528 5.26604ZM38.8007 8.07374L41.2727 13.3398L75.6713 -2.8077L73.1993 -8.07374L38.8007 8.07374ZM55.5857 24.0455L61.1137 24.8952L66.8863 -12.6638L61.3583 -13.5134L55.5857 24.0455ZM50.4054 -7.15789L46.4054 -3.06115L73.5946 23.486L77.5946 19.3892L50.4054 -7.15789ZM41.2478 13.271L42.1918 19.0586L79.6962 12.9414L78.7522 7.15378L41.2478 13.271ZM70.1386 -0.627093L65.1946 -3.36106L46.8054 29.8931L51.7494 32.6271L70.1386 -0.627093ZM46.8054 -3.36106L41.8614 -0.627092L60.2506 32.6271L65.1946 29.8931L46.8054 -3.36106ZM69.8082 19.0586L70.7522 13.271L33.2478 7.15378L32.3038 12.9414L69.8082 19.0586ZM65.5946 -3.06115L61.5946 -7.15789L34.4054 19.3892L38.4054 23.486L65.5946 -3.06115ZM50.8863 24.8952L56.4143 24.0455L50.6417 -13.5134L45.1137 -12.6638L50.8863 24.8952ZM70.7273 13.3398L73.1993 8.07374L38.8007 -8.07374L36.3287 -2.8077L70.7273 13.3398Z" fill="#FFDC00" mask="url(#path-7-inside-4_256_1068)"/>
<mask id="path-9-inside-5_256_1068" fill="white">
<path d="M72 0L74.472 5.26604L80 6.11567L76 10.2124L76.944 16L72 13.266L67.056 16L68 10.2124L64 6.11567L69.528 5.26604L72 0Z"/>
</mask>
<path d="M72 0L89.1993 -8.07374C86.069 -14.742 79.3664 -19 72 -19C64.6336 -19 57.931 -14.742 54.8007 -8.07374L72 0ZM74.472 5.26604L57.2727 13.3398C59.9625 19.0698 65.3292 23.0839 71.5857 24.0455L74.472 5.26604ZM80 6.11567L93.5946 19.3892C98.5684 14.2952 100.277 6.84793 98.0209 0.0952492C95.765 -6.65744 89.9233 -11.5823 82.8863 -12.6638L80 6.11567ZM76 10.2124L62.4054 -3.06115C58.1908 1.25536 56.2766 7.31689 57.2478 13.271L76 10.2124ZM76.944 16L67.7494 32.6271C74.1172 36.1484 81.9368 35.7236 87.8856 31.5332C93.8345 27.3429 96.8676 20.123 95.6962 12.9414L76.944 16ZM72 13.266L81.1946 -3.36106C75.4731 -6.52493 68.5269 -6.52493 62.8054 -3.36106L72 13.266ZM67.056 16L48.3038 12.9414C47.1324 20.123 50.1655 27.3429 56.1144 31.5332C62.0632 35.7236 69.8828 36.1484 76.2506 32.6271L67.056 16ZM68 10.2124L86.7522 13.271C87.7234 7.31689 85.8092 1.25536 81.5946 -3.06115L68 10.2124ZM64 6.11567L61.1137 -12.6638C54.0767 -11.5823 48.235 -6.65744 45.9791 0.0952492C43.7231 6.84793 45.4316 14.2952 50.4054 19.3892L64 6.11567ZM69.528 5.26604L72.4143 24.0455C78.6708 23.0839 84.0375 19.0698 86.7273 13.3398L69.528 5.26604ZM54.8007 8.07374L57.2727 13.3398L91.6713 -2.8077L89.1993 -8.07374L54.8007 8.07374ZM71.5857 24.0455L77.1137 24.8952L82.8863 -12.6638L77.3583 -13.5134L71.5857 24.0455ZM66.4054 -7.15789L62.4054 -3.06115L89.5946 23.486L93.5946 19.3892L66.4054 -7.15789ZM57.2478 13.271L58.1918 19.0586L95.6962 12.9414L94.7522 7.15378L57.2478 13.271ZM86.1386 -0.627093L81.1946 -3.36106L62.8054 29.8931L67.7494 32.6271L86.1386 -0.627093ZM62.8054 -3.36106L57.8614 -0.627092L76.2506 32.6271L81.1946 29.8931L62.8054 -3.36106ZM85.8082 19.0586L86.7522 13.271L49.2478 7.15378L48.3038 12.9414L85.8082 19.0586ZM81.5946 -3.06115L77.5946 -7.15789L50.4054 19.3892L54.4054 23.486L81.5946 -3.06115ZM66.8863 24.8952L72.4143 24.0455L66.6417 -13.5134L61.1137 -12.6638L66.8863 24.8952ZM86.7273 13.3398L89.1993 8.07374L54.8007 -8.07374L52.3287 -2.8077L86.7273 13.3398Z" fill="#FFDC00" mask="url(#path-9-inside-5_256_1068)"/>
</svg>
