<svg width="41" height="40" viewBox="0 0 41 40" fill="none" xmlns="http://www.w3.org/2000/svg">
<g clip-path="url(#clip0_256_402)">
<path d="M40.5 8.0441C37.9838 8.16007 38.0388 8.15061 37.7543 8.17441L39.2445 3.91873C39.2445 3.91873 34.593 5.62985 33.4138 5.93595C30.3169 3.15244 25.7136 3.02945 22.4226 5.05216C19.7276 6.70896 18.2811 9.55411 18.7635 12.8796C13.5185 12.1518 9.09924 9.6655 5.61017 5.47421L4.50665 4.14884L3.68207 5.66312C2.63989 7.57657 2.29382 9.76438 2.70734 11.8234C2.87701 12.6681 3.16541 13.4738 3.56488 14.2282L2.61822 13.8614L2.50592 15.4431C2.39209 17.0498 2.92706 18.9254 3.93719 20.4599C4.22162 20.892 4.58783 21.3665 5.052 21.8347L4.5628 21.7596L5.15973 23.5721C5.94434 25.9533 7.57397 27.7957 9.68884 28.8199C7.57672 29.7162 5.87048 30.2881 3.06592 31.2106L0.5 32.0541L2.86999 33.3499C3.77362 33.844 6.96667 35.494 10.1216 35.989C17.1345 37.0889 25.0303 36.1932 30.3459 31.4059C34.8231 27.3736 36.2922 21.6378 35.9871 15.6689C35.941 14.7653 36.1885 13.9029 36.6841 13.2409C37.6768 11.9156 40.4939 8.05295 40.5 8.0441ZM34.81 11.8371C33.9869 12.9361 33.5746 14.3396 33.6485 15.7885C33.9564 21.8094 32.3182 26.4785 28.7791 29.6658C24.6449 33.3893 17.9765 34.8507 10.4844 33.6755C9.12762 33.4628 7.72534 32.9864 6.56476 32.5107C8.91614 31.7016 10.7319 30.9805 13.6644 29.5926L17.758 27.655L13.2383 27.3657C11.0734 27.2271 9.27075 26.1779 8.16266 24.4745C8.75104 24.4403 9.31836 24.3451 9.88324 24.1876L14.1938 22.987L9.84723 21.9226C7.73511 21.4053 6.53119 20.1416 5.89307 19.1723C5.47406 18.5354 5.20032 17.883 5.03613 17.2815C5.47192 17.3983 5.98004 17.4817 6.79944 17.5628L10.8226 17.9608L7.63501 15.4742C5.33826 13.6828 4.41785 10.9915 5.09259 8.40421C12.2606 15.8389 20.6767 15.2801 21.5239 15.4767C21.3374 13.6654 21.3325 13.6612 21.2837 13.4887C20.1988 9.6536 22.5764 7.70627 23.6488 7.04709C25.8888 5.67044 29.4444 5.46292 31.9072 7.73099C32.4391 8.22049 33.1584 8.41306 33.8316 8.24582C34.4358 8.09567 34.9318 7.93668 35.4173 7.76364L34.4066 10.65L35.6968 10.6509C35.4533 10.9774 35.1613 11.3684 34.81 11.8371Z" fill="white"/>
</g>
<defs>
<clipPath id="clip0_256_402">
<rect width="40" height="40" fill="white" transform="translate(0.5)"/>
</clipPath>
</defs>
</svg>
