<svg width="72" height="72" viewBox="0 0 72 72" fill="none" xmlns="http://www.w3.org/2000/svg">
<path d="M36 72C55.8823 72 72 55.8823 72 36C72 16.1178 55.8823 0 36 0C16.1178 0 0 16.1178 0 36C0 55.8823 16.1178 72 36 72Z" fill="#FCD800"/>
<path d="M59.3196 21.5385C57.5655 22.3046 55.7101 22.8135 53.8106 23.0496C55.8129 21.8622 57.3097 19.9811 58.0169 17.7633C56.1428 18.8757 54.0922 19.6591 51.9538 20.0796C50.6434 18.6782 48.9416 17.7036 47.0698 17.2824C45.198 16.8613 43.2428 17.0132 41.4585 17.7183C39.6741 18.4235 38.1433 19.6492 37.0651 21.2362C35.9868 22.8231 35.4111 24.6978 35.4127 26.6164C35.406 27.3487 35.4807 28.0796 35.6354 28.7954C31.8315 28.6085 28.1099 27.6214 24.7136 25.8983C21.3173 24.1752 18.3227 21.7551 15.9254 18.7959C14.6931 20.901 14.3113 23.3972 14.8581 25.7744C15.4048 28.1516 16.8388 30.2302 18.8669 31.5854C17.3531 31.5446 15.8714 31.14 14.5469 30.4059V30.5101C14.5512 32.7167 15.3149 34.8545 16.7098 36.5642C18.1047 38.2739 20.0456 39.4514 22.2064 39.8985C21.3887 40.1134 20.546 40.2185 19.7006 40.2112C19.0919 40.2224 18.4837 40.1684 17.8864 40.0501C18.5054 41.9478 19.6973 43.6071 21.2979 44.7997C22.8985 45.9923 24.8294 46.6597 26.8248 46.7101C23.4433 49.3532 19.2747 50.7889 14.9827 50.7885C14.218 50.795 13.4537 50.7507 12.6948 50.6559C17.0711 53.4774 22.1721 54.9683 27.379 54.9475C44.9764 54.9475 54.5969 40.3722 54.5969 27.7391C54.5969 27.3175 54.5969 26.9101 54.5638 26.5027C56.4374 25.1506 58.0489 23.4684 59.3196 21.5385Z" fill="#025ABB"/>
</svg>
