<svg width="34" height="57" viewBox="0 0 34 57" fill="none" xmlns="http://www.w3.org/2000/svg">
<path fill-rule="evenodd" clip-rule="evenodd" d="M23.3125 30.0396C24.2731 18.8601 25.7014 8.15659 33.7014 4.11113C34.2963 17.4623 33.7893 31.9252 33.956 45.7032H24.8356C23.463 50.6469 20.6319 54.1131 17.2338 57.0023C13.3912 54.4719 10.5532 50.933 9.37731 45.7032H0V4.10878C8.28935 7.86344 9.67824 18.6091 10.6435 29.784C6.31018 29.2094 5.92361 36.3623 10.1366 35.6915C12.2593 35.3491 14.7639 28.8905 15.2037 23.1072C15.8611 14.4839 13.2176 3.96573 16.9769 0C20.8171 3.70306 18.162 13.4567 18.7523 22.338C18.9815 25.7948 20.9769 35.0536 23.5648 35.6915C27.7106 36.7047 28.1968 29.118 23.3102 30.0373L23.3125 30.0396ZM2.78704 11.2968V26.9604C2.78704 28.466 2.16898 30.701 3.54861 31.5828C4.8912 31.1278 5.71991 28.4379 7.34954 27.474C6.61574 21.0294 6.60185 13.8507 2.78704 10.5299V11.2992V11.2968ZM26.6088 27.7319C28.7546 28.2104 28.4977 31.1254 30.662 31.5828C31.6713 25.6682 31.1782 16.869 30.9167 10.5299C27.5694 14.3245 27.3148 21.2569 26.6088 27.7319ZM13.6852 36.7187C15.1065 37.1596 15.7569 38.3885 17.2338 38.7708C18.1065 37.8585 19.4884 37.4622 20.2731 36.4584C18.6204 34.5401 18.2755 31.2943 16.7269 29.2681C16.1713 32.2136 14.963 34.4955 13.6852 36.7164V36.7187ZM2.78935 42.8796H9.125C9.26157 41.4771 9.49537 40.1732 9.63194 38.7731C6.7338 38.3698 5.34028 36.442 4.05556 34.4087H2.78935V42.8796ZM29.6505 34.4087C28.9722 36.972 27.0023 38.2314 24.3287 38.7731C24.4815 40.1545 24.8495 41.327 24.838 42.8796H31.1736V34.4087H29.6505ZM12.1644 42.8796H15.4583C15.2639 40.9354 14.4282 39.6455 12.419 39.5424C12.3519 40.6751 12.0139 41.5287 12.1644 42.8796ZM18.5023 42.8796H21.7963C21.9444 41.5287 21.6065 40.6727 21.5417 39.5424C19.4792 39.5939 18.7755 41.0175 18.5023 42.8796ZM15.4606 51.6107V45.7032H12.6736C12.8796 48.4072 14.0995 50.0817 15.4606 51.6107ZM18.7569 51.6107C19.8519 49.8964 21.2662 48.5033 21.287 45.7032H18.5023C18.669 47.5911 18.1667 50.152 18.7569 51.6107Z" fill="#FCD800"/>
<path fill-rule="evenodd" clip-rule="evenodd" d="M23.3127 30.0368C23.3127 30.0377 23.3126 30.0387 23.3125 30.0396L23.3102 30.0373C23.311 30.0371 23.3119 30.037 23.3127 30.0368ZM33.9528 31C33.9553 30.608 33.9578 30.2159 33.9602 29.8239C34.0154 21.1111 34.0706 12.397 33.7014 4.11113C25.7021 8.15625 24.2734 18.8583 23.3127 30.0368C24.7496 29.7673 25.7216 30.2334 26.2723 31H29.5585C29.1697 30.6298 28.8962 30.1425 28.6228 29.6551C28.1501 28.8127 27.6774 27.9702 26.6088 27.7319C26.6987 26.9073 26.7813 26.0753 26.8639 25.2433C27.4298 19.542 27.9957 13.8412 30.9167 10.5299C30.9386 11.0604 30.9621 11.608 30.9862 12.1698C31.2409 18.1043 31.5632 25.6116 30.7553 31H33.9528ZM0 31V4.10878C8.28935 7.86344 9.67824 18.6091 10.6435 29.784C9.30772 29.6069 8.34696 30.1641 7.78037 31H4.37424C4.71336 30.6417 5.03395 30.1709 5.36718 29.6814C5.9384 28.8424 6.54679 27.9488 7.34954 27.474C7.23265 26.4474 7.13402 25.4022 7.03539 24.3569C6.51487 18.8402 5.99417 13.3217 2.78704 10.5299V11.2968V11.2992V26.9604C2.78704 27.3038 2.75488 27.6851 2.72162 28.0797C2.6348 29.1094 2.54039 30.2292 2.98992 31H0ZM13.4708 31C14.3349 28.6893 14.9971 25.8238 15.2037 23.1072C15.431 20.1263 15.2638 16.919 15.103 13.8342C14.7986 7.99507 14.5171 2.59486 16.9769 0C19.5043 2.43717 19.2183 7.49523 18.8956 13.2005C18.728 16.1639 18.5505 19.3019 18.7523 22.338C18.8796 24.2588 19.5523 27.9709 20.5689 31H17.7123C17.4338 30.3721 17.1189 29.781 16.7269 29.2681C16.613 29.8715 16.4718 30.4471 16.3082 31H13.4708Z" fill="#025ABB"/>
</svg>
